<svg width="623" height="75" viewBox="0 0 623 75" fill="none" xmlns="http://www.w3.org/2000/svg">
<g id="DARIUSZ K&#196;&#132;KOL" filter="url(#filter0_d_315_134)">
<path id="Vector_12" d="M39.02 5.48784L39.0244 5.49006C43.3346 7.69652 46.6276 10.8398 48.9284 14.9302L48.9321 14.9367L48.9358 14.9431C51.2877 18.9822 52.48 23.71 52.48 29.1599C52.48 34.6098 51.2877 39.3377 48.9358 43.3767L48.9338 43.3802C46.6349 47.365 43.3414 50.4598 39.0243 52.6698L39.02 52.672C34.7586 54.8797 29.7748 55.9999 24.04 55.9999H5.52002V2.15991H24.04C29.7748 2.15991 34.7586 3.28012 39.02 5.48784ZM15.72 9.59991H14.72V10.5999V47.4799V48.4799H15.72H23.64C29.6899 48.4799 34.5086 46.8255 37.9471 43.387C41.384 39.9502 43.04 35.1595 43.04 29.1599C43.04 23.1611 41.3846 18.3492 37.9558 14.8615C34.5192 11.3122 29.6974 9.59991 23.64 9.59991H15.72Z" stroke="white" stroke-width="2"/>
<path id="Vector_11" d="M97.0489 46.0332L96.8161 45.3601H96.1038H73.8638H73.1516L72.9188 46.0332L69.4716 56.0001H59.8454L79.2073 2.08008H90.8404L110.202 56.0001H100.496L97.0489 46.0332ZM93.0638 38.4001H94.4678L94.0089 37.0732L85.9289 13.7132L84.9838 10.9809L84.0388 13.7132L75.9588 37.0732L75.4998 38.4001H76.9038H93.0638Z" stroke="white" stroke-width="2"/>
<path id="Vector_10" d="M129.329 35.2399V55.9999H120.129V2.15991H140.089C144.293 2.15991 147.809 2.91248 150.676 4.37119L150.676 4.37127L150.688 4.37746C153.572 5.79413 155.679 7.71745 157.061 10.1361L157.067 10.1466L157.073 10.157C158.519 12.55 159.249 15.249 159.249 18.2799C159.249 21.7506 158.248 24.8795 156.238 27.6952C154.266 30.4055 151.309 32.3205 147.272 33.3935L145.998 33.7323L146.668 34.8681L159.138 55.9999H148.512L136.48 34.7472L136.192 34.2399H135.609H130.329H129.329V35.2399ZM129.329 26.8399V27.8399H130.329H139.689C142.869 27.8399 145.433 27.0882 147.184 25.3998L147.19 25.3934L147.197 25.387C148.92 23.6637 149.729 21.3317 149.729 18.5199C149.729 15.7615 148.919 13.4951 147.177 11.8735C145.426 10.1897 142.865 9.43991 139.689 9.43991H130.329H129.329V10.4399V26.8399Z" stroke="white" stroke-width="2"/>
<path id="Vector_9" d="M180.579 2.15991V55.9999H171.379V2.15991H180.579Z" stroke="white" stroke-width="2"/>
<path id="Vector_8" d="M193.485 35.6399V2.15991H202.685V35.7199C202.685 39.6765 203.719 42.868 205.929 45.1375L205.928 45.1376L205.938 45.147C208.147 47.3566 211.204 48.3999 214.965 48.3999C218.774 48.3999 221.86 47.3593 224.072 45.147L224.072 45.1471L224.081 45.1375C226.291 42.8679 227.325 39.6765 227.325 35.7199V2.15991H236.605V35.6399C236.605 40.2389 235.599 44.0716 233.639 47.1875L233.636 47.1912C231.711 50.2822 229.109 52.6059 225.814 54.1773L225.809 54.1799C222.546 55.7604 218.884 56.5599 214.805 56.5599C210.782 56.5599 207.148 55.7617 203.884 54.1813C200.7 52.6141 198.177 50.295 196.302 47.2045C194.442 44.0856 193.485 40.2465 193.485 35.6399Z" stroke="white" stroke-width="2"/>
<path id="Vector_7" d="M260.707 47.0939L260.714 47.1L260.72 47.106C262.443 48.6446 264.731 49.3601 267.466 49.3601C270.23 49.3601 272.535 48.711 274.261 47.2928L274.269 47.2862L274.277 47.2794C276 45.8028 276.866 43.8685 276.866 41.5601C276.866 39.6848 276.284 38.0674 275.071 36.7914C273.947 35.6077 272.542 34.7056 270.881 34.0727C269.332 33.4104 267.212 32.7067 264.542 31.9589C260.949 30.9017 258.04 29.8783 255.804 28.8912C253.72 27.8966 251.898 26.4289 250.338 24.469C248.909 22.5579 248.146 19.9662 248.146 16.6001C248.146 13.4682 248.926 10.7881 250.456 8.51896C251.991 6.24062 254.152 4.49124 256.98 3.27925L256.987 3.2763L256.994 3.27324C259.832 2.00627 263.103 1.36011 266.826 1.36011C272.422 1.36011 276.851 2.73087 280.206 5.38439L280.212 5.38948L280.219 5.39446C283.336 7.77792 285.178 11.0452 285.721 15.2801H275.397C275.083 13.4905 274.16 11.9814 272.663 10.7884C270.945 9.32286 268.697 8.64011 266.026 8.64011C263.666 8.64011 261.659 9.24754 260.103 10.5544L260.095 10.5609L260.088 10.5675C258.538 11.9239 257.826 13.8575 257.826 16.2001C257.826 17.9297 258.391 19.435 259.54 20.6479L259.559 20.6675L259.579 20.6861C260.684 21.7336 262.01 22.5936 263.54 23.2739L263.56 23.2828L263.581 23.2909C265.112 23.8923 267.222 24.5948 269.899 25.3979L269.904 25.3995C273.504 26.4582 276.413 27.5087 278.645 28.5468C280.784 29.5418 282.634 31.0367 284.196 33.0527C285.679 34.9663 286.466 37.5315 286.466 40.8401C286.466 43.6442 285.743 46.2388 284.29 48.643C282.852 51.0244 280.734 52.9564 277.893 54.4288C275.075 55.8365 271.69 56.5601 267.706 56.5601C263.93 56.5601 260.546 55.914 257.539 54.6404C254.598 53.372 252.294 51.5609 250.597 49.214C249.095 47.138 248.233 44.7167 248.03 41.9201H258.09C258.4 44.0064 259.259 45.7532 260.707 47.0939Z" stroke="white" stroke-width="2"/>
<path id="Vector_6" d="M307.784 47.006L306.75 48.5599H308.616H332.736V55.9999H296.656V48.6605L321.45 11.1513L322.476 9.59991H320.616H296.656V2.15991H332.736V9.49767L307.784 47.006Z" stroke="white" stroke-width="2"/>
<path id="Vector_5" d="M383.567 29.4835L405.865 55.9999H394.327L374.307 31.4874L372.533 29.3146V32.1199V55.9999H363.333V2.15991H372.533V26.1999V29.0192L374.309 26.83L394.329 2.15991H405.239L383.564 28.2002L383.029 28.8432L383.567 29.4835Z" stroke="white" stroke-width="2"/>
<path id="Vector_4" d="M453.645 57.0108L454.25 56.5741L454.003 55.8701L450.563 46.0301L450.329 45.3601H449.619H427.379H426.667L426.434 46.0332L422.987 56.0001H413.361L432.723 2.08008H444.356L463.898 56.5026L460.863 58.0204C459.019 58.8888 457.605 59.779 456.728 60.7178L456.705 60.7429L456.683 60.7695C455.867 61.7738 455.419 62.8975 455.419 64.1201C455.419 65.3893 455.868 66.4834 456.814 67.2835L456.827 67.2952L456.842 67.3064C457.81 68.0674 459.035 68.4001 460.419 68.4001C461.905 68.4001 463.439 68.1379 465.019 67.6282V72.2017C463.088 72.8127 461.05 73.1201 458.899 73.1201C455.918 73.1201 453.459 72.4153 451.468 71.0576C449.648 69.7811 448.699 67.8735 448.699 65.1601C448.699 63.6827 449.053 62.2774 449.771 60.9314C450.533 59.6536 451.802 58.3416 453.645 57.0108ZM446.579 38.4001H447.983L447.525 37.0732L439.445 13.7132L438.499 10.9809L437.554 13.7132L429.474 37.0732L429.015 38.4001H430.419H446.579Z" stroke="white" stroke-width="2"/>
<path id="Vector_3" d="M493.88 29.4835L516.178 55.9999H504.639L484.62 31.4874L482.845 29.3146V32.1199V55.9999H473.645V2.15991H482.845V26.1999V29.0192L484.622 26.83L504.641 2.15991H515.552L493.876 28.2002L493.341 28.8432L493.88 29.4835Z" stroke="white" stroke-width="2"/>
<path id="Vector_2" d="M527.672 14.7899L527.672 14.7899L527.675 14.7853C530.146 10.5636 533.485 7.27767 537.701 4.91224C541.919 2.54636 546.549 1.36011 551.612 1.36011C556.73 1.36011 561.358 2.54722 565.518 4.90967L565.523 4.91224C569.737 7.27663 573.047 10.56 575.464 14.7774L575.468 14.7837L575.472 14.7899C577.933 18.9428 579.172 23.644 579.172 28.9201C579.172 34.2513 577.932 39.0076 575.469 43.2149L575.467 43.2182C573.051 47.3828 569.741 50.6418 565.523 53.008C561.305 55.3739 556.675 56.5601 551.612 56.5601C546.549 56.5601 541.919 55.3739 537.701 53.008C533.482 50.6413 530.144 47.3804 527.674 43.2126C525.212 39.0059 523.972 34.2503 523.972 28.9201C523.972 23.644 525.211 18.9428 527.672 14.7899ZM560.996 46.1839L561.002 46.18L561.009 46.176C563.739 44.5269 565.864 42.1964 567.383 39.214C568.906 36.2239 569.652 32.7834 569.652 28.9201C569.652 25.0589 568.907 21.6429 567.381 18.7028C565.861 15.7194 563.732 13.4126 560.996 11.8163C558.263 10.2224 555.125 9.44011 551.612 9.44011C548.099 9.44011 544.937 10.2225 542.156 11.8119L542.156 11.8118L542.148 11.8163C539.412 13.4126 537.283 15.7194 535.763 18.7028C534.237 21.6429 533.492 25.0589 533.492 28.9201C533.492 32.7834 534.238 36.2239 535.761 39.214C537.28 42.1964 539.405 44.5269 542.135 46.176L542.145 46.1823L542.156 46.1884C544.937 47.7777 548.099 48.5601 551.612 48.5601C555.125 48.5601 558.263 47.7779 560.996 46.1839Z" stroke="white" stroke-width="2"/>
<path id="Vector" d="M598.704 48.1199V49.1199H599.704H617.104V55.9999H589.504V2.15991H598.704V48.1199Z" stroke="white" stroke-width="2"/>
</g>
<defs>
<filter id="filter0_d_315_134" x="0.52002" y="0.360107" width="621.584" height="81.76" filterUnits="userSpaceOnUse" color-interpolation-filters="sRGB">
<feFlood flood-opacity="0" result="BackgroundImageFix"/>
<feColorMatrix in="SourceAlpha" type="matrix" values="0 0 0 0 0 0 0 0 0 0 0 0 0 0 0 0 0 0 127 0" result="hardAlpha"/>
<feOffset dy="4"/>
<feGaussianBlur stdDeviation="2"/>
<feComposite in2="hardAlpha" operator="out"/>
<feColorMatrix type="matrix" values="0 0 0 0 0 0 0 0 0 0 0 0 0 0 0 0 0 0 0.25 0"/>
<feBlend mode="normal" in2="BackgroundImageFix" result="effect1_dropShadow_315_134"/>
<feBlend mode="normal" in="SourceGraphic" in2="effect1_dropShadow_315_134" result="shape"/>
</filter>
</defs>
</svg>
