<svg width="245" height="122" viewBox="0 0 245 122" fill="none" xmlns="http://www.w3.org/2000/svg">
<g clip-path="url(#clip0_221_1223)">
<path d="M119.967 52.1304L114.02 56.9757H117.904V72.7257L119.967 71.0638V52.1304Z" fill="black"/>
<path d="M121.682 69.6569L127.734 64.69H123.741V49.3L121.682 50.7338V69.6569Z" fill="black"/>
<path d="M196.596 54.9596C197.281 55.3161 197.775 55.6179 198.077 55.8647L200.216 51.7916C199.147 51.1333 197.857 50.5436 196.349 50.0224C194.868 49.5013 193.263 49.2407 191.535 49.2407C189.889 49.2407 188.367 49.515 186.968 50.0636C185.597 50.6121 184.5 51.4213 183.677 52.491C182.881 53.5607 182.484 54.891 182.484 56.4819C182.484 58.2648 183.046 59.6362 184.171 60.5962C185.323 61.5288 187.078 62.2968 189.437 62.9002C191.329 63.3939 192.852 63.8465 194.004 64.2579C195.183 64.6419 195.773 65.2865 195.773 66.1916C195.773 67.5356 194.511 68.2076 191.988 68.2076C190.726 68.2076 189.533 68.0568 188.408 67.755C187.284 67.4533 186.296 67.083 185.446 66.6442C184.623 66.2053 184.033 65.8076 183.677 65.451L181.455 69.771C182.881 70.6762 184.513 71.3893 186.351 71.9105C188.189 72.4316 190.04 72.6922 191.905 72.6922C193.524 72.6922 195.032 72.4728 196.431 72.0339C197.83 71.5676 198.954 70.827 199.805 69.8122C200.682 68.7699 201.121 67.3984 201.121 65.6978C201.121 64.299 200.792 63.1745 200.134 62.3242C199.503 61.4465 198.584 60.747 197.377 60.2259C196.198 59.7048 194.799 59.2385 193.181 58.827C191.343 58.3882 189.944 57.9905 188.984 57.6339C188.052 57.2773 187.585 56.6739 187.585 55.8236C187.585 54.3699 188.875 53.643 191.453 53.643C192.413 53.643 193.345 53.7801 194.251 54.0544C195.156 54.3013 195.937 54.603 196.596 54.9596Z" fill="black"/>
<path fill-rule="evenodd" clip-rule="evenodd" d="M153.299 72.5689C151.489 72.5689 149.843 72.2535 148.362 71.6226C146.881 70.9643 145.604 70.0866 144.535 68.9895C143.465 67.8649 142.642 66.6032 142.066 65.2043C141.491 63.8055 141.202 62.3655 141.202 60.8843C141.202 59.3757 141.504 57.922 142.107 56.5231C142.711 55.1243 143.562 53.89 144.659 52.8203C145.756 51.7231 147.044 50.8591 148.526 50.2283C150.007 49.5974 151.625 49.282 153.38 49.282C155.191 49.282 156.837 49.6248 158.318 50.3106C159.8 50.9688 161.061 51.8603 162.104 52.9848C163.173 54.082 163.995 55.33 164.571 56.7288C165.147 58.1277 165.436 59.5539 165.436 61.0077C165.436 62.5162 165.134 63.97 164.531 65.3689C163.928 66.7403 163.076 67.9746 161.979 69.0717C160.91 70.1415 159.635 70.9917 158.154 71.6226C156.673 72.2535 155.054 72.5689 153.299 72.5689ZM146.222 60.9255C146.222 62.1597 146.51 63.3392 147.086 64.4637C147.662 65.5609 148.471 66.4523 149.513 67.138C150.583 67.8237 151.858 68.1666 153.339 68.1666C154.848 68.1666 156.123 67.81 157.166 67.0969C158.209 66.3563 159.003 65.4375 159.552 64.3402C160.1 63.2157 160.376 62.0637 160.376 60.8843C160.376 59.65 160.088 58.4842 159.512 57.3871C158.936 56.29 158.113 55.4123 157.042 54.754C156 54.0683 154.753 53.7254 153.299 53.7254C151.79 53.7254 150.5 54.082 149.431 54.7951C148.388 55.5083 147.593 56.4134 147.044 57.5106C146.496 58.6077 146.222 59.746 146.222 60.9255Z" fill="black"/>
<path fill-rule="evenodd" clip-rule="evenodd" d="M40 72.4042L50.0389 49.4053H54.112L64.1097 72.4042H58.8434L56.5394 67.0145H47.6114L45.3074 72.4042H40ZM52.096 55.4533L48.7223 62.6945H55.3463L52.096 55.4533Z" fill="black"/>
<path d="M83.5607 49.4053L89.8967 57.5516L96.2327 49.4053H101.622L92.5299 61.0487L101.334 72.4042H95.9447L89.8967 64.587L83.8899 72.4042H78.4179L87.2636 61.0487L78.1299 49.4053H83.5607Z" fill="black"/>
</g>
<defs>
<filter id="filter0_f_221_1223" x="0" y="0" width="245" height="122" filterUnits="userSpaceOnUse" color-interpolation-filters="sRGB">
<feFlood flood-opacity="0" result="BackgroundImageFix"/>
<feBlend mode="normal" in="SourceGraphic" in2="BackgroundImageFix" result="shape"/>
<feGaussianBlur stdDeviation="5" result="effect1_foregroundBlur_221_1223"/>
</filter>
<clipPath id="clip0_221_1223">
<rect width="161.143" height="24" fill="white" transform="translate(40 49)"/>
</clipPath>
</defs>
</svg>
