<svg width="245" height="122" viewBox="0 0 245 122" fill="none" xmlns="http://www.w3.org/2000/svg">
<g clip-path="url(#clip0_221_1309)">
<path d="M33.1157 70.4357C32.2314 67.2155 31.7812 63.8708 31.7812 60.5021C31.7812 45.1238 41.4395 31.0626 55.8162 25.5176L57.7013 30.396C45.326 35.1701 37.0143 47.2679 37.0143 60.5021C37.0143 63.4051 37.4001 66.2799 38.1598 69.0504L33.1157 70.4357Z" fill="#69D3A7"/>
<path d="M98.1106 45.6458C92.5159 34.9051 81.5031 28.2318 69.3772 28.2318C65.0806 28.2318 60.9047 29.0589 56.9739 30.6851L54.9683 25.8548C59.5381 23.9636 64.3853 23 69.3772 23C83.4645 23 96.2537 30.7493 102.753 43.2286L98.1106 45.6458Z" fill="url(#paint0_linear_221_1309)"/>
<path d="M58.1514 52.7648C61.1858 52.7648 63.6577 54.3829 64.9278 57.2056L65.0283 57.4265L70.1246 55.6959L70.0161 55.435C68.0427 50.6287 63.4969 47.6414 58.1514 47.6414C54.3933 47.6414 51.3388 48.846 48.8147 51.3193C46.3067 53.7767 45.0366 56.8684 45.0366 60.5101C45.0366 64.1198 46.3067 67.1954 48.8147 69.6528C51.3388 72.1262 54.3933 73.3307 58.1514 73.3307C63.4969 73.3307 68.0427 70.3434 70.0161 65.5412L70.1246 65.2803L65.0202 63.5456L64.9238 63.7745C63.7863 66.549 61.2542 68.2073 58.1514 68.2073C56.0372 68.2073 54.2527 67.4685 52.8378 66.0149C51.4071 64.5414 50.6836 62.6904 50.6836 60.5142C50.6836 58.3218 51.391 56.507 52.8378 54.9651C54.2486 53.5037 56.0372 52.7648 58.1514 52.7648Z" fill="#1B1E2E"/>
<path d="M120.952 51.3234C118.6 48.8821 115.666 47.6414 112.226 47.6414C108.81 47.6414 105.996 48.8581 103.858 51.2551V48.1153H98.3516V82.3287H103.858V69.717C105.996 72.1142 108.806 73.3307 112.226 73.3307C115.666 73.3307 118.604 72.09 120.956 69.6448C123.271 67.1875 124.44 64.1157 124.44 60.5101C124.436 56.8684 123.267 53.7807 120.952 51.3234ZM116.635 66.007C115.224 67.4645 113.436 68.1993 111.326 68.1993C109.183 68.1993 107.447 67.4806 106.012 66.007C104.581 64.5334 103.858 62.6825 103.858 60.5062C103.858 58.2657 104.561 56.4507 106.012 54.9571C107.443 53.4795 109.179 52.7648 111.326 52.7648C113.44 52.7648 115.224 53.5037 116.635 54.9571C118.054 56.4187 118.741 58.2335 118.741 60.5062C118.741 62.7467 118.05 64.5454 116.635 66.007Z" fill="#1B1E2E"/>
<path d="M133.403 51.0624V48.1152H127.897V72.8528H133.403V58.896C133.403 56.6596 134.304 54.9491 136.08 53.8127C137.845 52.6844 139.963 52.4757 142.555 53.1824L142.889 53.2747V47.9827L142.684 47.9344C139.203 47.1033 135.71 48.2999 133.403 51.0624Z" fill="#1B1E2E"/>
<path d="M157.173 47.6414C153.544 47.6414 150.465 48.8781 148.021 51.3193C145.545 53.7928 144.292 56.8845 144.292 60.5101C144.292 64.1198 145.562 67.1954 148.069 69.6528C150.594 72.1262 153.648 73.3307 157.406 73.3307C162.499 73.3307 166.876 70.7449 169.118 66.4125L169.247 66.1635L164.589 64.0998L164.476 64.3206C163.126 66.9304 160.533 68.4884 157.551 68.4884C153.676 68.4884 150.71 66.1234 149.906 62.4334H169.882L169.906 62.1965C170.34 58.2054 169.311 54.7443 166.855 51.9056C164.412 49.0748 161.152 47.6414 157.173 47.6414ZM150.071 58.0167C151.048 54.64 153.805 52.4798 157.173 52.4798C160.634 52.4798 163.391 54.64 164.283 58.0167H150.071Z" fill="#1B1E2E"/>
<path d="M184.617 58.1492C181.614 57.5871 179.022 57.0973 179.022 55.0093C179.022 53.351 180.786 52.1946 183.311 52.1946C186.096 52.1946 187.623 53.3912 187.981 55.8525L188.021 56.1296L193.527 54.9773L193.488 54.7282C192.747 50.3557 188.849 47.6375 183.315 47.6375C180.537 47.6375 178.186 48.3562 176.329 49.7735C174.432 51.1829 173.471 53.0218 173.471 55.2462C173.471 58.4664 175.513 60.8835 178.942 61.7107C179.83 61.9195 180.77 62.0881 181.679 62.2568C185.091 62.8792 188.314 63.4693 188.314 65.766C188.314 67.5368 186.257 68.7695 183.315 68.7695C180.32 68.7695 178.668 67.5729 178.262 65.1076L178.218 64.8345L172.716 65.987L172.76 66.2398C173.56 70.6767 177.503 73.3267 183.311 73.3267C186.261 73.3267 188.789 72.592 190.814 71.1465C192.841 69.717 193.864 67.874 193.864 65.6696C193.864 59.8878 188.741 58.9242 184.617 58.1492Z" fill="#1B1E2E"/>
<path d="M208.47 58.1492C205.469 57.5871 202.877 57.0973 202.877 55.0093C202.877 53.351 204.641 52.1946 207.164 52.1946C209.95 52.1946 211.477 53.3912 211.834 55.8525L211.875 56.1296L217.381 54.9773L217.341 54.7282C216.602 50.3557 212.703 47.6375 207.169 47.6375C204.391 47.6375 202.039 48.3562 200.183 49.7735C198.286 51.1829 197.325 53.0218 197.325 55.2462C197.325 58.4664 199.367 60.8835 202.795 61.7107C203.684 61.9195 204.623 62.0881 205.533 62.2568C208.945 62.8792 212.169 63.4693 212.169 65.766C212.169 67.5368 210.111 68.7695 207.169 68.7695C204.173 68.7695 202.522 67.5729 202.116 65.1076L202.072 64.8345L196.57 65.987L196.614 66.2398C197.414 70.6767 201.356 73.3267 207.164 73.3267C210.114 73.3267 212.642 72.592 214.669 71.1465C216.694 69.717 217.719 67.874 217.719 65.6696C217.719 59.8878 212.594 58.9242 208.47 58.1492Z" fill="#1B1E2E"/>
<path d="M90.0718 48.1152L82.8091 66.4927L75.4982 48.1152H69.5176L79.7705 73.1982L72.4757 90.8891L77.7048 91.9291L95.7229 48.1152H90.0718Z" fill="#1B1E2E"/>
<path d="M73.4116 88.6084L72.1375 91.6922C71.8842 92.3025 71.3055 92.7159 70.6544 92.7441C70.2244 92.7602 69.7903 92.7722 69.3522 92.7722C54.3564 92.7642 41.089 82.1922 37.8012 67.625L32.6968 68.7773C34.5416 76.9483 39.1718 84.3644 45.7352 89.6645C52.375 95.0247 60.7389 97.9839 69.2959 98C69.308 98 69.3722 98 69.3722 98C69.8747 98 70.373 97.988 70.8714 97.968C73.5563 97.8555 75.9558 96.1731 76.9806 93.6797L78.6445 89.6484L73.4116 88.6084Z" fill="url(#paint1_linear_221_1309)"/>
</g>
<defs>
<filter id="filter0_f_221_1309" x="0" y="0" width="245" height="122" filterUnits="userSpaceOnUse" color-interpolation-filters="sRGB">
<feFlood flood-opacity="0" result="BackgroundImageFix"/>
<feBlend mode="normal" in="SourceGraphic" in2="BackgroundImageFix" result="shape"/>
<feGaussianBlur stdDeviation="5" result="effect1_foregroundBlur_221_1309"/>
</filter>
<linearGradient id="paint0_linear_221_1309" x1="65.4651" y1="20.579" x2="94.004" y2="51.0817" gradientUnits="userSpaceOnUse">
<stop offset="0.0939" stop-color="#58D09E"/>
<stop offset="0.9883" stop-color="#58D09E" stop-opacity="0"/>
</linearGradient>
<linearGradient id="paint1_linear_221_1309" x1="31.3806" y1="77.5648" x2="85.9031" y2="92.0769" gradientUnits="userSpaceOnUse">
<stop offset="0.0774" stop-color="#58D09E"/>
<stop offset="0.7617" stop-color="#1B1E2E"/>
</linearGradient>
<clipPath id="clip0_221_1309">
<rect width="187.5" height="75" fill="white" transform="translate(31 23)"/>
</clipPath>
</defs>
</svg>
