<svg width="245" height="122" viewBox="0 0 245 122" fill="none" xmlns="http://www.w3.org/2000/svg">
<path d="M142.406 57.288C142.022 56.584 141.494 56.048 140.822 55.68C140.15 55.312 139.366 55.128 138.47 55.128C137.478 55.128 136.598 55.352 135.83 55.8C135.062 56.248 134.462 56.888 134.03 57.72C133.598 58.552 133.382 59.512 133.382 60.6C133.382 61.72 133.598 62.696 134.03 63.528C134.478 64.36 135.094 65 135.878 65.448C136.662 65.896 137.574 66.12 138.614 66.12C139.894 66.12 140.942 65.784 141.758 65.112C142.574 64.424 143.11 63.472 143.366 62.256H137.606V59.688H146.678V62.616C146.454 63.784 145.974 64.864 145.238 65.856C144.502 66.848 143.55 67.648 142.382 68.256C141.23 68.848 139.934 69.144 138.494 69.144C136.878 69.144 135.414 68.784 134.102 68.064C132.806 67.328 131.782 66.312 131.03 65.016C130.294 63.72 129.926 62.248 129.926 60.6C129.926 58.952 130.294 57.48 131.03 56.184C131.782 54.872 132.806 53.856 134.102 53.136C135.414 52.4 136.87 52.032 138.47 52.032C140.358 52.032 141.998 52.496 143.39 53.424C144.782 54.336 145.742 55.624 146.27 57.288H142.406ZM154.948 69.168C153.78 69.168 152.724 68.968 151.78 68.568C150.852 68.168 150.116 67.592 149.572 66.84C149.028 66.088 148.748 65.2 148.732 64.176H152.332C152.38 64.864 152.62 65.408 153.052 65.808C153.5 66.208 154.108 66.408 154.876 66.408C155.66 66.408 156.276 66.224 156.724 65.856C157.172 65.472 157.396 64.976 157.396 64.368C157.396 63.872 157.244 63.464 156.94 63.144C156.636 62.824 156.252 62.576 155.788 62.4C155.34 62.208 154.716 62 153.916 61.776C152.828 61.456 151.94 61.144 151.252 60.84C150.58 60.52 149.996 60.048 149.5 59.424C149.02 58.784 148.78 57.936 148.78 56.88C148.78 55.888 149.028 55.024 149.524 54.288C150.02 53.552 150.716 52.992 151.612 52.608C152.508 52.208 153.532 52.008 154.684 52.008C156.412 52.008 157.812 52.432 158.884 53.28C159.972 54.112 160.572 55.28 160.684 56.784H156.988C156.956 56.208 156.708 55.736 156.244 55.368C155.796 54.984 155.196 54.792 154.444 54.792C153.788 54.792 153.26 54.96 152.86 55.296C152.476 55.632 152.284 56.12 152.284 56.76C152.284 57.208 152.428 57.584 152.716 57.888C153.02 58.176 153.388 58.416 153.82 58.608C154.268 58.784 154.892 58.992 155.692 59.232C156.78 59.552 157.668 59.872 158.356 60.192C159.044 60.512 159.636 60.992 160.132 61.632C160.628 62.272 160.876 63.112 160.876 64.152C160.876 65.048 160.644 65.88 160.18 66.648C159.716 67.416 159.036 68.032 158.14 68.496C157.244 68.944 156.18 69.168 154.948 69.168ZM174.061 65.808H167.389L166.285 69H162.757L168.781 52.224H172.693L178.717 69H175.165L174.061 65.808ZM173.149 63.12L170.725 56.112L168.301 63.12H173.149ZM193.185 57.432C193.185 58.328 192.969 59.168 192.536 59.952C192.121 60.736 191.457 61.368 190.545 61.848C189.649 62.328 188.513 62.568 187.137 62.568H184.329V69H180.969V52.248H187.137C188.433 52.248 189.537 52.472 190.449 52.92C191.361 53.368 192.041 53.984 192.489 54.768C192.953 55.552 193.185 56.44 193.185 57.432ZM186.993 59.856C187.921 59.856 188.609 59.648 189.057 59.232C189.505 58.8 189.729 58.2 189.729 57.432C189.729 55.8 188.817 54.984 186.993 54.984H184.329V59.856H186.993Z" fill="black" fill-opacity="0.87"/>
<path d="M57.9827 56.0215C55.5084 57.0257 48.9594 61.5464 47.698 62.8858C46.3881 64.2252 46.0001 62.1324 47.3584 58.6584C48.4254 55.854 51.1425 52.045 55.7025 48.7803C58.3705 46.8967 64.2407 44.1762 67.8304 42.5855C68.5582 42.2505 77.9695 38.8183 86.3622 37.1023C87.0901 36.9348 85.4891 38.1486 85.2464 38.8183C83.985 41.9994 58.807 55.6446 58.807 55.6446L57.9827 56.0215ZM93.4449 94.4036C93.8815 96.6638 93.4935 96.8313 90.7769 97.1243C88.0601 97.4174 86.0712 96.5383 85.3435 95.9524C84.6157 95.3661 84.4704 94.0688 85.198 92.8969C85.6348 92.1434 86.0714 91.8923 86.3141 90.9714C86.5566 90.0925 86.7507 89.8831 86.9445 89.5484C87.1384 89.2552 87.1872 88.9621 87.2356 86.9113C87.2842 84.8605 87.2356 81.0095 87.4783 79.3773C87.721 77.7031 96.1136 80.1306 96.1136 80.1306C96.1136 80.1306 94.1244 84.4 93.5909 85.4463C93.0572 86.4929 93.1058 88.5018 93.1058 88.9204C93.1058 89.339 92.9119 90.176 92.7661 90.2179C92.6206 90.2596 93.2513 91.3479 92.96 91.9759C92.7659 92.562 93.3966 94.0688 93.4449 94.4036ZM96.6469 30.4052C96.3556 28.8147 96.6469 25.6752 97.0349 25.1731C98.2479 23.7499 104.651 23.5826 106.01 25.2568C106.592 26.0101 106.543 27.7681 106.446 28.8983C106.35 30.0283 106.01 32.4561 105.961 33.2515C105.913 33.8376 98.8786 34.7582 97.3262 33.1677C96.8894 32.7493 96.6469 30.4052 96.6469 30.4052ZM110.91 90.3435C113.869 92.1853 116.149 92.52 117.653 93.1898C119.156 93.8597 118.768 95.1571 116.246 95.5338C114.208 95.8686 111.006 95.1989 108.872 95.1989C106.737 95.1989 101.983 95.4083 100.722 94.6549C99.2665 93.776 99.897 92.1434 99.897 92.1434C100.285 91.2228 101.255 89.1715 100.964 87.4974C100.673 85.8232 100.285 84.9024 99.5573 83.3536C98.8297 81.805 98.2962 77.9961 98.9755 77.7868C99.6548 77.5774 99.4604 77.7868 100.334 77.954C101.207 78.1213 102.177 78.3726 104.069 78.3726C105.961 78.3726 108.047 78.1213 108.775 77.9959C109.503 77.8704 110.085 77.7446 109.842 79.0423C109.6 80.3398 108.872 82.7675 108.823 84.6511C108.775 86.5346 108.775 88.7112 108.921 89.0879C109.066 89.4646 110.133 89.8831 110.91 90.3435Z" fill="#010101"/>
<path d="M100.528 34.5908C95.1917 38.5673 84.8584 39.6554 69.5288 44.7619C65.5992 46.0594 55.1206 49.9521 52.5979 54.0122C61.0875 49.7848 64.2409 55.6028 64.9199 61.5882C65.5503 67.1969 68.8009 70.1271 77.145 69.9594C85.7318 69.7921 88.3514 74.1032 90.7283 79.168C95.3369 59.7883 102.711 56.0214 107.465 52.7148C117.556 45.6408 105.136 33.1676 100.528 34.5908Z" fill="#8AC640"/>
<path d="M100.528 34.5908C87.7207 38.4416 75.0588 39.4043 60.1658 47.3152C56.6244 49.1988 49.1535 53.4679 47.698 61.6301C53.1312 56.4397 65.6959 49.9104 81.0743 45.7666C88.8363 43.6736 94.5124 42.2925 101.401 39.9904C100.916 37.3114 100.916 36.265 100.528 34.5908Z" fill="#8AC640"/>
<path d="M116.876 57.5282C116.876 57.5282 115.955 60.2489 114.111 61.128C114.111 61.128 112.753 61.5466 110.036 60.2491C109.26 59.8725 108.678 58.575 108.726 58.1562C108.775 57.1515 109.502 56.6912 109.502 56.6912C109.502 56.6912 110.279 55.561 111.2 55.6029C112.122 55.6446 113.675 55.7702 114.16 55.3935C114.596 54.9749 116.973 56.1469 116.876 57.5282ZM97.0833 31.2005C97.0833 31.2005 96.8894 33.3354 96.5498 34.6746C96.5012 34.9259 95.046 35.0513 93.9785 35.4282C96.0161 40.4508 108.29 40.4089 109.891 37.9395C109.115 37.4792 107.562 36.7676 106.835 36.5165C106.107 36.2651 106.155 36.3071 106.107 35.1351C106.058 33.963 105.961 31.7866 105.864 31.2005C105.767 30.6145 98.2475 30.6145 97.0833 31.2005Z" fill="#010101"/>
<path d="M97.5684 31.2005C97.5684 31.2005 97.5684 32.4144 97.4229 33.5863C97.3746 34.1305 97.326 34.4652 97.229 34.8838C97.1805 35.1351 98.8784 36.1394 99.3635 38.3579C101.692 42.8364 107.077 40.6181 109.309 38.4834C108.532 38.0229 107.271 37.3951 105.816 36.8929C105.088 36.6416 105.428 36.0977 105.379 34.9257C105.331 33.7538 105.137 32.0375 105.04 31.4097C104.942 30.7819 98.7329 30.6145 97.5684 31.2005Z" fill="#F0EFEF"/>
<path d="M97.0835 31.2005C97.0835 31.2005 97.0349 31.9541 96.8896 32.833C97.5201 33.3769 98.3449 34.1305 98.9758 34.591C99.4124 34.9259 100.479 34.884 101.45 34.884C102.323 34.884 103.099 34.9677 103.439 34.8004C104.215 34.4654 105.331 33.6284 105.962 33.0005C105.913 32.2471 105.865 31.5355 105.816 31.2005C105.767 30.6145 98.2477 30.6145 97.0835 31.2005Z" fill="#010101"/>
<path d="M101.498 34.3816C100.916 34.3816 100.237 34.3399 99.7031 34.256C99.4604 34.2143 99.218 34.0888 99.0238 34.0049C98.6842 33.7955 98.3446 33.5446 97.9568 33.2933C97.1804 32.7911 97.1321 32.498 97.1321 32.3727C97.4717 29.7356 97.0349 27.5173 97.0349 27.5173C97.0349 27.5173 96.6952 26.3871 98.5387 26.094C100.382 25.801 101.498 25.7593 101.498 25.7593C101.498 25.7593 102.662 25.7593 104.457 26.094C106.301 26.3871 105.961 27.5173 105.961 27.5173C105.961 27.5173 105.524 29.7356 105.864 32.3727C105.864 32.498 105.816 32.7911 105.039 33.2933C104.36 33.7119 103.827 34.1722 103.293 34.256C102.759 34.3399 102.08 34.3816 101.498 34.3816Z" fill="#010101"/>
<path d="M101.498 24.6709C98.2965 24.6709 97.6655 25.4242 96.7438 26.2614C96.55 26.4706 96.6952 27.7264 97.0351 30.4052H97.4717C97.4717 30.4052 97.1804 29.6517 97.229 28.7728C97.2776 27.8939 97.4717 27.9358 97.3259 27.7264C97.132 27.4751 96.7438 27.0565 97.6172 26.6381C98.4903 26.2195 99.8486 26.9728 101.498 27.0148C103.148 26.9728 104.554 26.2195 105.428 26.6381C106.301 27.0565 105.913 27.4751 105.719 27.7264C105.525 27.9775 105.767 27.8937 105.816 28.7728C105.864 29.6517 105.573 30.4052 105.573 30.4052H106.01C106.301 27.7264 106.495 26.5545 106.349 26.3451C105.524 25.4242 104.7 24.7126 101.498 24.6709ZM116.876 57.6537C116.876 57.6537 115.955 60.2069 114.16 61.0858C113.772 60.9186 113.82 60.6675 113.481 60.2906C113.383 60.1652 113.044 60.0812 112.898 59.9558C112.753 59.8303 112.802 59.6209 112.559 59.4536C112.365 59.2861 112.219 59.4117 112.025 59.2861C111.831 59.1189 111.782 58.9095 111.637 58.7841C111.54 58.7003 111.152 58.6585 111.055 58.5747C110.812 58.3653 108.678 57.9886 108.775 57.57C108.969 56.9421 109.357 56.4817 109.357 56.4817C109.357 56.4817 110.279 55.3098 111.2 55.3515C112.122 55.3935 112.995 55.5609 113.481 55.1843C114.014 54.7655 117.022 56.3143 116.876 57.6537Z" fill="#010101"/>
<path d="M110.57 39.1534C110.57 39.1534 113.626 38.5254 115.712 40.2417C117.798 41.9997 117.653 44.1761 117.022 45.5155C117.556 46.0596 118.526 47.5663 117.798 49.3662C121 51.7101 119.593 55.3099 116.731 57.6957C116.731 57.6957 116.052 55.5191 113.335 55.3936C113.432 54.5566 110.812 53.8867 112.025 51.7101C110.182 51.3334 110.23 50.2451 109.939 48.9059C109.697 47.5663 110.57 39.1534 110.57 39.1534Z" fill="#010101"/>
<path d="M109.454 40.3252C109.454 40.3252 112.995 38.7766 115.081 40.5346C117.167 42.2926 116.585 44.2179 115.955 45.5573C116.488 46.1013 117.749 47.6503 116.973 49.4917C116.828 49.9103 115.76 49.9103 114.984 50.9986C116.924 50.0357 118.137 50.287 118.574 51.5006C119.253 53.3842 117.749 55.6444 116.439 56.9002C116.439 56.8583 116.391 56.8163 116.391 56.7746C116.197 57.4026 115.954 58.6163 114.499 59.9557C113.771 60.6254 113.189 60.5417 112.364 60.3743C111.394 60.1649 111.055 59.788 109.696 59.1604C108.92 58.7837 109.357 58.3232 109.357 57.9465C109.357 57.8629 109.454 57.7371 109.599 57.5699C109.696 57.3605 109.987 57.0259 110.424 56.6491C110.424 56.6491 111.055 55.8957 111.977 55.9374C112.898 55.9794 113.868 55.8121 114.111 55.6027C114.111 54.1377 112.171 54.0958 112.85 51.5845C112.898 51.4589 113.141 51.2495 113.917 51.1659C112.753 50.9565 112.219 50.9145 111.394 50.245C110.812 49.7847 110.376 49.1987 110.23 48.4453C109.939 47.1478 109.454 40.3252 109.454 40.3252Z" fill="#F0EFEF"/>
<path d="M99.2178 37.6882C98.9268 37.3533 97.423 35.6791 94.5606 35.0094C93.7359 34.8 93.2024 35.3861 92.3778 35.8047C92.1351 35.6791 91.0679 35.2605 90.4858 35.5534C89.9037 35.8462 89.5157 36.1394 88.9334 36.3486C88.6421 36.2231 87.8661 36.2231 87.2355 36.4323C86.6048 36.5997 85.6345 36.9764 84.7128 38.0647C84.1307 39.8646 94.9972 38.525 94.9972 38.525L99.2178 37.6882Z" fill="#010101"/>
<path d="M99.315 37.6884C97.7624 37.2279 98.0051 35.6793 94.5606 35.4282C93.8814 35.3863 93.4448 35.8466 92.9596 36.1396C93.2023 36.349 93.4448 36.6838 93.5903 37.0185C93.1538 36.6001 92.3776 36.0558 91.6011 35.9302C90.8735 35.8049 90.3884 36.2652 89.6122 36.6001C89.7574 36.7255 89.9032 36.9349 90.0971 37.1862C89.4178 36.8095 88.9329 36.684 88.0112 36.9768C87.3805 37.1441 86.1677 37.6046 85.246 38.7348C84.6639 40.5347 95.0455 38.5254 95.0455 38.5254L99.315 37.6884Z" fill="#8AC640"/>
<path d="M108.435 38.3581C108.435 38.3581 108.435 37.8976 108.387 37.4792C108.387 37.3956 107.999 37.1862 107.999 37.1026L107.902 37.0187C107.902 37.0187 108.678 36.6421 109.26 36.8514C109.891 37.0187 110.23 37.7303 110.23 37.7303C111.346 37.3956 111.443 37.7723 111.977 38.2745C113.141 38.0651 113.286 38.4418 114.014 39.3628C114.014 39.3628 113.141 39.2372 111.443 39.4881C109.794 39.6973 108.435 38.3162 108.435 38.3581Z" fill="#010101"/>
<path d="M108.241 38.1486C108.241 38.1486 108.532 37.9392 108.435 37.8973C108.968 37.6461 109.696 37.3533 110.036 38.1486C111.152 37.8136 111.297 38.2741 111.831 38.7766C113.189 38.2324 113.286 38.9019 113.383 39.1949C112.947 39.1949 112.316 39.2369 111.443 39.3205C109.793 39.5299 108.192 38.1067 108.241 38.1486Z" fill="#8AC640"/>
<path d="M91.747 37.1023C91.747 37.1023 94.5122 37.9393 96.8408 37.8137C99.1694 37.6464 103.147 37.479 105.282 38.5673C105.282 38.5673 107.465 37.8974 109.502 38.3579C111.54 38.8182 115.275 41.8319 114.16 45.013C114.063 45.2224 113.432 45.5571 112.704 45.7665C112.704 45.7665 113.093 47.1896 112.413 48.3615C111.734 49.4917 110.23 51.6683 110.182 54.6819C110.133 55.1841 110.036 56.2305 109.939 56.7327C106.155 56.6074 100.334 55.3933 94.6094 55.4771C94.6577 54.9332 94.7063 54.5982 94.7549 54.0541H94.9002C94.6091 52.6728 94.5122 51.9611 94.2209 50.9148C92.3775 49.9103 90.4369 48.7384 88.7878 46.5199C87.1868 44.3014 91.747 37.1023 91.747 37.1023ZM110.473 59.7048C110.473 59.7048 113.481 68.997 109.939 72.8897C109.939 72.8897 110.473 74.6894 109.26 76.6148C109.066 77.4518 108.823 78.2054 108.678 79.0423C108.047 82.5164 106.98 83.9814 106.689 89.5482L103.778 89.5065C103.778 89.5065 103.438 85.4883 102.419 83.3536C101.838 82.14 99.5571 80.5073 99.6546 78.8751C99.7515 77.6193 100.043 76.5729 102.517 74.8986C102.711 72.4711 99.897 70.1687 100.334 61.1278L110.473 59.7048Z" fill="#010101"/>
<path d="M109.6 59.3279C110.376 63.5972 112.171 69.9176 108.921 73.0148C109.112 73.8002 109.129 74.6099 108.969 75.4006C108.872 75.9028 108.678 76.447 108.435 77.0328C107.95 78.0375 107.756 79.5024 107.611 80.3813C106.98 83.8554 106.98 84.0231 106.689 89.5899L103.778 89.548C103.778 89.548 103.438 85.5298 102.42 83.3953C101.838 82.1815 100.625 81.1351 100.528 79.5026C100.431 78.2471 101.45 75.7357 103.875 75.8194C103.73 70.7548 101.013 71.7592 100.285 61.2114L109.6 59.3279ZM91.7473 37.1023C91.7473 37.1023 92.8145 37.3953 93.9787 37.479C95.1431 37.5626 96.4044 37.479 97.52 37.437C99.8486 37.2698 103.148 37.0604 105.331 38.1487C105.331 38.1487 106.543 37.8137 107.853 37.8974C108.435 37.9393 109.018 38.3579 109.697 38.5253C111.831 38.9856 113.869 42.0411 112.947 44.8038C112.85 45.0132 112.171 44.8038 111.394 45.0132C111.54 45.5993 111.637 46.9387 110.861 48.3617C110.036 49.785 108.969 51.6266 109.163 55.1426C104.069 54.9332 101.789 54.6404 96.7436 54.431C96.307 52.8822 96.0158 51.3336 95.9674 50.5383C96.6467 50.2453 97.0344 49.9944 97.5684 49.4919C96.1132 49.7013 95.5308 49.6175 94.6575 49.1989C93.7843 48.7803 92.2319 47.4409 91.4557 46.562C91.3588 46.4782 90.8253 47.8593 89.6125 47.9014C89.1757 47.3573 91.0192 45.8084 90.6795 45.2226C89.467 43.0877 91.7473 37.1023 91.7473 37.1023Z" fill="#F0EFEF"/>
<path d="M109.987 55.8538C109.987 55.8538 110.084 57.3607 110.084 57.7374C110.084 58.156 110.473 59.4115 110.521 59.9976C109.987 60.7929 107.659 62.5928 103.438 63.2625C99.2662 64.0158 93.7358 58.3654 93.7358 58.3654C93.8814 57.8212 94.3665 56.2305 94.7061 55.3935C94.7547 55.3099 94.8517 55.1005 94.8517 55.0169C95.2885 54.4727 109.987 55.8538 109.987 55.8538Z" fill="#010101"/>
<path d="M108.921 55.9795C108.921 57.0258 109.114 57.7794 109.26 58.4491C109.503 59.6629 109.891 60.4582 109.891 61.2535C109.891 63.681 106.204 63.2624 103.099 63.3462C98.9266 64.0998 95.3853 58.4491 95.3853 58.4491C95.6763 57.4864 95.8704 56.3983 96.307 55.4772C96.3553 54.975 96.4525 54.3472 96.5008 54.0542C102.419 54.0542 106.591 54.3472 109.017 54.5562C109.114 55.0167 109.017 55.812 108.921 55.9795Z" fill="#F0EFEF"/>
<path d="M104.263 61.3788C104.263 61.3788 101.692 56.4398 93.9784 57.905C92.1352 62.3835 89.6608 67.5319 91.2618 73.0988C89.6608 74.9823 87.8174 76.0289 87.8174 79.5028C87.8174 82.9768 88.0115 83.5629 88.0115 83.5629L93.6873 83.8142C93.6873 83.8142 95.5308 81.7634 96.2584 79.5449C96.4525 78.9169 96.6466 77.7869 96.5011 76.4894C96.695 76.2383 97.5197 75.6524 97.6169 74.5222C97.6169 74.5222 100.382 73.2666 101.983 70.2112C103.487 67.4481 103.099 65.0623 104.263 61.3788Z" fill="#010101"/>
<path d="M104.263 61.3788C104.118 60.9185 102.177 56.3981 94.9973 57.7373C90.7769 67.4481 92.3293 71.4663 92.9598 73.2241C90.0974 76.3632 88.7877 77.0329 89.3701 83.3952H93.1541C94.9004 81.0095 95.2886 80.1304 95.3855 76.9912C95.3855 76.8657 94.852 77.2423 94.4638 77.6609C94.7551 76.3634 95.5797 76.1123 96.2103 75.3171C96.5014 74.9821 96.7438 74.4799 96.7438 73.8102C100.14 71.843 101.401 69.3734 102.129 66.8201C102.711 65.0623 103.39 62.1741 104.263 61.3788Z" fill="#F0EFEF"/>
<path d="M92.2805 54.6401C92.2805 54.6401 93.5904 54.6819 94.7549 55.0168C95.8707 55.3516 95.8707 55.5608 96.3073 55.9795C96.7438 56.3983 97.8111 57.0259 97.6172 57.6537C97.52 57.9887 97.2776 58.0723 96.9379 58.3653C96.7924 58.4909 95.7249 59.4953 95.4825 59.6209C95.337 59.7045 95.1428 59.8303 94.9973 59.9139L94.2697 60.3325C93.7846 60.5419 93.4449 60.6675 92.9114 60.6256C92.9114 60.6256 91.6987 60.5836 90.9222 59.8722C90.9222 59.8722 90.8253 59.5373 91.0194 59.37C91.0194 59.37 90.0005 58.6164 89.7095 58.1142C89.4182 57.6122 89.4182 56.9006 89.6125 56.5239C89.7095 56.1468 91.6012 55.1004 92.2805 54.6401ZM93.4935 95.3663L93.348 96.4129C93.348 96.4129 92.9114 96.8732 89.6611 96.8315C86.3622 96.7896 85.4891 95.9107 85.198 95.4502L85.0042 94.3619C85.0042 94.3619 85.6348 93.5666 85.7803 93.5666C86.8476 93.6503 90.4861 94.906 93.0088 95.2408C93.2508 95.2408 93.2992 95.3244 93.4935 95.3663ZM100.528 93.2317C100.528 93.692 100.479 93.692 100.479 94.1525C101.061 94.5292 102.517 94.7386 105.282 94.6964C109.308 94.6128 113.044 95.743 117.604 95.0731L117.652 94.3198L117.216 94.278L101.061 93.1478L100.528 93.2317Z" fill="#010101"/>
<path d="M104.069 94.6967H105.282C107.902 94.613 110.376 95.1153 113.044 95.2408C114.451 95.1989 116.197 94.9059 116.052 94.027L102.274 93.0223C101.449 93.8176 102.08 94.4873 104.069 94.6967ZM88.254 77.0752C88.6906 77.3263 91.6498 78.8332 96.4526 78.6238C96.3554 79.419 96.404 80.9678 94.2695 83.6884C93.2022 85.0278 92.2803 87.3718 92.0864 90.3437C92.135 91.0134 92.5716 91.5993 91.9895 92.4784C92.1834 93.0223 92.9596 94.1106 93.3478 94.7803C93.7358 95.4502 93.9299 96.2036 91.3586 96.2455C88.7389 96.2872 84.5183 96.0361 85.1006 94.2783C85.3919 93.3575 86.2165 92.3947 86.3136 92.0179C86.4106 91.6412 86.4106 90.5112 87.2351 89.7576C87.963 87.6649 87.7203 85.6558 87.575 83.7722C87.3323 81.8048 87.2837 78.6657 88.254 77.0752ZM92.7657 42.9622C96.2101 38.9857 93.2992 35.8048 87.7691 36.7674C85.5374 37.144 83.306 38.4836 83.1603 40.9111C82.4326 40.9948 80.7833 41.0784 79.9585 43.6736C79.3281 45.6827 78.9885 46.0594 77.8724 47.0638C77.1448 47.7754 77.921 49.2404 78.4545 50.287C80.2496 53.8866 85.7799 54.2214 89.5154 56.9421C90.7767 56.6491 92.0864 55.4354 92.4746 54.6402C89.3213 51.417 90.0003 50.1614 88.7389 48.4873C90.0975 48.0685 93.2022 46.4362 92.7657 42.9622Z" fill="#010101"/>
<path d="M92.0865 42.711C92.2803 42.4597 92.62 41.9157 92.7657 41.7063C92.8143 41.6644 93.3478 42.4597 93.3964 42.418C94.7061 40.5761 95.0457 37.8973 93.5417 37.6462C93.202 37.6043 92.5716 37.4789 92.0379 37.3112C91.0678 37.0182 90.1947 37.0182 88.642 37.2695C86.5075 37.6043 84.3731 38.9437 84.3731 40.8691C84.3731 40.9947 85.8766 41.3714 86.3134 42.9202C85.5856 42.0411 84.3242 41.0783 82.8204 41.9155C81.2194 42.7944 82.0442 44.8035 79.9097 46.8963C79.1819 47.6079 79.2791 48.4451 80.055 50.1192C81.3164 52.7563 87.2835 54.1794 90.5338 56.6907C91.31 56.3977 91.8435 55.728 92.2317 55.2258C90.0487 53.2586 89.1753 51.4167 88.5449 50.0773C87.7687 48.5287 86.8953 47.6498 85.1974 46.4775C86.0707 46.7705 86.75 47.0636 87.1377 47.3147C87.5743 47.5658 88.205 47.6077 88.7873 47.4402C90.8737 46.8128 91.9895 44.3013 92.0865 42.711Z" fill="#F0EFEF"/>
<path d="M113.189 43.3807C113.044 44.9712 111.686 44.1759 110.958 43.8829C109.503 43.3387 108.047 42.9621 106.349 42.9621C104.651 42.9621 102.468 43.0876 100.576 43.5062C97.9567 44.134 97.1803 44.0923 96.0161 43.5899C94.8519 43.0457 92.8146 41.7063 92.8146 41.7063C92.8146 41.7063 92.766 42.1249 93.2512 42.669C93.8816 43.3387 95.2887 44.1759 97.1805 44.7199C98.1022 44.9712 98.8301 44.8035 99.6549 44.6362C103.972 43.7154 108.532 43.5479 112.365 45.557C112.559 45.6407 113.238 45.3896 113.529 45.0129C113.917 44.469 113.189 43.3807 113.189 43.3807Z" fill="#010101"/>
<path d="M91.1165 59.3279C91.5044 59.5373 91.9896 59.6628 92.5231 60.0395C92.5231 60.0395 92.0865 60.0395 91.8927 59.8722C91.65 59.7467 91.1648 59.37 91.1165 59.3279Z" fill="#0A1825"/>
<path d="M105.136 26.1359C104.991 25.7593 103.923 25.0894 101.45 25.0894C98.7814 25.0894 98.0052 25.801 97.9568 26.1777C97.9568 26.3032 97.7627 27.6428 97.7141 28.1868C97.7141 28.1868 97.7141 28.8565 97.7625 29.8609C97.811 30.5306 98.0052 30.9073 98.1021 31.7864C98.199 32.707 98.4903 33.2931 99.0238 34.0466C99.2665 34.172 99.4604 34.2977 99.7031 34.3397C100.673 34.5069 102.371 34.5489 103.293 34.3397C103.827 34.2141 104.506 33.4188 104.651 32.7072C104.845 31.8283 105.039 31.2003 105.088 30.6564C105.185 30.1124 105.233 28.8984 105.282 28.5634C105.428 27.6428 105.185 26.2196 105.136 26.1359Z" fill="#F0EFEF"/>
<path d="M100.043 77.8704C100.043 77.8704 102.614 78.8331 108.969 77.9959C108.969 77.9959 107.174 85.7813 107.999 89.6737C107.999 89.6737 108.823 90.6784 114.936 92.6036C114.936 92.6036 117.653 93.1897 117.556 94.3619C117.556 94.3619 117.653 94.613 114.354 94.5291C111.055 94.4453 107.95 93.9431 105.767 93.9431C103.584 93.9431 101.256 94.0267 100.868 93.4828C100.431 92.9805 100.965 91.6828 101.595 90.9293C102.275 90.1342 102.08 89.548 102.032 88.1251C101.886 84.3999 98.5871 80.5492 100.043 77.8704Z" fill="#010101"/>
<path d="M99.5088 78.5821C99.1692 79.0007 99.5572 80.591 100.042 82.1398C100.527 83.6884 101.595 84.6094 101.837 87.1625C102.08 89.6738 102.128 90.0088 101.304 91.4735C100.479 92.9383 100.236 94.2779 103.099 94.3198C105.961 94.3618 107.513 94.2779 110.424 94.6548C113.335 95.0315 114.354 95.157 115.955 94.9478C117.556 94.7386 117.895 94.2779 117.216 93.8595C116.537 93.4409 113.723 92.9806 112.51 92.1432C111.346 91.3899 108.047 90.1341 107.999 89.7994C107.853 88.6692 107.805 84.5673 108.047 83.2279C108.29 81.8883 108.629 79.963 108.726 79.4608C108.823 78.9586 109.308 78.4561 108.484 78.6236C107.659 78.7909 104.554 79.1677 102.226 79.0422C99.897 78.9168 99.6546 78.4563 99.5088 78.5821Z" fill="#8AC640"/>
<path opacity="0.3" d="M101.158 91.5156C101.983 91.8503 103.196 92.1016 104.118 92.1016C104.118 92.1016 103.778 93.483 104.312 94.3199C104.845 95.1571 100.431 94.6549 100.431 94.6549L100.237 91.6831L101.158 91.5156ZM114.014 95.1152C114.79 94.9058 115.324 94.1525 114.693 93.441C114.014 92.7294 113.432 92.6039 114.305 92.5621C115.179 92.5202 118.38 94.1944 118.38 94.1944L116.731 95.4919L114.014 95.1152ZM99.3633 80.2142C100.479 80.5492 102.177 80.6328 103.633 80.5909C105.088 80.5492 107.271 80.3815 108.678 79.9631C110.085 79.5445 109.502 80.4234 109.502 80.4234L108.726 81.0514C108.726 81.0514 106.883 81.6792 103.875 81.6375C100.334 81.5956 99.2664 81.2608 99.2664 81.2608L99.3633 80.2142ZM99.4602 82.3072C100.576 82.6421 102.274 82.7258 103.729 82.6839C105.185 82.6421 107.125 82.6421 108.532 82.1816C109.114 82.0144 108.775 82.7258 108.775 82.7258L108.532 83.1024C108.532 83.1024 106.64 83.6885 103.681 83.6464C100.139 83.6047 99.5088 83.3534 99.5088 83.3534L99.4602 82.3072Z" fill="#010101"/>
<path d="M96.2585 52.9661C96.2585 53.2591 100.043 54.8913 102.129 55.2263C104.215 55.561 108.581 55.2263 109.26 55.1007L109.163 55.6868C109.163 55.6868 103.972 56.3565 99.994 55.4357C96.0159 54.5149 96.4527 54.3055 96.4527 54.3055L96.2585 52.9661Z" fill="#010101"/>
<path d="M88.157 88.6693C88.7391 88.9206 90.8253 89.3809 92.1835 89.1298C92.3774 89.0879 92.1835 86.2416 92.7173 84.9441C93.4935 83.1442 94.7548 81.6792 95.3367 78.4983C93.2991 78.3309 90.9708 77.8704 89.7578 77.5354C88.2056 81.6375 88.7394 85.1533 88.157 88.6693ZM91.4076 91.3064C91.7472 91.39 91.9897 91.7248 92.0868 91.5158C92.2807 91.1389 91.7472 90.4275 91.6986 89.9252V89.8833C91.2621 89.5486 88.3028 89.5066 88.4969 89.6739C88.1573 90.2181 87.6238 90.1344 87.4299 91.2227C87.333 91.7667 88.1092 91.3064 88.8365 91.2644C87.5268 92.0178 86.023 92.9807 85.7803 93.8177C85.4893 94.9896 85.9744 95.3246 87.4299 95.9526C88.6912 96.2037 90.1951 96.2456 91.3592 96.2037C92.6692 95.9943 92.9119 95.4503 92.5237 94.6968C91.9411 93.5666 91.5531 92.1016 91.4076 91.3064Z" fill="#F0EFEF"/>
<path d="M91.941 36.9348C93.542 37.7301 95.7737 37.5209 96.5982 37.479C96.7923 37.479 98.7329 37.1859 98.8299 37.2276C99.0237 37.2696 99.0237 37.3951 99.0237 37.3951C99.0237 37.3951 98.2961 37.7299 96.6468 37.8135C95.0944 37.8971 93.2509 37.8135 92.2323 37.3951C91.0193 36.9348 91.941 36.9348 91.941 36.9348ZM108.435 37.7301C108.726 37.8973 110.618 38.5253 111.443 39.2787C112.171 39.9486 111.783 39.9067 111.637 39.7392C111.443 39.5298 109.939 38.6509 109.357 38.4417C108.775 38.2325 108.047 37.8556 108.047 37.772C108.047 37.6884 108.435 37.7301 108.435 37.7301Z" fill="#010101"/>
<path d="M91.6983 55.1004C93.1051 55.0167 94.5606 55.3098 95.4823 56.1468C95.9675 56.5653 96.7437 57.0257 96.6468 57.4442C96.6468 57.5698 96.3555 57.9048 96.1132 58.1559C95.9677 58.3231 95.5312 58.6998 95.3854 58.8256C95.1915 58.9511 94.5123 59.4116 94.3667 59.4953C94.2212 59.5791 94.0271 59.7885 93.8816 59.8302C93.3967 60.0396 92.8629 59.8721 92.3778 59.663C91.8929 59.4536 92.475 59.4116 91.9412 59.0769C90.6315 58.2816 89.9037 57.7373 90.4374 56.1887C90.4857 55.8956 91.0192 55.5607 91.6983 55.1004Z" fill="#F0EFEF"/>
<path opacity="0.4" d="M79.328 45.5154C74.9618 47.0223 63.8524 51.7941 60.6992 53.259C63.3189 54.6821 64.5316 58.1142 64.9198 61.5883C64.9682 61.9233 65.0168 62.2163 65.0654 62.5511C65.1137 62.8441 65.1623 63.0533 65.2107 63.179C65.2107 63.221 65.2107 63.3046 65.2592 63.3463C68.1216 56.6076 78.3574 49.4919 78.7457 48.9478C78.9395 48.6967 78.503 47.6084 79.1822 46.5622C80.0556 45.2224 81.7538 44.6363 79.328 45.5154ZM89.7096 77.1171C91.941 73.2663 91.9896 69.5829 91.941 65.2716C91.941 63.4717 93.4449 60.9184 92.6689 61.63C89.758 64.4342 82.4328 69.7084 77.1449 70.0012C84.5673 69.792 87.478 73.015 89.7096 77.1171Z" fill="#010101"/>
<path d="M56.4299 56.8165C59.1951 55.1004 73.5063 48.5291 76.9507 47.6081C80.3949 46.6454 79.3277 45.5151 79.3277 45.5151C79.3277 45.5151 65.3561 50.7053 57.012 55.184" fill="#010101"/>
<path opacity="0.4" d="M97.1804 44.7201C96.0646 44.3434 95.1914 45.4736 95.4825 46.5619C95.7738 47.6502 98.3934 48.8638 98.2476 52.8404C98.1507 56.1052 97.3259 57.4444 97.3259 57.4444L95.4825 55.4355C95.4825 55.4355 95.1914 50.9149 94.5608 50.2452C93.9303 49.5755 91.9411 48.3616 91.1649 47.7338C90.3887 47.1059 92.0381 46.2689 91.9411 45.0967C91.8442 43.9667 92.7659 41.7065 92.7659 41.7065L97.1804 44.7201ZM103.924 62.5508C103.827 65.6899 104.652 70.3361 104.991 72.5546C105.331 74.7729 105.767 74.9404 104.991 75.9451C104.215 76.9078 103.196 78.4983 103.196 78.4983L99.8486 78.247C99.8486 78.247 102.517 75.3171 102.662 74.7729C102.808 74.229 101.304 70.0852 101.304 70.0852L103.924 62.5508ZM97.4717 33.2515C98.1509 34.5487 98.9755 35.1348 100.285 35.5117C101.061 35.7628 104.118 36.0978 105.331 34.9256C105.864 34.3815 105.524 32.9165 105.524 32.9165L102.759 34.8418L99.0238 34.2559L98.5873 33.2932L97.4717 33.2515Z" fill="#010101"/>
<path d="M97.7625 36.1396C99.0238 36.8513 102.177 37.521 103.05 37.6465C103.923 37.8138 105.33 36.8513 106.01 36.6002C106.737 36.3071 107.999 36.1396 109.454 37.2699C109.6 37.3954 109.114 37.9396 109.114 37.9396C109.066 37.8976 108.775 37.8976 108.387 37.7302C107.999 37.5629 107.659 37.4371 107.077 37.4791C104.651 37.7302 104.263 38.4418 102.129 38.023C99.9942 37.6042 99.4604 37.2697 97.3745 37.3533" fill="#8AC640"/>
<path d="M97.7625 36.1396C99.0238 36.8513 102.177 37.521 103.05 37.6465C103.923 37.8138 105.33 36.8513 106.01 36.6002C106.737 36.3071 107.999 36.1396 109.454 37.2699C109.6 37.3954 109.114 37.9396 109.114 37.9396C109.066 37.8976 108.775 37.8976 108.387 37.7302C107.999 37.5629 107.659 37.4371 107.077 37.4791C104.651 37.7302 104.263 38.4418 102.129 38.023C99.9942 37.6042 99.4604 37.2697 97.3745 37.3533" stroke="#010101" stroke-width="10.8638" stroke-miterlimit="10" stroke-linejoin="round"/>
<path d="M97.3257 36.2651C98.9267 36.8512 102.031 37.479 102.905 37.6465C103.778 37.8139 105.185 37.0604 105.864 36.6837C107.077 36.014 108.629 36.5582 109.357 37.2698C109.842 37.7301 110.036 38.0231 110.036 38.1487C110.036 38.316 109.454 38.1487 109.454 38.1487C109.114 38.0231 108.726 37.9814 108.435 37.8137C108.047 37.6465 107.659 37.3954 107.077 37.4371C104.651 37.6884 104.166 38.3998 102.08 37.9812C99.9944 37.5626 99.4607 37.186 97.2292 37.3113" fill="#8AC640"/>
<path d="M89.8066 75.3588C89.7096 75.2752 89.9035 75.1915 89.8066 75.1915C89.1761 75.1915 88.3028 74.7729 87.8174 74.1869C85.7315 71.5919 82.675 69.8758 77.1447 70.0014C68.849 70.1686 65.5501 67.2389 64.9196 61.6302C64.58 58.5747 63.6097 55.6028 61.6207 53.9285L60.4563 54.5565C62.6877 56.2306 63.4156 58.9514 63.9007 62.6765C64.6769 68.2853 69.9162 70.8805 76.0289 70.9641C82.384 71.0477 84.664 72.178 87.0409 74.9406C87.8171 75.8195 88.6905 76.1126 89.3695 76.2381L89.8066 75.3588Z" fill="#010101"/>
<path opacity="0.4" d="M112.316 48.4453C112.462 49.0731 112.85 50.2869 113.626 50.8728C113.966 51.1658 114.014 51.2495 113.723 51.2495C113.432 51.2495 111.297 51.1658 111.297 51.1658L110.715 50.2869L112.316 48.4453Z" fill="#010101"/>
<defs>
<filter id="filter0_f_565_258" x="0" y="0" width="245" height="122" filterUnits="userSpaceOnUse" color-interpolation-filters="sRGB">
<feFlood flood-opacity="0" result="BackgroundImageFix"/>
<feBlend mode="normal" in="SourceGraphic" in2="BackgroundImageFix" result="shape"/>
<feGaussianBlur stdDeviation="5" result="effect1_foregroundBlur_565_258"/>
</filter>
</defs>
</svg>
