<svg width="75" height="75" viewBox="0 0 75 75" fill="none" xmlns="http://www.w3.org/2000/svg">
<path d="M11.9827 33.0215C9.50836 34.0257 2.95938 38.5464 1.69803 39.8858C0.388087 41.2252 0.000106931 39.1324 1.3584 35.6584C2.4254 32.854 5.14245 29.045 9.70247 25.7803C12.3705 23.8967 18.2407 21.1762 21.8304 19.5855C22.5582 19.2505 31.9695 15.8183 40.3622 14.1023C41.0901 13.9348 39.4891 15.1486 39.2464 15.8183C37.985 18.9994 12.807 32.6446 12.807 32.6446L11.9827 33.0215ZM47.4449 71.4036C47.8815 73.6638 47.4935 73.8313 44.7769 74.1243C42.0601 74.4174 40.0712 73.5383 39.3435 72.9524C38.6157 72.3661 38.4704 71.0688 39.198 69.8969C39.6348 69.1434 40.0714 68.8923 40.3141 67.9714C40.5566 67.0925 40.7507 66.8831 40.9445 66.5484C41.1384 66.2552 41.1872 65.9621 41.2356 63.9113C41.2842 61.8605 41.2356 58.0095 41.4783 56.3773C41.721 54.7031 50.1136 57.1306 50.1136 57.1306C50.1136 57.1306 48.1244 61.4 47.5909 62.4463C47.0572 63.4929 47.1058 65.5018 47.1058 65.9204C47.1058 66.339 46.9119 67.176 46.7661 67.2179C46.6206 67.2596 47.2513 68.3479 46.96 68.9759C46.7659 69.562 47.3966 71.0688 47.4449 71.4036ZM50.6469 7.40522C50.3556 5.8147 50.6469 2.67517 51.0349 2.17314C52.2479 0.749894 58.6513 0.582622 60.0099 2.25678C60.592 3.01012 60.5434 4.76812 60.4464 5.89834C60.3495 7.02835 60.0099 9.45605 59.9613 10.2515C59.9129 10.8376 52.8786 11.7582 51.3262 10.1677C50.8894 9.74929 50.6469 7.40522 50.6469 7.40522ZM64.9095 67.3435C67.8688 69.1853 70.1488 69.52 71.6526 70.1898C73.1564 70.8597 72.7684 72.1571 70.2457 72.5338C68.2082 72.8686 65.0064 72.1989 62.872 72.1989C60.7375 72.1989 55.9831 72.4083 54.7218 71.6549C53.2665 70.776 53.897 69.1434 53.897 69.1434C54.2852 68.2228 55.2553 66.1715 54.9642 64.4974C54.6732 62.8232 54.285 61.9024 53.5573 60.3536C52.8297 58.805 52.2962 54.9961 52.9755 54.7868C53.6548 54.5774 53.4604 54.7868 54.3338 54.954C55.2069 55.1213 56.1772 55.3726 58.0693 55.3726C59.9613 55.3726 62.0472 55.1213 62.775 54.9959C63.5026 54.8704 64.0847 54.7446 63.842 56.0423C63.5996 57.3398 62.872 59.7675 62.8234 61.6511C62.775 63.5346 62.775 65.7112 62.9206 66.0879C63.0658 66.4646 64.1333 66.8831 64.9095 67.3435Z" fill="#010101"/>
<path d="M54.5279 11.5908C49.1917 15.5673 38.8584 16.6554 23.5288 21.7619C19.5992 23.0594 9.12061 26.9521 6.5979 31.0122C15.0875 26.7848 18.2409 32.6028 18.9199 38.5882C19.5503 44.1969 22.8009 47.1271 31.145 46.9594C39.7318 46.7921 42.3514 51.1032 44.7283 56.168C49.3369 36.7883 56.711 33.0214 61.4648 29.7148C71.5557 22.6408 59.1365 10.1676 54.5279 11.5908Z" fill="#8AC640"/>
<path d="M54.5279 11.5908C41.7207 15.4416 29.0588 16.4043 14.1658 24.3152C10.6244 26.1988 3.15346 30.4679 1.698 38.6301C7.13115 33.4397 19.6959 26.9104 35.0743 22.7666C42.8363 20.6736 48.5124 19.2925 55.401 16.9904C54.9161 14.3114 54.9161 13.265 54.5279 11.5908Z" fill="#8AC640"/>
<path d="M70.8763 34.5282C70.8763 34.5282 69.9545 37.2489 68.1111 38.128C68.1111 38.128 66.7528 38.5466 64.0362 37.2491C63.26 36.8725 62.6779 35.575 62.7263 35.1562C62.7749 34.1515 63.5025 33.6912 63.5025 33.6912C63.5025 33.6912 64.2789 32.561 65.2004 32.6029C66.1224 32.6446 67.6748 32.7702 68.1599 32.3935C68.5963 31.9749 70.9734 33.1469 70.8763 34.5282ZM51.0833 8.20054C51.0833 8.20054 50.8894 10.3354 50.5498 11.6746C50.5012 11.9259 49.046 12.0513 47.9785 12.4282C50.0161 17.4508 62.2897 17.4089 63.8907 14.9395C63.1145 14.4792 61.5621 13.7676 60.8345 13.5165C60.1067 13.2651 60.1552 13.3071 60.1067 12.1351C60.0583 10.963 59.9611 8.78661 59.864 8.20054C59.767 7.61447 52.2475 7.61447 51.0833 8.20054Z" fill="#010101"/>
<path d="M51.5684 8.20053C51.5684 8.20053 51.5684 9.41439 51.4229 10.5863C51.3746 11.1305 51.326 11.4652 51.229 11.8838C51.1805 12.1351 52.8784 13.1394 53.3635 15.3579C55.6921 19.8364 61.0772 17.6181 63.3086 15.4834C62.5324 15.0229 61.271 14.3951 59.8158 13.8929C59.088 13.6416 59.4276 13.0977 59.3793 11.9257C59.3307 10.7538 59.1366 9.03751 59.0396 8.40973C58.9422 7.78194 52.7329 7.61447 51.5684 8.20053Z" fill="#F0EFEF"/>
<path d="M51.0835 8.20054C51.0835 8.20054 51.0349 8.95408 50.8896 9.83298C51.5201 10.3769 52.3449 11.1305 52.9758 11.591C53.4124 11.9259 54.4794 11.884 55.4499 11.884C56.323 11.884 57.0992 11.9677 57.4389 11.8004C58.2153 11.4654 59.3309 10.6284 59.9616 10.0005C59.9132 9.24712 59.8646 8.53549 59.8163 8.20054C59.7672 7.61447 52.2477 7.61447 51.0835 8.20054Z" fill="#010101"/>
<path d="M55.4982 11.3816C54.9159 11.3816 54.2366 11.3399 53.7031 11.256C53.4604 11.2143 53.218 11.0888 53.0238 11.0049C52.6842 10.7955 52.3446 10.5446 51.9568 10.2933C51.1804 9.79107 51.1321 9.49804 51.1321 9.37268C51.4717 6.73558 51.0349 4.51728 51.0349 4.51728C51.0349 4.51728 50.6952 3.38706 52.5387 3.09403C54.3821 2.80099 55.498 2.75928 55.498 2.75928C55.498 2.75928 56.6624 2.75928 58.4572 3.09403C60.3007 3.38706 59.961 4.51728 59.961 4.51728C59.961 4.51728 59.5245 6.73558 59.8641 9.37268C59.8641 9.49804 59.8158 9.79107 59.0393 10.2933C58.3601 10.7119 57.8266 11.1722 57.2931 11.256C56.7593 11.3399 56.0801 11.3816 55.4982 11.3816Z" fill="#010101"/>
<path d="M55.4982 1.6709C52.2965 1.6709 51.6655 2.42424 50.7438 3.26142C50.55 3.47061 50.6952 4.72639 51.0351 7.4052H51.4717C51.4717 7.4052 51.1804 6.65166 51.229 5.77276C51.2776 4.89386 51.4717 4.93578 51.3259 4.72639C51.132 4.47507 50.7438 4.05648 51.6172 3.63809C52.4903 3.2195 53.8486 3.97284 55.4982 4.01476C57.1475 3.97284 58.5544 3.2195 59.4275 3.63809C60.3007 4.05648 59.9127 4.47507 59.7188 4.72639C59.5247 4.9775 59.7672 4.89366 59.8158 5.77276C59.8641 6.65166 59.5731 7.4052 59.5731 7.4052H60.0096C60.3007 4.72639 60.4948 3.55445 60.3493 3.34506C59.5245 2.42424 58.6999 1.71261 55.4982 1.6709ZM70.8764 34.6537C70.8764 34.6537 69.9547 37.2069 68.1598 38.0858C67.7716 37.9186 67.8202 37.6675 67.4806 37.2906C67.3834 37.1652 67.0438 37.0812 66.8985 36.9558C66.753 36.8303 66.8015 36.6209 66.5588 36.4536C66.3647 36.2861 66.2192 36.4117 66.0251 36.2861C65.8312 36.1189 65.7824 35.9095 65.6371 35.7841C65.54 35.7003 65.152 35.6585 65.055 35.5747C64.8123 35.3653 62.6781 34.9886 62.775 34.57C62.9689 33.9421 63.3571 33.4817 63.3571 33.4817C63.3571 33.4817 64.2788 32.3098 65.2003 32.3515C66.122 32.3935 66.9954 32.5609 67.4806 32.1843C68.0143 31.7655 71.0222 33.3143 70.8764 34.6537Z" fill="#010101"/>
<path d="M64.5698 16.1534C64.5698 16.1534 67.626 15.5254 69.7121 17.2417C71.7983 18.9997 71.6525 21.1761 71.0221 22.5155C71.5556 23.0596 72.5259 24.5663 71.7983 26.3662C75 28.7101 73.5931 32.3099 70.731 34.6957C70.731 34.6957 70.0518 32.5191 67.3352 32.3936C67.4321 31.5566 64.8125 30.8867 66.0252 28.7101C64.1818 28.3334 64.2304 27.2451 63.9393 25.9059C63.6966 24.5663 64.5698 16.1534 64.5698 16.1534Z" fill="#010101"/>
<path d="M63.4539 17.3252C63.4539 17.3252 66.9953 15.7766 69.0814 17.5346C71.1673 19.2926 70.585 21.2179 69.9545 22.5573C70.488 23.1013 71.7494 24.6503 70.9732 26.4917C70.8277 26.9103 69.7604 26.9103 68.984 27.9986C70.9244 27.0357 72.1374 27.287 72.5739 28.5006C73.2532 30.3842 71.7492 32.6444 70.4394 33.9002C70.4394 33.8583 70.3909 33.8163 70.3909 33.7746C70.197 34.4026 69.9543 35.6163 68.4991 36.9557C67.7712 37.6254 67.1891 37.5417 66.3643 37.3743C65.3943 37.1649 65.0546 36.788 63.6964 36.1604C62.9202 35.7837 63.3567 35.3232 63.3567 34.9465C63.3567 34.8629 63.4537 34.7371 63.5994 34.5699C63.6964 34.3605 63.9874 34.0259 64.424 33.6491C64.424 33.6491 65.0546 32.8957 65.9766 32.9374C66.8983 32.9794 67.8684 32.8121 68.1111 32.6027C68.1111 31.1377 66.1707 31.0958 66.8497 28.5845C66.8983 28.4589 67.141 28.2495 67.917 28.1659C66.7526 27.9565 66.2191 27.9145 65.3943 27.245C64.8122 26.7847 64.3756 26.1987 64.2299 25.4453C63.939 24.1478 63.4539 17.3252 63.4539 17.3252Z" fill="#F0EFEF"/>
<path d="M53.2178 14.6882C52.9268 14.3533 51.423 12.6791 48.5606 12.0094C47.7359 11.8 47.2024 12.3861 46.3778 12.8047C46.1351 12.6791 45.0679 12.2605 44.4858 12.5534C43.9037 12.8462 43.5157 13.1394 42.9334 13.3486C42.6421 13.2231 41.8661 13.2231 41.2355 13.4323C40.6048 13.5997 39.6345 13.9764 38.7128 15.0647C38.1307 16.8646 48.9972 15.525 48.9972 15.525L53.2178 14.6882Z" fill="#010101"/>
<path d="M53.315 14.6884C51.7624 14.2279 52.0051 12.6793 48.5606 12.4282C47.8814 12.3863 47.4448 12.8466 46.9596 13.1396C47.2023 13.349 47.4448 13.6838 47.5903 14.0185C47.1538 13.6001 46.3776 13.0558 45.6011 12.9302C44.8735 12.8049 44.3884 13.2652 43.6122 13.6001C43.7574 13.7255 43.9032 13.9349 44.0971 14.1862C43.4178 13.8095 42.9329 13.684 42.0112 13.9768C41.3805 14.1441 40.1677 14.6046 39.246 15.7348C38.6639 17.5347 49.0455 15.5254 49.0455 15.5254L53.315 14.6884Z" fill="#8AC640"/>
<path d="M62.4354 15.3581C62.4354 15.3581 62.4354 14.8976 62.3868 14.4792C62.3868 14.3956 61.9988 14.1862 61.9988 14.1026L61.9019 14.0187C61.9019 14.0187 62.6781 13.6421 63.2601 13.8514C63.8906 14.0187 64.2302 14.7303 64.2302 14.7303C65.346 14.3956 65.443 14.7723 65.9767 15.2745C67.1411 15.0651 67.2864 15.4418 68.0143 16.3628C68.0143 16.3628 67.1411 16.2372 65.4432 16.4881C63.7936 16.6973 62.4354 15.3162 62.4354 15.3581Z" fill="#010101"/>
<path d="M62.2411 15.1486C62.2411 15.1486 62.5321 14.9392 62.4349 14.8973C62.9684 14.6461 63.6963 14.3533 64.0359 15.1486C65.1518 14.8136 65.2973 15.2741 65.8308 15.7766C67.1891 15.2324 67.286 15.9019 67.3832 16.1949C66.9466 16.1949 66.3162 16.2369 65.4428 16.3205C63.7935 16.5299 62.1925 15.1067 62.2411 15.1486Z" fill="#8AC640"/>
<path d="M45.747 14.1023C45.747 14.1023 48.5122 14.9393 50.8408 14.8137C53.1694 14.6464 57.1473 14.479 59.2818 15.5673C59.2818 15.5673 61.4649 14.8974 63.5024 15.3579C65.5402 15.8182 69.2755 18.8319 68.1599 22.013C68.0627 22.2224 67.432 22.5571 66.7044 22.7665C66.7044 22.7665 67.0926 24.1896 66.4134 25.3615C65.7341 26.4917 64.2303 28.6683 64.1817 31.6819C64.1334 32.1841 64.0364 33.2305 63.9392 33.7327C60.1552 33.6074 54.3338 32.3933 48.6094 32.4771C48.6577 31.9332 48.7063 31.5982 48.7549 31.0541H48.9002C48.6091 29.6728 48.5122 28.9611 48.2209 27.9148C46.3775 26.9103 44.4369 25.7384 42.7878 23.5199C41.1868 21.3014 45.747 14.1023 45.747 14.1023ZM64.4728 36.7048C64.4728 36.7048 67.4806 45.997 63.9392 49.8897C63.9392 49.8897 64.4728 51.6894 63.26 53.6148C63.0659 54.4518 62.8232 55.2054 62.6779 56.0423C62.0472 59.5164 60.9797 60.9814 60.6887 66.5482L57.7778 66.5065C57.7778 66.5065 57.4381 62.4883 56.4195 60.3536C55.8376 59.14 53.5571 57.5073 53.6546 55.8751C53.7515 54.6193 54.0425 53.5729 56.5169 51.8986C56.7108 49.4711 53.897 47.1687 54.3338 38.1278L64.4728 36.7048Z" fill="#010101"/>
<path d="M63.5998 36.3279C64.376 40.5972 66.1709 46.9176 62.9206 50.0148C63.1124 50.8002 63.1288 51.6099 62.9689 52.4006C62.872 52.9028 62.6779 53.447 62.4354 54.0328C61.9503 55.0375 61.7561 56.5024 61.6106 57.3813C60.9799 60.8554 60.9799 61.0231 60.6889 66.5899L57.778 66.548C57.778 66.548 57.4383 62.5298 56.4197 60.3953C55.8378 59.1815 54.6248 58.1351 54.5279 56.5026C54.431 55.2471 55.4496 52.7357 57.8754 52.8194C57.7299 47.7548 55.0131 48.7592 54.2854 38.2114L63.5998 36.3279ZM45.7473 14.1023C45.7473 14.1023 46.8145 14.3953 47.9787 14.479C49.1431 14.5626 50.4044 14.479 51.52 14.437C53.8486 14.2698 57.1475 14.0604 59.3306 15.1487C59.3306 15.1487 60.5434 14.8137 61.8533 14.8974C62.4354 14.9393 63.0177 15.3579 63.6968 15.5253C65.8313 15.9856 67.8688 19.0411 66.9468 21.8038C66.8499 22.0132 66.1706 21.8038 65.3944 22.0132C65.5397 22.5993 65.6371 23.9387 64.8607 25.3617C64.0362 26.785 62.9689 28.6266 63.1628 32.1426C58.069 31.9332 55.789 31.6404 50.7436 31.431C50.307 29.8822 50.0158 28.3336 49.9674 27.5383C50.6467 27.2453 51.0344 26.9944 51.5684 26.4919C50.1132 26.7013 49.5308 26.6175 48.6575 26.1989C47.7843 25.7803 46.2319 24.4409 45.4557 23.562C45.3588 23.4782 44.8253 24.8593 43.6125 24.9014C43.1757 24.3573 45.0192 22.8084 44.6795 22.2226C43.467 20.0877 45.7473 14.1023 45.7473 14.1023Z" fill="#F0EFEF"/>
<path d="M63.9874 32.8538C63.9874 32.8538 64.0844 34.3607 64.0844 34.7374C64.0844 35.156 64.4726 36.4115 64.5209 36.9976C63.9874 37.7929 61.6588 39.5928 57.4382 40.2625C53.2662 41.0158 47.7358 35.3654 47.7358 35.3654C47.8814 34.8212 48.3665 33.2305 48.7061 32.3935C48.7547 32.3099 48.8517 32.1005 48.8517 32.0169C49.2885 31.4727 63.9874 32.8538 63.9874 32.8538Z" fill="#010101"/>
<path d="M62.9205 32.9795C62.9205 34.0258 63.1144 34.7794 63.2601 35.4491C63.5026 36.6629 63.8906 37.4582 63.8906 38.2535C63.8906 40.681 60.2037 40.2624 57.0987 40.3462C52.9266 41.0998 49.3853 35.4491 49.3853 35.4491C49.6763 34.4864 49.8704 33.3983 50.307 32.4772C50.3553 31.975 50.4525 31.3472 50.5008 31.0542C56.4194 31.0542 60.5914 31.3472 63.0172 31.5562C63.1144 32.0167 63.0174 32.812 62.9205 32.9795Z" fill="#F0EFEF"/>
<path d="M58.2631 38.3788C58.2631 38.3788 55.692 33.4398 47.9784 34.905C46.1352 39.3835 43.6608 44.5319 45.2618 50.0988C43.6608 51.9823 41.8174 53.0289 41.8174 56.5028C41.8174 59.9768 42.0115 60.5629 42.0115 60.5629L47.6873 60.8142C47.6873 60.8142 49.5308 58.7634 50.2584 56.5449C50.4525 55.9169 50.6466 54.7869 50.5011 53.4894C50.695 53.2383 51.5197 52.6524 51.6169 51.5222C51.6169 51.5222 54.3821 50.2666 55.9831 47.2112C57.4871 44.4481 57.0989 42.0623 58.2631 38.3788Z" fill="#010101"/>
<path d="M58.2631 38.3788C58.1178 37.9185 56.1772 33.3981 48.9973 34.7373C44.7769 44.4481 46.3293 48.4663 46.9598 50.2241C44.0974 53.3632 42.7877 54.0329 43.3701 60.3952H47.1541C48.9004 58.0095 49.2886 57.1304 49.3855 53.9912C49.3855 53.8657 48.852 54.2423 48.4638 54.6609C48.7551 53.3634 49.5797 53.1123 50.2103 52.3171C50.5014 51.9821 50.7438 51.4799 50.7438 50.8102C54.1397 48.843 55.401 46.3734 56.1286 43.8201C56.711 42.0623 57.39 39.1741 58.2631 38.3788Z" fill="#F0EFEF"/>
<path d="M46.2805 31.6401C46.2805 31.6401 47.5904 31.6819 48.7549 32.0168C49.8707 32.3516 49.8707 32.5608 50.3073 32.9795C50.7438 33.3983 51.8111 34.0259 51.6172 34.6537C51.52 34.9887 51.2776 35.0723 50.9379 35.3653C50.7924 35.4909 49.7249 36.4953 49.4825 36.6209C49.337 36.7045 49.1428 36.8303 48.9973 36.9139L48.2697 37.3325C47.7846 37.5419 47.4449 37.6675 46.9114 37.6256C46.9114 37.6256 45.6987 37.5836 44.9222 36.8722C44.9222 36.8722 44.8253 36.5373 45.0194 36.37C45.0194 36.37 44.0005 35.6164 43.7095 35.1142C43.4182 34.6122 43.4182 33.9006 43.6125 33.5239C43.7095 33.1468 45.6012 32.1004 46.2805 31.6401ZM47.4935 72.3663L47.348 73.4129C47.348 73.4129 46.9114 73.8732 43.6611 73.8315C40.3622 73.7896 39.4891 72.9107 39.198 72.4502L39.0042 71.3619C39.0042 71.3619 39.6348 70.5666 39.7803 70.5666C40.8476 70.6503 44.4861 71.906 47.0088 72.2408C47.2508 72.2408 47.2992 72.3244 47.4935 72.3663ZM54.5276 70.2317C54.5276 70.692 54.4791 70.692 54.4791 71.1525C55.0612 71.5292 56.5169 71.7386 59.2818 71.6964C63.3083 71.6128 67.0438 72.743 71.6038 72.0731L71.6524 71.3198L71.2158 71.278L55.0612 70.1478L54.5276 70.2317Z" fill="#010101"/>
<path d="M58.069 71.6967H59.2818C61.9017 71.613 64.3758 72.1153 67.0438 72.2408C68.4507 72.1989 70.1972 71.9059 70.0516 71.027L56.2742 70.0223C55.4494 70.8176 56.0798 71.4873 58.069 71.6967ZM42.254 54.0752C42.6906 54.3263 45.6498 55.8332 50.4526 55.6238C50.3554 56.419 50.404 57.9678 48.2695 60.6884C47.2022 62.0278 46.2803 64.3718 46.0864 67.3437C46.135 68.0134 46.5716 68.5993 45.9895 69.4784C46.1834 70.0223 46.9596 71.1106 47.3478 71.7803C47.7358 72.4502 47.9299 73.2036 45.3586 73.2455C42.7389 73.2872 38.5183 73.0361 39.1006 71.2783C39.3919 70.3575 40.2165 69.3947 40.3136 69.0179C40.4106 68.6412 40.4106 67.5112 41.2351 66.7576C41.963 64.6649 41.7203 62.6558 41.575 60.7722C41.3323 58.8048 41.2837 55.6657 42.254 54.0752ZM46.7657 19.9622C50.2101 15.9857 47.2992 12.8048 41.7691 13.7674C39.5374 14.144 37.306 15.4836 37.1603 17.9111C36.4326 17.9948 34.7833 18.0784 33.9585 20.6736C33.3281 22.6827 32.9885 23.0594 31.8724 24.0638C31.1448 24.7754 31.921 26.2404 32.4545 27.287C34.2496 30.8866 39.7799 31.2214 43.5154 33.9421C44.7767 33.6491 46.0864 32.4354 46.4746 31.6402C43.3213 28.417 44.0003 27.1614 42.7389 25.4873C44.0975 25.0685 47.2022 23.4362 46.7657 19.9622Z" fill="#010101"/>
<path d="M46.0865 19.711C46.2803 19.4597 46.62 18.9157 46.7657 18.7063C46.8143 18.6644 47.3478 19.4597 47.3964 19.418C48.7061 17.5761 49.0457 14.8973 47.5417 14.6462C47.202 14.6043 46.5716 14.4789 46.0379 14.3112C45.0678 14.0182 44.1947 14.0182 42.642 14.2695C40.5075 14.6043 38.3731 15.9437 38.3731 17.8691C38.3731 17.9947 39.8766 18.3714 40.3134 19.9202C39.5856 19.0411 38.3242 18.0783 36.8204 18.9155C35.2194 19.7944 36.0442 21.8035 33.9097 23.8963C33.1819 24.6079 33.2791 25.4451 34.055 27.1192C35.3164 29.7563 41.2835 31.1794 44.5338 33.6907C45.31 33.3977 45.8435 32.728 46.2317 32.2258C44.0487 30.2586 43.1753 28.4167 42.5449 27.0773C41.7687 25.5287 40.8953 24.6498 39.1974 23.4775C40.0707 23.7705 40.75 24.0636 41.1377 24.3147C41.5743 24.5658 42.205 24.6077 42.7873 24.4402C44.8737 23.8128 45.9895 21.3013 46.0865 19.711Z" fill="#F0EFEF"/>
<path d="M67.1894 20.3807C67.0439 21.9712 65.6856 21.1759 64.958 20.8829C63.5025 20.3387 62.047 19.9621 60.3491 19.9621C58.6512 19.9621 56.4681 20.0876 54.5763 20.5062C51.9567 21.134 51.1803 21.0923 50.0161 20.5899C48.8519 20.0457 46.8146 18.7063 46.8146 18.7063C46.8146 18.7063 46.766 19.1249 47.2512 19.669C47.8816 20.3387 49.2887 21.1759 51.1805 21.7199C52.1022 21.9712 52.8301 21.8035 53.6549 21.6362C57.9724 20.7154 62.5324 20.5479 66.3648 22.557C66.559 22.6407 67.2382 22.3896 67.5293 22.0129C67.917 21.469 67.1894 20.3807 67.1894 20.3807Z" fill="#010101"/>
<path d="M45.1165 36.3279C45.5044 36.5373 45.9896 36.6628 46.5231 37.0395C46.5231 37.0395 46.0865 37.0395 45.8927 36.8722C45.65 36.7467 45.1648 36.37 45.1165 36.3279Z" fill="#0A1825"/>
<path d="M59.1365 3.13594C58.9909 2.75927 57.9235 2.08936 55.4496 2.08936C52.7814 2.08936 52.0052 2.80098 51.9568 3.17765C51.9568 3.30321 51.7627 4.64282 51.7141 5.18676C51.7141 5.18676 51.7141 5.85647 51.7625 6.86092C51.811 7.53063 52.0052 7.9073 52.1021 8.7864C52.199 9.70701 52.4903 10.2931 53.0238 11.0466C53.2665 11.172 53.4604 11.2977 53.7031 11.3397C54.6734 11.5069 56.3713 11.5489 57.293 11.3397C57.8265 11.2141 58.5058 10.4188 58.6513 9.70722C58.8452 8.82832 59.0393 8.20033 59.0879 7.65639C59.1848 7.11245 59.2334 5.89839 59.2818 5.56343C59.4275 4.64282 59.1848 3.21957 59.1365 3.13594Z" fill="#F0EFEF"/>
<path d="M54.0425 54.8704C54.0425 54.8704 56.6138 55.8331 62.969 54.9959C62.969 54.9959 61.1741 62.7813 61.9989 66.6737C61.9989 66.6737 62.8234 67.6784 68.9361 69.6036C68.9361 69.6036 71.6527 70.1897 71.5557 71.3619C71.5557 71.3619 71.6527 71.613 68.354 71.5291C65.0553 71.4453 61.9503 70.9431 59.7672 70.9431C57.5841 70.9431 55.2556 71.0267 54.8676 70.4828C54.431 69.9805 54.9645 68.6828 55.5952 67.9293C56.2747 67.1342 56.0803 66.548 56.032 65.1251C55.886 61.3999 52.5871 57.5492 54.0425 54.8704Z" fill="#010101"/>
<path d="M53.5088 55.5821C53.1692 56.0007 53.5572 57.591 54.0423 59.1398C54.5275 60.6884 55.595 61.6094 55.8374 64.1625C56.0799 66.6738 56.1285 67.0088 55.3037 68.4735C54.4789 69.9383 54.2364 71.2779 57.0985 71.3198C59.9606 71.3618 61.5133 71.2779 64.424 71.6548C67.3349 72.0315 68.3535 72.157 69.9545 71.9478C71.5555 71.7386 71.8949 71.2779 71.2159 70.8595C70.5366 70.4409 67.7229 69.9806 66.5101 69.1432C65.3457 68.3899 62.047 67.1341 61.9987 66.7994C61.8531 65.6692 61.8046 61.5673 62.047 60.2279C62.2897 58.8883 62.6291 56.963 62.7263 56.4608C62.8234 55.9586 63.3084 55.4561 62.4836 55.6236C61.659 55.7909 58.5542 56.1677 56.2256 56.0422C53.897 55.9168 53.6546 55.4563 53.5088 55.5821Z" fill="#8AC640"/>
<path opacity="0.3" d="M55.1584 68.5156C55.9829 68.8503 57.1959 69.1016 58.1177 69.1016C58.1177 69.1016 57.7778 70.483 58.3115 71.3199C58.845 72.1571 54.4305 71.6549 54.4305 71.6549L54.2367 68.6831L55.1584 68.5156ZM68.0141 72.1152C68.7903 71.9058 69.3241 71.1525 68.6934 70.441C68.0141 69.7294 67.432 69.6039 68.3052 69.5621C69.1786 69.5202 72.3803 71.1944 72.3803 71.1944L70.7307 72.4919L68.0141 72.1152ZM53.3633 57.2142C54.4791 57.5492 56.177 57.6328 57.6325 57.5909C59.0877 57.5492 61.2708 57.3815 62.6779 56.9631C64.0846 56.5445 63.5025 57.4234 63.5025 57.4234L62.7263 58.0514C62.7263 58.0514 60.8828 58.6792 57.8752 58.6375C54.3338 58.5956 53.2664 58.2608 53.2664 58.2608L53.3633 57.2142ZM53.4602 59.3072C54.5763 59.6421 56.274 59.7258 57.7294 59.6839C59.1847 59.6421 61.1253 59.6421 62.5322 59.1816C63.1142 59.0144 62.7749 59.7258 62.7749 59.7258L62.5322 60.1024C62.5322 60.1024 60.6401 60.6885 57.6809 60.6464C54.1395 60.6047 53.5088 60.3534 53.5088 60.3534L53.4602 59.3072Z" fill="#010101"/>
<path d="M50.2585 29.9661C50.2585 30.2591 54.0426 31.8913 56.1285 32.2263C58.2146 32.561 62.5808 32.2263 63.2598 32.1007L63.1626 32.6868C63.1626 32.6868 57.9719 33.3565 53.994 32.4357C50.0159 31.5149 50.4527 31.3055 50.4527 31.3055L50.2585 29.9661Z" fill="#010101"/>
<path d="M42.157 65.6693C42.7391 65.9206 44.8253 66.3809 46.1835 66.1298C46.3774 66.0879 46.1835 63.2416 46.7173 61.9441C47.4935 60.1442 48.7548 58.6792 49.3367 55.4983C47.2991 55.3309 44.9708 54.8704 43.7578 54.5354C42.2056 58.6375 42.7394 62.1533 42.157 65.6693ZM45.4076 68.3064C45.7472 68.39 45.9897 68.7248 46.0868 68.5158C46.2807 68.1389 45.7472 67.4275 45.6986 66.9252V66.8833C45.2621 66.5486 42.3028 66.5066 42.4969 66.6739C42.1573 67.2181 41.6238 67.1344 41.4299 68.2227C41.333 68.7667 42.1092 68.3064 42.8365 68.2644C41.5268 69.0178 40.023 69.9807 39.7803 70.8177C39.4893 71.9896 39.9744 72.3246 41.4299 72.9526C42.6912 73.2037 44.1951 73.2456 45.3592 73.2037C46.6692 72.9943 46.9119 72.4503 46.5237 71.6968C45.9411 70.5666 45.5531 69.1016 45.4076 68.3064Z" fill="#F0EFEF"/>
<path d="M45.941 13.9348C47.542 14.7301 49.7737 14.5209 50.5982 14.479C50.7923 14.479 52.7329 14.1859 52.8299 14.2276C53.0237 14.2696 53.0237 14.3951 53.0237 14.3951C53.0237 14.3951 52.2961 14.7299 50.6468 14.8135C49.0944 14.8971 47.2509 14.8135 46.2323 14.3951C45.0193 13.9348 45.941 13.9348 45.941 13.9348ZM62.4353 14.7301C62.7263 14.8973 64.6184 15.5253 65.4431 16.2787C66.1708 16.9486 65.7828 16.9067 65.637 16.7392C65.4432 16.5298 63.9391 15.6509 63.357 15.4417C62.7749 15.2325 62.0471 14.8556 62.0471 14.772C62.0471 14.6884 62.4353 14.7301 62.4353 14.7301Z" fill="#010101"/>
<path d="M45.6983 32.1004C47.1051 32.0167 48.5606 32.3098 49.4823 33.1468C49.9675 33.5653 50.7437 34.0257 50.6468 34.4442C50.6468 34.5698 50.3555 34.9048 50.1132 35.1559C49.9677 35.3231 49.5312 35.6998 49.3854 35.8256C49.1915 35.9511 48.5123 36.4116 48.3667 36.4953C48.2212 36.5791 48.0271 36.7885 47.8816 36.8302C47.3967 37.0396 46.8629 36.8721 46.3778 36.663C45.8929 36.4536 46.475 36.4116 45.9412 36.0769C44.6315 35.2816 43.9037 34.7373 44.4374 33.1887C44.4857 32.8956 45.0192 32.5607 45.6983 32.1004Z" fill="#F0EFEF"/>
<path opacity="0.4" d="M33.328 22.5154C28.9618 24.0223 17.8524 28.7941 14.6992 30.259C17.3189 31.6821 18.5316 35.1142 18.9198 38.5883C18.9682 38.9233 19.0168 39.2163 19.0654 39.5511C19.1137 39.8441 19.1623 40.0533 19.2107 40.179C19.2107 40.221 19.2107 40.3046 19.2592 40.3463C22.1216 33.6076 32.3574 26.4919 32.7457 25.9478C32.9395 25.6967 32.503 24.6084 33.1822 23.5622C34.0556 22.2224 35.7538 21.6363 33.328 22.5154ZM43.7096 54.1171C45.941 50.2663 45.9896 46.5829 45.941 42.2716C45.941 40.4717 47.4449 37.9184 46.6689 38.63C43.758 41.4342 36.4328 46.7084 31.1449 47.0012C38.5673 46.792 41.478 50.015 43.7096 54.1171Z" fill="#010101"/>
<path d="M10.4299 33.8165C13.1951 32.1004 27.5063 25.5291 30.9507 24.6081C34.3949 23.6454 33.3277 22.5151 33.3277 22.5151C33.3277 22.5151 19.3561 27.7053 11.012 32.184" fill="#010101"/>
<path opacity="0.4" d="M51.1804 21.7201C50.0646 21.3434 49.1914 22.4736 49.4825 23.5619C49.7738 24.6502 52.3934 25.8638 52.2476 29.8404C52.1507 33.1052 51.3259 34.4444 51.3259 34.4444L49.4825 32.4355C49.4825 32.4355 49.1914 27.9149 48.5608 27.2452C47.9303 26.5755 45.9411 25.3616 45.1649 24.7338C44.3887 24.1059 46.0381 23.2689 45.9411 22.0967C45.8442 20.9667 46.7659 18.7065 46.7659 18.7065L51.1804 21.7201ZM57.9237 39.5508C57.8268 42.6899 58.6516 47.3361 58.991 49.5546C59.3306 51.7729 59.7672 51.9404 58.991 52.9451C58.2148 53.9078 57.1961 55.4983 57.1961 55.4983L53.8486 55.247C53.8486 55.247 56.5169 52.3171 56.6621 51.7729C56.8077 51.229 55.3038 47.0852 55.3038 47.0852L57.9237 39.5508ZM51.4717 10.2515C52.1509 11.5487 52.9755 12.1348 54.2852 12.5117C55.0614 12.7628 58.1176 13.0978 59.3306 11.9256C59.8641 11.3815 59.5245 9.9165 59.5245 9.9165L56.7593 11.8418L53.0238 11.2559L52.5873 10.2932L51.4717 10.2515Z" fill="#010101"/>
<path d="M51.7625 13.1396C53.0238 13.8513 56.1772 14.521 57.0504 14.6465C57.9235 14.8138 59.3304 13.8513 60.0096 13.6002C60.7375 13.3071 61.9988 13.1396 63.4541 14.2699C63.5996 14.3954 63.1144 14.9396 63.1144 14.9396C63.0658 14.8976 62.7748 14.8976 62.3866 14.7302C61.9986 14.5629 61.659 14.4371 61.0769 14.4791C58.6511 14.7302 58.2631 15.4418 56.1286 15.023C53.9942 14.6042 53.4604 14.2697 51.3745 14.3533" fill="#8AC640"/>
<path d="M51.7625 13.1396C53.0238 13.8513 56.1772 14.521 57.0504 14.6465C57.9235 14.8138 59.3304 13.8513 60.0096 13.6002C60.7375 13.3071 61.9988 13.1396 63.4541 14.2699C63.5996 14.3954 63.1144 14.9396 63.1144 14.9396C63.0658 14.8976 62.7748 14.8976 62.3866 14.7302C61.9986 14.5629 61.659 14.4371 61.0769 14.4791C58.6511 14.7302 58.2631 15.4418 56.1286 15.023C53.9942 14.6042 53.4604 14.2697 51.3745 14.3533" stroke="#010101" stroke-width="10.8638" stroke-miterlimit="10" stroke-linejoin="round"/>
<path d="M51.3257 13.2651C52.9267 13.8512 56.0315 14.479 56.9046 14.6465C57.7778 14.8139 59.1846 14.0604 59.8639 13.6837C61.0769 13.014 62.6291 13.5582 63.3569 14.2698C63.8418 14.7301 64.0362 15.0231 64.0362 15.1487C64.0362 15.316 63.4541 15.1487 63.4541 15.1487C63.1144 15.0231 62.7262 14.9814 62.4354 14.8137C62.0472 14.6465 61.659 14.3954 61.0771 14.4371C58.6514 14.6884 58.1662 15.3998 56.0803 14.9812C53.9944 14.5626 53.4607 14.186 51.2292 14.3113" fill="#8AC640"/>
<path d="M43.8066 52.3588C43.7096 52.2752 43.9035 52.1915 43.8066 52.1915C43.1761 52.1915 42.3028 51.7729 41.8174 51.1869C39.7315 48.5919 36.675 46.8758 31.1447 47.0014C22.849 47.1686 19.5501 44.2389 18.9196 38.6302C18.58 35.5747 17.6097 32.6028 15.6207 30.9285L14.4563 31.5565C16.6877 33.2306 17.4156 35.9514 17.9007 39.6765C18.6769 45.2853 23.9162 47.8805 30.0289 47.9641C36.384 48.0477 38.664 49.178 41.0409 51.9406C41.8171 52.8195 42.6905 53.1126 43.3695 53.2381L43.8066 52.3588Z" fill="#010101"/>
<path opacity="0.4" d="M66.3163 25.4453C66.4618 26.0731 66.8498 27.2869 67.626 27.8728C67.9659 28.1658 68.0142 28.2495 67.7232 28.2495C67.4319 28.2495 65.2974 28.1658 65.2974 28.1658L64.7153 27.2869L66.3163 25.4453Z" fill="#010101"/>
</svg>
