<svg width="245" height="122" viewBox="0 0 245 122" fill="none" xmlns="http://www.w3.org/2000/svg">
<path d="M133.825 59.432C133.825 60.328 133.609 61.168 133.177 61.952C132.761 62.736 132.097 63.368 131.185 63.848C130.289 64.328 129.153 64.568 127.777 64.568H124.969V71H121.609V54.248H127.777C129.073 54.248 130.177 54.472 131.089 54.92C132.001 55.368 132.681 55.984 133.129 56.768C133.593 57.552 133.825 58.44 133.825 59.432ZM127.633 61.856C128.561 61.856 129.249 61.648 129.697 61.232C130.145 60.8 130.369 60.2 130.369 59.432C130.369 57.8 129.457 56.984 127.633 56.984H124.969V61.856H127.633ZM137.915 56.12C137.323 56.12 136.827 55.936 136.427 55.568C136.043 55.184 135.851 54.712 135.851 54.152C135.851 53.592 136.043 53.128 136.427 52.76C136.827 52.376 137.323 52.184 137.915 52.184C138.507 52.184 138.995 52.376 139.379 52.76C139.779 53.128 139.979 53.592 139.979 54.152C139.979 54.712 139.779 55.184 139.379 55.568C138.995 55.936 138.507 56.12 137.915 56.12ZM139.571 57.704V71H136.211V57.704H139.571ZM150.258 57.512C151.842 57.512 153.122 58.016 154.098 59.024C155.074 60.016 155.562 61.408 155.562 63.2V71H152.202V63.656C152.202 62.6 151.938 61.792 151.41 61.232C150.882 60.656 150.162 60.368 149.25 60.368C148.322 60.368 147.586 60.656 147.042 61.232C146.514 61.792 146.25 62.6 146.25 63.656V71H142.89V57.704H146.25V59.36C146.698 58.784 147.266 58.336 147.954 58.016C148.658 57.68 149.426 57.512 150.258 57.512ZM160.462 56.12C159.87 56.12 159.374 55.936 158.974 55.568C158.59 55.184 158.398 54.712 158.398 54.152C158.398 53.592 158.59 53.128 158.974 52.76C159.374 52.376 159.87 52.184 160.462 52.184C161.054 52.184 161.542 52.376 161.926 52.76C162.326 53.128 162.526 53.592 162.526 54.152C162.526 54.712 162.326 55.184 161.926 55.568C161.542 55.936 161.054 56.12 160.462 56.12ZM162.118 57.704V71H158.758V57.704H162.118ZM164.573 64.304C164.573 62.96 164.837 61.768 165.365 60.728C165.909 59.688 166.637 58.888 167.549 58.328C168.477 57.768 169.509 57.488 170.645 57.488C171.637 57.488 172.501 57.688 173.237 58.088C173.989 58.488 174.589 58.992 175.037 59.6V57.704H178.421V71H175.037V69.056C174.605 69.68 174.005 70.2 173.237 70.616C172.485 71.016 171.613 71.216 170.621 71.216C169.501 71.216 168.477 70.928 167.549 70.352C166.637 69.776 165.909 68.968 165.365 67.928C164.837 66.872 164.573 65.664 164.573 64.304ZM175.037 64.352C175.037 63.536 174.877 62.84 174.557 62.264C174.237 61.672 173.805 61.224 173.261 60.92C172.717 60.6 172.133 60.44 171.509 60.44C170.885 60.44 170.309 60.592 169.781 60.896C169.253 61.2 168.821 61.648 168.485 62.24C168.165 62.816 168.005 63.504 168.005 64.304C168.005 65.104 168.165 65.808 168.485 66.416C168.821 67.008 169.253 67.464 169.781 67.784C170.325 68.104 170.901 68.264 171.509 68.264C172.133 68.264 172.717 68.112 173.261 67.808C173.805 67.488 174.237 67.04 174.557 66.464C174.877 65.872 175.037 65.168 175.037 64.352Z" fill="black" fill-opacity="0.87"/>
<g clip-path="url(#clip0_221_1192)">
<path fill-rule="evenodd" clip-rule="evenodd" d="M83.7035 59.4296C88.7265 54.6009 87.1862 48.6206 82.6251 41.3712C78.0641 34.1218 68.8948 31.5349 67.1864 33.1772C65.478 34.8195 65.1109 46.5739 69.6719 53.8233C74.233 61.0726 78.6804 64.2583 83.7035 59.4296Z" fill="url(#paint0_linear_221_1192)"/>
<path fill-rule="evenodd" clip-rule="evenodd" d="M88.0523 60.0843C91.78 66.0092 96.7533 63.8494 102.906 57.9348C109.059 52.0202 111.601 40.6809 110.333 38.6657C109.065 36.6505 99.4457 36.7415 93.2931 42.6561C87.1405 48.5706 84.3246 54.1594 88.0523 60.0843Z" fill="url(#paint1_linear_221_1192)"/>
<path fill-rule="evenodd" clip-rule="evenodd" d="M86.0227 56.8277C92.2124 57.5992 94.6403 51.8451 95.7657 42.541C96.891 33.2369 92.203 23.3969 90.0978 23.1345C87.9926 22.8721 80.9294 31.2473 79.8041 40.5514C78.6788 49.8555 79.8331 56.0562 86.0227 56.8277Z" fill="url(#paint2_linear_221_1192)"/>
<path fill-rule="evenodd" clip-rule="evenodd" d="M84.4527 98.0001C97.4075 98.0001 107.914 94.2037 107.914 76.9867C107.914 59.7697 97.4075 45.6416 84.4527 45.6416C71.4978 45.6416 61 59.7697 61 76.9867C61 94.2037 71.4978 98.0001 84.4527 98.0001Z" fill="url(#paint3_linear_221_1192)"/>
<path d="M96.3021 73.4718C98.1528 73.4718 99.6531 72.7678 99.6531 71.8995C99.6531 71.0311 98.1528 70.3271 96.3021 70.3271C94.4515 70.3271 92.9512 71.0311 92.9512 71.8995C92.9512 72.7678 94.4515 73.4718 96.3021 73.4718Z" fill="#EAADCC"/>
<path d="M71.4861 72.5166C73.323 72.7441 74.8972 72.2299 75.0021 71.368C75.107 70.5061 73.7029 69.6229 71.866 69.3954C70.0291 69.1678 68.455 69.6821 68.3501 70.544C68.2452 71.4059 69.6492 72.2891 71.4861 72.5166Z" fill="#EAADCC"/>
<path d="M86.5997 71.342C85.5908 72.1685 84.4258 72.5058 83.1045 72.3541C81.7832 72.2023 80.804 71.6499 80.1668 70.6967" stroke="black" stroke-width="6" stroke-linecap="round" stroke-linejoin="round"/>
<path fill-rule="evenodd" clip-rule="evenodd" d="M73.6231 63.1612C74.5482 63.1284 75.3987 63.4766 76.0259 64.0663C76.6531 64.6559 77.0571 65.4869 77.0891 66.4196C77.1211 67.3523 76.7752 68.21 76.1899 68.8427C75.6047 69.4755 74.7801 69.8832 73.855 69.9161C72.9299 69.949 72.0795 69.6007 71.4523 69.011C70.8252 68.4213 70.4213 67.5903 70.3893 66.6575C70.3572 65.7249 70.7032 64.8672 71.2884 64.2345C71.8735 63.6018 72.698 63.1941 73.6231 63.1612Z" fill="black"/>
<path fill-rule="evenodd" clip-rule="evenodd" d="M73.798 65.9856C73.7772 65.3784 73.2717 64.9033 72.6697 64.9247C72.0672 64.9461 71.5958 65.4559 71.6167 66.0631C71.6375 66.6703 72.1428 67.1454 72.7452 67.124C73.3472 67.1024 73.8189 66.5929 73.798 65.9856Z" fill="white"/>
<path fill-rule="evenodd" clip-rule="evenodd" d="M93.9269 64.0194C94.8521 63.9865 95.7025 64.3348 96.3297 64.9244C96.9569 65.514 97.3608 66.3451 97.3928 67.2777C97.4248 68.2105 97.0789 69.0682 96.4937 69.7009C95.9085 70.3336 95.084 70.7414 94.1589 70.7743C93.2338 70.8071 92.3833 70.4588 91.7561 69.8691C91.1289 69.2795 90.725 68.4484 90.693 67.5157C90.661 66.583 91.0069 65.7254 91.5921 65.0927C92.1774 64.46 93.0019 64.0522 93.9269 64.0194Z" fill="black"/>
<path d="M76.6223 66.4355C76.677 68.0403 75.4305 69.3872 73.8379 69.4441C72.2456 69.5011 70.9105 68.2466 70.8558 66.6418C70.8011 65.0372 72.0475 63.6903 73.6399 63.6333C75.2324 63.5764 76.5676 64.8309 76.6223 66.4355ZM77.5574 66.402C77.485 64.277 75.7167 62.6156 73.6078 62.6911C71.499 62.7665 69.8483 64.5502 69.9207 66.6753C69.9932 68.8004 71.7612 70.4619 73.8701 70.3864C75.979 70.311 77.6299 68.5272 77.5574 66.402Z" fill="white" stroke="white" stroke-width="3"/>
<path d="M96.926 67.2934C96.9807 68.8982 95.7343 70.2451 94.1418 70.302C92.5495 70.359 91.2143 69.1045 91.1596 67.4997C91.1049 65.8951 92.3514 64.5482 93.9438 64.4913C95.5363 64.4343 96.8713 65.6888 96.926 67.2934ZM97.8611 67.26C97.7887 65.1349 96.0206 63.4735 93.9116 63.549C91.8028 63.6244 90.152 65.4081 90.2244 67.5332C90.2969 69.6583 92.0651 71.3198 94.1739 71.2443C96.2829 71.1689 97.9336 69.3852 97.8611 67.26Z" fill="white" stroke="white" stroke-width="3"/>
<path fill-rule="evenodd" clip-rule="evenodd" d="M94.1024 66.8435C94.0817 66.2364 93.5764 65.7616 92.974 65.7832C92.3715 65.8047 91.8998 66.3145 91.9205 66.9215C91.9412 67.5286 92.4465 68.0034 93.0489 67.9818C93.6514 67.9603 94.1231 67.4506 94.1024 66.8435Z" fill="white"/>
<path d="M66.689 78.5818L78.2225 90.6887" stroke="#ECB732" stroke-width="11" stroke-linecap="round"/>
<path d="M76.6638 79.9968L69.3384 87.8585" stroke="#ECB732" stroke-width="11" stroke-linecap="round"/>
<path d="M102.069 78.5818L90.5353 90.6887" stroke="#ECB732" stroke-width="11" stroke-linecap="round"/>
<path d="M92.094 79.9968L99.4194 87.8585" stroke="#ECB732" stroke-width="11" stroke-linecap="round"/>
<path d="M89.1328 51.8523L81.4957 59.5567" stroke="#FFC73B" stroke-width="11" stroke-linecap="round"/>
<path d="M87.5742 59.5566L79.9371 51.8522" stroke="#FFC73B" stroke-width="11" stroke-linecap="round"/>
</g>
<defs>
<filter id="filter0_f_221_1192" x="0" y="0" width="245" height="122" filterUnits="userSpaceOnUse" color-interpolation-filters="sRGB">
<feFlood flood-opacity="0" result="BackgroundImageFix"/>
<feBlend mode="normal" in="SourceGraphic" in2="BackgroundImageFix" result="shape"/>
<feGaussianBlur stdDeviation="5" result="effect1_foregroundBlur_221_1192"/>
</filter>
<linearGradient id="paint0_linear_221_1192" x1="2575.86" y1="-1943.59" x2="4688.33" y2="3928.48" gradientUnits="userSpaceOnUse">
<stop stop-color="#52CE63"/>
<stop offset="1" stop-color="#51A256"/>
</linearGradient>
<linearGradient id="paint1_linear_221_1192" x1="2079.08" y1="2580.15" x2="-3756.74" y2="4651.14" gradientUnits="userSpaceOnUse">
<stop stop-color="#52CE63"/>
<stop offset="1" stop-color="#51A256"/>
</linearGradient>
<linearGradient id="paint2_linear_221_1192" x1="2627.9" y1="339.471" x2="1450.25" y2="9787.11" gradientUnits="userSpaceOnUse">
<stop stop-color="#8AE99C"/>
<stop offset="1" stop-color="#52CE63"/>
</linearGradient>
<linearGradient id="paint3_linear_221_1192" x1="7749.89" y1="4409.41" x2="6484.57" y2="25005.4" gradientUnits="userSpaceOnUse">
<stop stop-color="#FFE56C"/>
<stop offset="1" stop-color="#FFC63A"/>
</linearGradient>
<clipPath id="clip0_221_1192">
<rect width="49.7191" height="75" fill="white" transform="translate(61 23)"/>
</clipPath>
</defs>
</svg>
