<svg width="50" height="75" viewBox="0 0 50 75" fill="none" xmlns="http://www.w3.org/2000/svg">
<g clip-path="url(#clip0_221_1195)">
<path fill-rule="evenodd" clip-rule="evenodd" d="M22.7035 36.4296C27.7265 31.6009 26.1862 25.6206 21.6251 18.3712C17.0641 11.1218 7.89483 8.53486 6.1864 10.1772C4.47798 11.8195 4.11088 23.5739 8.67195 30.8233C13.233 38.0726 17.6804 41.2583 22.7035 36.4296Z" fill="url(#paint0_linear_221_1195)"/>
<path fill-rule="evenodd" clip-rule="evenodd" d="M27.0523 37.0843C30.78 43.0092 35.7533 40.8494 41.9059 34.9348C48.0585 29.0202 50.6007 17.6809 49.3328 15.6657C48.0649 13.6505 38.4457 13.7415 32.2931 19.6561C26.1405 25.5706 23.3246 31.1594 27.0523 37.0843Z" fill="url(#paint1_linear_221_1195)"/>
<path fill-rule="evenodd" clip-rule="evenodd" d="M25.0227 33.8277C31.2124 34.5992 33.6403 28.8451 34.7657 19.541C35.891 10.2369 31.203 0.396938 29.0978 0.134525C26.9926 -0.127889 19.9294 8.24729 18.8041 17.5514C17.6788 26.8555 18.8331 33.0562 25.0227 33.8277Z" fill="url(#paint2_linear_221_1195)"/>
<path fill-rule="evenodd" clip-rule="evenodd" d="M23.4527 75.0001C36.4075 75.0001 46.9136 71.2037 46.9136 53.9867C46.9136 36.7697 36.4075 22.6416 23.4527 22.6416C10.4978 22.6416 0 36.7697 0 53.9867C0 71.2037 10.4978 75.0001 23.4527 75.0001Z" fill="url(#paint3_linear_221_1195)"/>
<path d="M35.3021 50.4718C37.1528 50.4718 38.6531 49.7678 38.6531 48.8995C38.6531 48.0311 37.1528 47.3271 35.3021 47.3271C33.4515 47.3271 31.9512 48.0311 31.9512 48.8995C31.9512 49.7678 33.4515 50.4718 35.3021 50.4718Z" fill="#EAADCC"/>
<path d="M10.4861 49.5166C12.323 49.7441 13.8972 49.2299 14.0021 48.368C14.107 47.5061 12.7029 46.6229 10.866 46.3954C9.02914 46.1678 7.455 46.6821 7.35009 47.544C7.24519 48.4059 8.64925 49.2891 10.4861 49.5166Z" fill="#EAADCC"/>
<path d="M25.5997 48.342C24.5908 49.1685 23.4258 49.5058 22.1045 49.3541C20.7832 49.2023 19.804 48.6499 19.1668 47.6967" stroke="black" stroke-width="6" stroke-linecap="round" stroke-linejoin="round"/>
<path fill-rule="evenodd" clip-rule="evenodd" d="M12.6231 40.1612C13.5482 40.1284 14.3987 40.4766 15.0259 41.0663C15.6531 41.6559 16.0571 42.4869 16.0891 43.4196C16.1211 44.3523 15.7752 45.21 15.1899 45.8427C14.6047 46.4755 13.7801 46.8832 12.855 46.9161C11.9299 46.949 11.0795 46.6007 10.4523 46.011C9.82519 45.4213 9.42129 44.5903 9.38927 43.6575C9.35725 42.7249 9.70317 41.8672 10.2884 41.2345C10.8735 40.6018 11.698 40.1941 12.6231 40.1612Z" fill="black"/>
<path fill-rule="evenodd" clip-rule="evenodd" d="M12.798 42.9856C12.7772 42.3784 12.2717 41.9033 11.6697 41.9247C11.0672 41.9461 10.5958 42.4559 10.6167 43.0631C10.6375 43.6703 11.1428 44.1454 11.7452 44.124C12.3472 44.1024 12.8189 43.5929 12.798 42.9856Z" fill="white"/>
<path fill-rule="evenodd" clip-rule="evenodd" d="M32.9269 41.0194C33.8521 40.9865 34.7025 41.3348 35.3297 41.9244C35.9569 42.514 36.3608 43.3451 36.3928 44.2777C36.4248 45.2105 36.0789 46.0682 35.4937 46.7009C34.9085 47.3336 34.084 47.7414 33.1589 47.7743C32.2338 47.8071 31.3833 47.4588 30.7561 46.8691C30.1289 46.2795 29.725 45.4484 29.693 44.5157C29.661 43.583 30.0069 42.7254 30.5921 42.0927C31.1774 41.46 32.0019 41.0522 32.9269 41.0194Z" fill="black"/>
<path d="M15.6223 43.4355C15.677 45.0403 14.4305 46.3872 12.8379 46.4441C11.2456 46.5011 9.91054 45.2466 9.85584 43.6418C9.80115 42.0372 11.0475 40.6903 12.6399 40.6333C14.2324 40.5764 15.5676 41.8309 15.6223 43.4355ZM16.5574 43.402C16.485 41.277 14.7167 39.6156 12.6078 39.6911C10.499 39.7665 8.84831 41.5502 8.92074 43.6753C8.99318 45.8004 10.7612 47.4619 12.8701 47.3864C14.979 47.311 16.6299 45.5272 16.5574 43.402Z" fill="white" stroke="white" stroke-width="3"/>
<path d="M35.926 44.2934C35.9807 45.8982 34.7343 47.2451 33.1418 47.302C31.5495 47.359 30.2143 46.1045 30.1596 44.4997C30.1049 42.8951 31.3514 41.5482 32.9438 41.4913C34.5363 41.4343 35.8713 42.6888 35.926 44.2934ZM36.8611 44.26C36.7887 42.1349 35.0206 40.4735 32.9116 40.549C30.8028 40.6244 29.152 42.4081 29.2244 44.5332C29.2969 46.6583 31.0651 48.3198 33.1739 48.2443C35.2829 48.1689 36.9336 46.3852 36.8611 44.26Z" fill="white" stroke="white" stroke-width="3"/>
<path fill-rule="evenodd" clip-rule="evenodd" d="M33.1024 43.8435C33.0817 43.2364 32.5764 42.7616 31.974 42.7832C31.3715 42.8047 30.8998 43.3145 30.9205 43.9215C30.9412 44.5286 31.4465 45.0034 32.0489 44.9818C32.6514 44.9603 33.1231 44.4506 33.1024 43.8435Z" fill="white"/>
<path d="M5.68896 55.5818L17.2225 67.6887" stroke="#ECB732" stroke-width="11" stroke-linecap="round"/>
<path d="M15.6638 56.9968L8.33838 64.8585" stroke="#ECB732" stroke-width="11" stroke-linecap="round"/>
<path d="M41.0688 55.5818L29.5353 67.6887" stroke="#ECB732" stroke-width="11" stroke-linecap="round"/>
<path d="M31.094 56.9968L38.4194 64.8585" stroke="#ECB732" stroke-width="11" stroke-linecap="round"/>
<path d="M28.1328 28.8523L20.4957 36.5567" stroke="#FFC73B" stroke-width="11" stroke-linecap="round"/>
<path d="M26.5742 36.5566L18.9371 28.8522" stroke="#FFC73B" stroke-width="11" stroke-linecap="round"/>
</g>
<defs>
<linearGradient id="paint0_linear_221_1195" x1="2514.86" y1="-1966.59" x2="4627.33" y2="3905.48" gradientUnits="userSpaceOnUse">
<stop stop-color="#52CE63"/>
<stop offset="1" stop-color="#51A256"/>
</linearGradient>
<linearGradient id="paint1_linear_221_1195" x1="2018.08" y1="2557.15" x2="-3817.74" y2="4628.14" gradientUnits="userSpaceOnUse">
<stop stop-color="#52CE63"/>
<stop offset="1" stop-color="#51A256"/>
</linearGradient>
<linearGradient id="paint2_linear_221_1195" x1="2566.9" y1="316.471" x2="1389.25" y2="9764.11" gradientUnits="userSpaceOnUse">
<stop stop-color="#8AE99C"/>
<stop offset="1" stop-color="#52CE63"/>
</linearGradient>
<linearGradient id="paint3_linear_221_1195" x1="7688.89" y1="4386.41" x2="6423.57" y2="24982.4" gradientUnits="userSpaceOnUse">
<stop stop-color="#FFE56C"/>
<stop offset="1" stop-color="#FFC63A"/>
</linearGradient>
<clipPath id="clip0_221_1195">
<rect width="49.7191" height="75" fill="white"/>
</clipPath>
</defs>
</svg>
