<svg width="245" height="122" viewBox="0 0 245 122" fill="none" xmlns="http://www.w3.org/2000/svg">
<g clip-path="url(#clip0_221_1289)">
<path fill-rule="evenodd" clip-rule="evenodd" d="M78.28 72.6628C76.5734 72.6628 74.9306 72.4336 73.352 71.9748C71.7734 71.5162 70.4614 70.8816 69.416 70.0708L71.016 66.5188C73.192 68.0336 75.6346 68.7908 78.344 68.7908C79.752 68.7908 80.8346 68.5616 81.592 68.1028C82.3494 67.6442 82.728 67.0096 82.728 66.1988C82.728 65.4736 82.3814 64.9082 81.688 64.5028C80.9946 64.0976 79.7626 63.7028 77.992 63.3188C76.008 62.9136 74.424 62.4228 73.24 61.8468C72.056 61.2708 71.192 60.5615 70.648 59.7189C70.104 58.8762 69.832 57.8362 69.832 56.5989C69.832 55.2335 70.2106 54.0175 70.968 52.9509C71.7254 51.8842 72.7866 51.0469 74.152 50.4389C75.5174 49.8309 77.096 49.5269 78.888 49.5269C80.488 49.5269 82.0294 49.7615 83.512 50.2309C84.9946 50.7002 86.1734 51.3295 87.048 52.1189L85.448 55.6709C83.3786 54.1562 81.2026 53.3989 78.92 53.3989C77.6186 53.3989 76.5946 53.6495 75.848 54.1509C75.1014 54.6522 74.728 55.3402 74.728 56.2149C74.728 56.7269 74.872 57.1482 75.16 57.4789C75.448 57.8095 75.928 58.1029 76.6 58.3589C77.272 58.6149 78.2266 58.8815 79.464 59.1589C82.3654 59.7989 84.4506 60.6202 85.72 61.6228C86.9894 62.6256 87.624 64.0122 87.624 65.7828C87.624 67.9162 86.8026 69.5962 85.16 70.8228C83.5174 72.0496 81.224 72.6628 78.28 72.6628ZM99.2084 69.0786C99.699 69.0786 100.211 69.0466 100.744 68.9826L100.488 72.5026C99.8696 72.588 99.251 72.6306 98.6324 72.6306C96.243 72.6306 94.499 72.108 93.4004 71.0626C92.3016 70.0174 91.7524 68.428 91.7524 66.2946V60.2787H88.7764V56.6627H91.7524V52.0547H96.5844V56.6627H100.52V60.2787H96.5844V66.2626C96.5844 68.14 97.459 69.0786 99.2084 69.0786ZM110.44 72.6308C108.776 72.6308 107.315 72.2948 106.056 71.6228C104.797 70.9508 103.827 70.0016 103.144 68.7748C102.461 67.5482 102.12 66.1028 102.12 64.4388C102.12 62.7748 102.461 61.3296 103.144 60.1029C103.827 58.8762 104.797 57.9322 106.056 57.2709C107.315 56.6095 108.776 56.2789 110.44 56.2789C112.104 56.2789 113.565 56.6095 114.824 57.2709C116.083 57.9322 117.053 58.8762 117.736 60.1029C118.419 61.3296 118.76 62.7748 118.76 64.4388C118.76 66.1028 118.419 67.5482 117.736 68.7748C117.053 70.0016 116.083 70.9508 114.824 71.6228C113.565 72.2948 112.104 72.6308 110.44 72.6308ZM110.44 68.9508C112.787 68.9508 113.96 67.4468 113.96 64.4388C113.96 62.9242 113.656 61.7936 113.048 61.0468C112.44 60.3002 111.571 59.9269 110.44 59.9269C108.093 59.9269 106.92 61.4308 106.92 64.4388C106.92 67.4468 108.093 68.9508 110.44 68.9508ZM132.136 60.2471L129.416 60.5351C128.072 60.6631 127.123 61.0418 126.568 61.671C126.014 62.3004 125.736 63.1378 125.736 64.183V72.375H120.904V56.6631H125.544V59.3191C126.334 57.5057 127.966 56.5137 130.44 56.3431L131.848 56.2471L132.136 60.2471ZM146.176 56.6949H150.912L141.44 78.1348H136.544L139.552 71.5108L133.088 56.6949H138.112L142.08 66.6788L146.176 56.6949ZM162.112 56.2789C163.477 56.2789 164.682 56.6096 165.728 57.2709C166.773 57.9323 167.589 58.8763 168.176 60.1029C168.762 61.3296 169.056 62.7536 169.056 64.375C169.056 65.9962 168.762 67.431 168.176 68.679C167.589 69.927 166.768 70.8976 165.712 71.591C164.656 72.2842 163.456 72.631 162.112 72.631C161.024 72.631 160.042 72.4016 159.168 71.943C158.293 71.4842 157.621 70.8496 157.152 70.039V72.375H152.384V49.8149H157.216V58.7749C157.685 57.9856 158.352 57.3723 159.216 56.9349C160.08 56.4976 161.045 56.2789 162.112 56.2789ZM160.704 68.951C161.835 68.951 162.71 68.551 163.328 67.751C163.947 66.951 164.256 65.8256 164.256 64.375C164.256 62.9456 163.947 61.8524 163.328 61.095C162.71 60.3376 161.835 59.959 160.704 59.959C159.574 59.959 158.699 60.3483 158.08 61.127C157.462 61.9056 157.152 63.0096 157.152 64.439C157.152 65.8896 157.462 67.0044 158.08 67.783C158.699 68.5616 159.574 68.951 160.704 68.951ZM179.552 72.6308C177.888 72.6308 176.427 72.2948 175.168 71.6228C173.91 70.9508 172.939 70.0014 172.256 68.7748C171.574 67.5482 171.232 66.1028 171.232 64.4388C171.232 62.7748 171.574 61.3294 172.256 60.1028C172.939 58.8761 173.91 57.9321 175.168 57.2708C176.427 56.6095 177.888 56.2788 179.552 56.2788C181.216 56.2788 182.678 56.6095 183.936 57.2708C185.195 57.9321 186.166 58.8761 186.848 60.1028C187.531 61.3294 187.872 62.7748 187.872 64.4388C187.872 66.1028 187.531 67.5482 186.848 68.7748C186.166 70.0014 185.195 70.9508 183.936 71.6228C182.678 72.2948 181.216 72.6308 179.552 72.6308ZM179.552 68.9508C181.899 68.9508 183.072 67.4468 183.072 64.4388C183.072 62.924 182.768 61.7934 182.16 61.0468C181.552 60.3001 180.683 59.9268 179.552 59.9268C177.206 59.9268 176.032 61.4308 176.032 64.4388C176.032 67.4468 177.206 68.9508 179.552 68.9508ZM197.568 72.6308C195.904 72.6308 194.443 72.2948 193.184 71.6228C191.925 70.9508 190.955 70.0016 190.272 68.7748C189.589 67.5482 189.248 66.1028 189.248 64.4388C189.248 62.7748 189.589 61.3296 190.272 60.1029C190.955 58.8762 191.925 57.9322 193.184 57.2709C194.443 56.6095 195.904 56.2789 197.568 56.2789C199.232 56.2789 200.693 56.6095 201.952 57.2709C203.211 57.9322 204.181 58.8762 204.864 60.1029C205.547 61.3296 205.888 62.7748 205.888 64.4388C205.888 66.1028 205.547 67.5482 204.864 68.7748C204.181 70.0016 203.211 70.9508 201.952 71.6228C200.693 72.2948 199.232 72.6308 197.568 72.6308ZM197.568 68.9508C199.915 68.9508 201.088 67.4468 201.088 64.4388C201.088 62.9242 200.784 61.7936 200.176 61.0468C199.568 60.3002 198.699 59.9269 197.568 59.9269C195.221 59.9269 194.048 61.4308 194.048 64.4388C194.048 67.4468 195.221 68.9508 197.568 68.9508ZM225 72.375H219.08L213.064 65.367V72.375H208.232V49.8149H213.064V63.383L218.856 56.6949H224.616L218.024 64.183L225 72.375Z" fill="black"/>
<path d="M26.2406 77.8586L25.0014 44.8418C24.9605 43.7514 25.7966 42.8273 26.8857 42.7592L54.9688 41.004C56.0774 40.9347 57.0322 41.7772 57.1014 42.8857C57.104 42.9275 57.1054 42.9693 57.1054 43.0112V78.989C57.1054 80.0996 56.205 81 55.0942 81C55.0642 81 55.0342 80.9994 55.004 80.998L28.16 79.7924C27.1145 79.7454 26.2798 78.9044 26.2406 77.8586Z" fill="#FF4785"/>
<path fill-rule="evenodd" clip-rule="evenodd" d="M52.7608 41.1421L48.8958 41.3837L48.7072 45.9167C48.7044 45.9864 48.7258 46.0549 48.768 46.1105C48.8682 46.2425 49.0564 46.2684 49.1884 46.1682L50.9492 44.8325L52.4364 46.0041C52.4922 46.048 52.5616 46.0707 52.6326 46.0683C52.7982 46.0625 52.9278 45.9236 52.922 45.758L52.7608 41.1421ZM49.7526 56.322C49.045 56.8716 43.7747 57.2466 43.7747 56.4642C43.886 53.4785 42.5494 53.3477 41.8068 53.3477C41.1013 53.3477 39.9132 53.5609 39.9132 55.1603C39.9132 56.7902 41.6495 57.7104 43.6875 58.7904C46.5828 60.3246 50.0866 62.1816 50.0866 66.854C50.0866 71.3324 46.448 73.8062 41.8068 73.8062C37.0171 73.8062 32.8314 71.8684 33.3041 65.15C33.4898 64.3612 39.579 64.5486 39.579 65.15C39.5047 67.9224 40.136 68.7378 41.7325 68.7378C42.9578 68.7378 43.5147 68.0624 43.5147 66.925C43.5147 65.2038 41.7056 64.188 39.6244 63.0196C36.8065 61.4374 33.4898 59.5753 33.4898 55.3025C33.4898 51.0374 36.423 48.1939 41.6583 48.1939C46.8936 48.1939 49.7526 50.9938 49.7526 56.322Z" fill="white"/>
</g>
<defs>
<filter id="filter0_f_221_1289" x="0" y="0" width="245" height="122" filterUnits="userSpaceOnUse" color-interpolation-filters="sRGB">
<feFlood flood-opacity="0" result="BackgroundImageFix"/>
<feBlend mode="normal" in="SourceGraphic" in2="BackgroundImageFix" result="shape"/>
<feGaussianBlur stdDeviation="5" result="effect1_foregroundBlur_221_1289"/>
</filter>
<clipPath id="clip0_221_1289">
<rect width="200" height="40" fill="white" transform="translate(25 41)"/>
</clipPath>
</defs>
</svg>
