<svg width="33" height="40" viewBox="0 0 33 40" fill="none" xmlns="http://www.w3.org/2000/svg">
<path d="M1.24056 36.8586L0.00144019 3.84178C-0.039483 2.75136 0.79661 1.82725 1.88567 1.75918L29.9688 0.00398469C31.0774 -0.0652986 32.0322 0.77718 32.1014 1.88571C32.104 1.92748 32.1054 1.96932 32.1054 2.01116V37.989C32.1054 39.0996 31.205 40 30.0942 40C30.0642 40 30.0342 39.9994 30.004 39.998L3.16 38.7924C2.11454 38.7454 1.27981 37.9044 1.24056 36.8586Z" fill="#FF4785"/>
<path fill-rule="evenodd" clip-rule="evenodd" d="M27.7608 0.14209L23.8958 0.38365L23.7072 4.91674C23.7044 4.98642 23.7258 5.05494 23.768 5.11052C23.8682 5.24252 24.0564 5.26836 24.1884 5.16822L25.9492 3.8325L27.4364 5.0041C27.4922 5.048 27.5616 5.07072 27.6326 5.06826C27.7982 5.06248 27.9278 4.92356 27.922 4.75796L27.7608 0.14209ZM24.7526 15.322C24.045 15.8716 18.7747 16.2466 18.7747 15.4642C18.886 12.4785 17.5494 12.3477 16.8068 12.3477C16.1013 12.3477 14.9132 12.5609 14.9132 14.1603C14.9132 15.7902 16.6495 16.7104 18.6875 17.7904C21.5828 19.3246 25.0866 21.1816 25.0866 25.854C25.0866 30.3324 21.448 32.8062 16.8068 32.8062C12.0171 32.8062 7.83138 30.8684 8.3041 24.15C8.48976 23.3612 14.579 23.5486 14.579 24.15C14.5047 26.9224 15.136 27.7378 16.7325 27.7378C17.9578 27.7378 18.5147 27.0624 18.5147 25.925C18.5147 24.2038 16.7056 23.188 14.6244 22.0196C11.8065 20.4374 8.48976 18.5753 8.48976 14.3025C8.48976 10.0374 11.423 7.19392 16.6583 7.19392C21.8936 7.19392 24.7526 9.9938 24.7526 15.322Z" fill="white"/>
</svg>
