<svg width="245" height="122" viewBox="0 0 245 122" fill="none" xmlns="http://www.w3.org/2000/svg">
<path d="M119.677 52.248V54.96H115.213V69H111.853V54.96H107.389V52.248H119.677ZM125.489 57.768C125.921 57.064 126.481 56.512 127.169 56.112C127.873 55.712 128.673 55.512 129.569 55.512V59.04H128.681C127.625 59.04 126.825 59.288 126.281 59.784C125.753 60.28 125.489 61.144 125.489 62.376V69H122.129V55.704H125.489V57.768ZM144.192 62.064C144.192 62.544 144.16 62.976 144.096 63.36H134.376C134.456 64.32 134.792 65.072 135.384 65.616C135.976 66.16 136.704 66.432 137.568 66.432C138.816 66.432 139.704 65.896 140.232 64.824H143.856C143.472 66.104 142.736 67.16 141.648 67.992C140.56 68.808 139.224 69.216 137.64 69.216C136.36 69.216 135.208 68.936 134.184 68.376C133.176 67.8 132.384 66.992 131.808 65.952C131.248 64.912 130.968 63.712 130.968 62.352C130.968 60.976 131.248 59.768 131.808 58.728C132.368 57.688 133.152 56.888 134.16 56.328C135.168 55.768 136.328 55.488 137.64 55.488C138.904 55.488 140.032 55.76 141.024 56.304C142.032 56.848 142.808 57.624 143.352 58.632C143.912 59.624 144.192 60.768 144.192 62.064ZM140.712 61.104C140.696 60.24 140.384 59.552 139.776 59.04C139.168 58.512 138.424 58.248 137.544 58.248C136.712 58.248 136.008 58.504 135.432 59.016C134.872 59.512 134.528 60.208 134.4 61.104H140.712ZM151.732 69.216C150.644 69.216 149.668 69.024 148.804 68.64C147.94 68.24 147.252 67.704 146.74 67.032C146.244 66.36 145.972 65.616 145.924 64.8H149.308C149.372 65.312 149.62 65.736 150.052 66.072C150.5 66.408 151.052 66.576 151.708 66.576C152.348 66.576 152.844 66.448 153.196 66.192C153.564 65.936 153.748 65.608 153.748 65.208C153.748 64.776 153.524 64.456 153.076 64.248C152.644 64.024 151.948 63.784 150.988 63.528C149.996 63.288 149.18 63.04 148.54 62.784C147.916 62.528 147.372 62.136 146.908 61.608C146.46 61.08 146.236 60.368 146.236 59.472C146.236 58.736 146.444 58.064 146.86 57.456C147.292 56.848 147.9 56.368 148.684 56.016C149.484 55.664 150.42 55.488 151.492 55.488C153.076 55.488 154.34 55.888 155.284 56.688C156.228 57.472 156.748 58.536 156.844 59.88H153.628C153.58 59.352 153.356 58.936 152.956 58.632C152.572 58.312 152.052 58.152 151.396 58.152C150.788 58.152 150.316 58.264 149.98 58.488C149.66 58.712 149.5 59.024 149.5 59.424C149.5 59.872 149.724 60.216 150.172 60.456C150.62 60.68 151.316 60.912 152.26 61.152C153.22 61.392 154.012 61.64 154.636 61.896C155.26 62.152 155.796 62.552 156.244 63.096C156.708 63.624 156.948 64.328 156.964 65.208C156.964 65.976 156.748 66.664 156.316 67.272C155.9 67.88 155.292 68.36 154.492 68.712C153.708 69.048 152.788 69.216 151.732 69.216ZM169.49 52.248V64.008C169.49 65.64 169.018 66.912 168.074 67.824C167.13 68.72 165.866 69.168 164.282 69.168C162.682 69.168 161.386 68.704 160.394 67.776C159.418 66.848 158.93 65.552 158.93 63.888H162.29C162.306 64.608 162.474 65.168 162.794 65.568C163.13 65.968 163.61 66.168 164.234 66.168C164.842 66.168 165.306 65.976 165.626 65.592C165.946 65.208 166.106 64.68 166.106 64.008V52.248H169.49ZM179.194 69.168C178.026 69.168 176.97 68.968 176.026 68.568C175.098 68.168 174.362 67.592 173.818 66.84C173.274 66.088 172.994 65.2 172.978 64.176H176.578C176.626 64.864 176.866 65.408 177.298 65.808C177.746 66.208 178.354 66.408 179.122 66.408C179.906 66.408 180.522 66.224 180.97 65.856C181.418 65.472 181.642 64.976 181.642 64.368C181.642 63.872 181.49 63.464 181.186 63.144C180.882 62.824 180.498 62.576 180.034 62.4C179.586 62.208 178.962 62 178.162 61.776C177.074 61.456 176.186 61.144 175.498 60.84C174.826 60.52 174.242 60.048 173.746 59.424C173.266 58.784 173.026 57.936 173.026 56.88C173.026 55.888 173.274 55.024 173.77 54.288C174.266 53.552 174.962 52.992 175.858 52.608C176.754 52.208 177.778 52.008 178.93 52.008C180.658 52.008 182.058 52.432 183.13 53.28C184.218 54.112 184.818 55.28 184.93 56.784H181.234C181.202 56.208 180.954 55.736 180.49 55.368C180.042 54.984 179.442 54.792 178.69 54.792C178.034 54.792 177.506 54.96 177.106 55.296C176.722 55.632 176.53 56.12 176.53 56.76C176.53 57.208 176.674 57.584 176.962 57.888C177.266 58.176 177.634 58.416 178.066 58.608C178.514 58.784 179.138 58.992 179.938 59.232C181.026 59.552 181.914 59.872 182.602 60.192C183.29 60.512 183.882 60.992 184.378 61.632C184.874 62.272 185.122 63.112 185.122 64.152C185.122 65.048 184.89 65.88 184.426 66.648C183.962 67.416 183.282 68.032 182.386 68.496C181.49 68.944 180.426 69.168 179.194 69.168Z" fill="black" fill-opacity="0.87"/>
<g clip-path="url(#clip0_565_267)">
<path d="M31.4567 52.9375C32.2068 51.6875 34.0194 51.6875 34.7694 52.9375L42.9523 66.5745C43.1282 66.8677 43.223 67.2024 43.2273 67.5444C43.2315 67.8863 43.1449 68.2232 42.9764 68.5207C42.8079 68.8183 42.5634 69.0658 42.268 69.238C41.9725 69.4102 41.6367 69.5009 41.2947 69.5009H24.9314C24.5896 69.5007 24.2539 69.4098 23.9586 69.2375C23.6634 69.0652 23.4191 68.8177 23.2507 68.5202C23.0823 68.2227 22.9959 67.8859 23.0002 67.544C23.0044 67.2022 23.0993 66.8677 23.2751 66.5745L31.4567 52.9375Z" fill="#82DBC5"/>
<path d="M54.9427 52H68.5533C69.6309 52 70.4984 52.8675 70.4984 53.9451V67.5558C70.4984 68.6333 69.6309 69.5009 68.5533 69.5009H54.9427C54.687 69.5015 54.4338 69.4517 54.1975 69.3541C53.9612 69.2566 53.7465 69.1134 53.5658 68.9326C53.385 68.7519 53.2418 68.5372 53.1443 68.3009C53.0468 68.0646 52.9969 67.8114 52.9976 67.5558V53.9451C52.9976 52.8675 53.8651 52 54.9427 52Z" fill="#4F4F4F"/>
<path d="M97.9999 60.7504C97.9999 63.0712 97.078 65.2969 95.4369 66.9379C93.7959 68.5789 91.5702 69.5009 89.2495 69.5009C86.9287 69.5009 84.703 68.5789 83.062 66.9379C81.4209 65.2969 80.499 63.0712 80.499 60.7504C80.499 58.4297 81.4209 56.204 83.062 54.5629C84.703 52.9219 86.9287 52 89.2495 52C91.5702 52 93.7959 52.9219 95.4369 54.5629C97.078 56.204 97.9999 58.4297 97.9999 60.7504Z" fill="#EFAC35"/>
</g>
<defs>
<filter id="filter0_f_565_267" x="0" y="0" width="245" height="122" filterUnits="userSpaceOnUse" color-interpolation-filters="sRGB">
<feFlood flood-opacity="0" result="BackgroundImageFix"/>
<feBlend mode="normal" in="SourceGraphic" in2="BackgroundImageFix" result="shape"/>
<feGaussianBlur stdDeviation="5" result="effect1_foregroundBlur_565_267"/>
</filter>
<clipPath id="clip0_565_267">
<rect width="75" height="17.5009" fill="white" transform="translate(23 52)"/>
</clipPath>
</defs>
</svg>
