<svg width="75" height="18" viewBox="0 0 75 18" fill="none" xmlns="http://www.w3.org/2000/svg">
<g clip-path="url(#clip0_565_259)">
<path d="M8.45675 0.937546C9.20679 -0.312515 11.0194 -0.312515 11.7694 0.937546L19.9523 14.5745C20.1282 14.8677 20.223 15.2024 20.2273 15.5444C20.2315 15.8863 20.1449 16.2232 19.9764 16.5207C19.8079 16.8183 19.5634 17.0658 19.268 17.238C18.9725 17.4102 18.6367 17.5009 18.2947 17.5009H1.93143C1.58958 17.5007 1.25391 17.4098 0.958644 17.2375C0.66338 17.0652 0.419097 16.8177 0.250712 16.5202C0.0823271 16.2227 -0.00413274 15.8859 0.000151842 15.544C0.00443643 15.2022 0.0993121 14.8677 0.275101 14.5745L8.45675 0.937546Z" fill="#82DBC5"/>
<path d="M31.9427 0H45.5533C46.6309 0 47.4984 0.867542 47.4984 1.94509V15.5558C47.4984 16.6333 46.6309 17.5009 45.5533 17.5009H31.9427C31.687 17.5015 31.4338 17.4517 31.1975 17.3541C30.9612 17.2566 30.7465 17.1134 30.5658 16.9326C30.385 16.7519 30.2418 16.5372 30.1443 16.3009C30.0468 16.0646 29.9969 15.8114 29.9976 15.5558V1.94509C29.9976 0.867542 30.8651 0 31.9427 0Z" fill="#4F4F4F"/>
<path d="M74.9999 8.75043C74.9999 11.0712 74.078 13.2969 72.4369 14.9379C70.7959 16.5789 68.5702 17.5009 66.2495 17.5009C63.9287 17.5009 61.703 16.5789 60.062 14.9379C58.4209 13.2969 57.499 11.0712 57.499 8.75043C57.499 6.42967 58.4209 4.20396 60.062 2.56294C61.703 0.921917 63.9287 0 66.2495 0C68.5702 0 70.7959 0.921917 72.4369 2.56294C74.078 4.20396 74.9999 6.42967 74.9999 8.75043Z" fill="#EFAC35"/>
</g>
<defs>
<clipPath id="clip0_565_259">
<rect width="75" height="17.5009" fill="white"/>
</clipPath>
</defs>
</svg>
