<svg width="77" height="75" viewBox="0 0 77 75" fill="none" xmlns="http://www.w3.org/2000/svg">
<path d="M74.1906 11.0504L40.0325 72.1309C39.3273 73.392 37.5154 73.3994 36.7995 72.1445L1.9642 11.0563C1.18434 9.68872 2.35377 8.0322 3.9035 8.3092L38.0981 14.4213C38.3162 14.4603 38.5396 14.4599 38.7577 14.4202L72.2372 8.31796C73.7818 8.03645 74.9567 9.68014 74.1906 11.0504Z" fill="url(#paint0_linear_221_1271)"/>
<path d="M54.3869 0.292338L29.109 5.24546C28.6935 5.32686 28.3859 5.67895 28.3608 6.1015L26.8059 32.3633C26.7693 32.9819 27.3374 33.4619 27.9411 33.3227L34.9788 31.6985C35.6373 31.5467 36.2323 32.1266 36.097 32.7888L34.0061 43.0276C33.8653 43.7167 34.5123 44.3059 35.1853 44.1015L39.5321 42.7809C40.206 42.5763 40.8535 43.1672 40.7109 43.8569L37.3881 59.9397C37.1802 60.9457 38.5183 61.4943 39.0764 60.6318L39.4491 60.0558L60.047 18.9491C60.392 18.2608 59.7971 17.476 59.0412 17.6219L51.797 19.02C51.1163 19.1512 50.5371 18.5173 50.7292 17.8512L55.4574 1.4605C55.6497 0.793342 55.0684 0.15882 54.3869 0.292338Z" fill="url(#paint1_linear_221_1271)"/>
<defs>
<linearGradient id="paint0_linear_221_1271" x1="1.11367" y1="6.12627" x2="43.626" y2="63.8614" gradientUnits="userSpaceOnUse">
<stop stop-color="#41D1FF"/>
<stop offset="1" stop-color="#BD34FE"/>
</linearGradient>
<linearGradient id="paint1_linear_221_1271" x1="36.1356" y1="1.6371" x2="43.8259" y2="54.3916" gradientUnits="userSpaceOnUse">
<stop stop-color="#FFEA83"/>
<stop offset="0.0833333" stop-color="#FFDD35"/>
<stop offset="1" stop-color="#FFA800"/>
</linearGradient>
</defs>
</svg>
