<svg width="75" height="75" viewBox="0 0 75 75" fill="none" xmlns="http://www.w3.org/2000/svg">
<path d="M52.2797 26.0246L35.8533 49.7749C35.6792 50.0268 35.4273 50.2154 35.1359 50.3122C34.8446 50.409 34.5296 50.4081 34.2388 50.3109C33.9481 50.2131 33.6974 50.0236 33.5247 49.7713C33.3522 49.5186 33.267 49.2168 33.2824 48.9118L33.9398 35.7991L23.3266 33.5483C23.0998 33.5003 22.8885 33.3972 22.7113 33.2484C22.5342 33.0995 22.3967 32.9094 22.3111 32.6949C22.2254 32.4804 22.1943 32.2482 22.2204 32.0187C22.2465 31.7892 22.329 31.5696 22.4606 31.3793L38.8872 7.6289C39.0613 7.37694 39.3132 7.18835 39.6046 7.09167C39.896 6.99499 40.2109 6.99549 40.5017 7.09317C40.7925 7.19081 41.0432 7.38026 41.2158 7.63281C41.3884 7.88531 41.4735 8.18708 41.4581 8.49235L40.8007 21.6051L51.4137 23.8558C51.6406 23.9038 51.8519 24.0069 52.0292 24.1557C52.2065 24.3045 52.3437 24.4946 52.4292 24.7091C52.5151 24.9236 52.546 25.1559 52.5201 25.3854C52.4942 25.6149 52.4115 25.8343 52.2797 26.0246Z" fill="#FCC72B"/>
<path d="M37.7213 69.7013C37.2844 69.7017 36.8517 69.6163 36.4481 69.449C36.0444 69.2817 35.6778 69.0363 35.3693 68.7272L19.8482 53.2072C19.2273 52.5831 18.8792 51.7381 18.8804 50.8576C18.8816 49.9772 19.2318 49.1326 19.8545 48.5104C20.4771 47.8876 21.3212 47.5372 22.2017 47.5358C23.0822 47.5349 23.9273 47.8826 24.5516 48.5035L37.7213 61.6717L66.4115 32.9829C67.0369 32.3675 67.8801 32.0243 68.7574 32.0279C69.6351 32.0314 70.4756 32.3815 71.0956 33.0019C71.716 33.6224 72.0665 34.4628 72.0701 35.3402C72.0733 36.2176 71.7301 37.0609 71.1146 37.6863L40.0727 68.7272C39.7642 69.0367 39.3977 69.2817 38.9942 69.449C38.5907 69.6163 38.1581 69.7017 37.7213 69.7013Z" fill="#729B1B"/>
<path d="M37.708 69.7013C38.1449 69.7017 38.5776 69.6163 38.9812 69.449C39.3849 69.2817 39.7515 69.0363 40.06 68.7272L55.5811 53.2072C56.202 52.5831 56.5502 51.7381 56.5488 50.8576C56.5479 49.9772 56.1975 49.1326 55.5747 48.5104C54.952 47.8876 54.1079 47.5372 53.2275 47.5358C52.347 47.5349 51.502 47.8826 50.8775 48.5035L37.708 61.6717L9.01788 32.9829C8.39243 32.3675 7.54915 32.0243 6.67179 32.0279C5.79438 32.0314 4.95393 32.3815 4.33352 33.0019C3.7131 33.6224 3.36298 34.4628 3.3594 35.3402C3.35583 36.2176 3.6991 37.0609 4.31445 37.6863L35.3566 68.7272C35.6651 69.0367 36.0316 69.2817 36.4351 69.449C36.8386 69.6163 37.2712 69.7017 37.708 69.7013Z" fill="#729B1B" fill-opacity="0.5"/>
</svg>
