<svg width="245" height="122" viewBox="0 0 245 122" fill="none" xmlns="http://www.w3.org/2000/svg">
<path d="M123.191 36.0504L89.0325 97.1309C88.3273 98.392 86.5154 98.3994 85.7995 97.1445L50.9642 36.0563C50.1843 34.6887 51.3538 33.0322 52.9035 33.3092L87.0981 39.4213C87.3162 39.4603 87.5396 39.4599 87.7577 39.4202L121.237 33.318C122.782 33.0365 123.957 34.6801 123.191 36.0504Z" fill="url(#paint0_linear_221_1269)"/>
<path d="M103.387 25.2923L78.109 30.2455C77.6935 30.3269 77.3859 30.679 77.3608 31.1015L75.8059 57.3633C75.7693 57.9819 76.3374 58.4619 76.9411 58.3227L83.9788 56.6985C84.6373 56.5467 85.2323 57.1266 85.097 57.7888L83.0061 68.0276C82.8653 68.7167 83.5123 69.3059 84.1853 69.1015L88.5321 67.7809C89.206 67.5763 89.8535 68.1672 89.7109 68.8569L86.3881 84.9397C86.1802 85.9457 87.5183 86.4943 88.0764 85.6318L88.4491 85.0558L109.047 43.9491C109.392 43.2608 108.797 42.476 108.041 42.6219L100.797 44.02C100.116 44.1512 99.5371 43.5173 99.7292 42.8512L104.457 26.4605C104.65 25.7933 104.068 25.1588 103.387 25.2923Z" fill="url(#paint1_linear_221_1269)"/>
<path d="M153.774 54.248L147.63 71H143.55L137.406 54.248H141.006L145.614 67.568L150.198 54.248H153.774ZM157.493 56.12C156.901 56.12 156.405 55.936 156.005 55.568C155.621 55.184 155.429 54.712 155.429 54.152C155.429 53.592 155.621 53.128 156.005 52.76C156.405 52.376 156.901 52.184 157.493 52.184C158.085 52.184 158.573 52.376 158.957 52.76C159.357 53.128 159.557 53.592 159.557 54.152C159.557 54.712 159.357 55.184 158.957 55.568C158.573 55.936 158.085 56.12 157.493 56.12ZM159.149 57.704V71H155.789V57.704H159.149ZM166.381 60.464V66.896C166.381 67.344 166.485 67.672 166.693 67.88C166.917 68.072 167.285 68.168 167.797 68.168H169.357V71H167.245C164.413 71 162.997 69.624 162.997 66.872V60.464H161.413V57.704H162.997V54.416H166.381V57.704H169.357V60.464H166.381ZM184.133 64.064C184.133 64.544 184.101 64.976 184.037 65.36H174.317C174.397 66.32 174.733 67.072 175.325 67.616C175.917 68.16 176.645 68.432 177.509 68.432C178.757 68.432 179.645 67.896 180.173 66.824H183.797C183.413 68.104 182.677 69.16 181.589 69.992C180.501 70.808 179.165 71.216 177.581 71.216C176.301 71.216 175.149 70.936 174.125 70.376C173.117 69.8 172.325 68.992 171.749 67.952C171.189 66.912 170.909 65.712 170.909 64.352C170.909 62.976 171.189 61.768 171.749 60.728C172.309 59.688 173.093 58.888 174.101 58.328C175.109 57.768 176.269 57.488 177.581 57.488C178.845 57.488 179.973 57.76 180.965 58.304C181.973 58.848 182.749 59.624 183.293 60.632C183.853 61.624 184.133 62.768 184.133 64.064ZM180.653 63.104C180.637 62.24 180.325 61.552 179.717 61.04C179.109 60.512 178.365 60.248 177.485 60.248C176.653 60.248 175.949 60.504 175.373 61.016C174.813 61.512 174.469 62.208 174.341 63.104H180.653Z" fill="black" fill-opacity="0.87"/>
<defs>
<filter id="filter0_f_221_1269" x="0" y="0" width="245" height="122" filterUnits="userSpaceOnUse" color-interpolation-filters="sRGB">
<feFlood flood-opacity="0" result="BackgroundImageFix"/>
<feBlend mode="normal" in="SourceGraphic" in2="BackgroundImageFix" result="shape"/>
<feGaussianBlur stdDeviation="5" result="effect1_foregroundBlur_221_1269"/>
</filter>
<linearGradient id="paint0_linear_221_1269" x1="50.1137" y1="31.1263" x2="92.626" y2="88.8614" gradientUnits="userSpaceOnUse">
<stop stop-color="#41D1FF"/>
<stop offset="1" stop-color="#BD34FE"/>
</linearGradient>
<linearGradient id="paint1_linear_221_1269" x1="85.1356" y1="26.6371" x2="92.8259" y2="79.3916" gradientUnits="userSpaceOnUse">
<stop stop-color="#FFEA83"/>
<stop offset="0.0833333" stop-color="#FFDD35"/>
<stop offset="1" stop-color="#FFA800"/>
</linearGradient>
</defs>
</svg>
