<svg width="245" height="122" viewBox="0 0 245 122" fill="none" xmlns="http://www.w3.org/2000/svg">
<path d="M90.2797 49.0246L73.8533 72.7749C73.6792 73.0268 73.4273 73.2154 73.1359 73.3122C72.8446 73.409 72.5296 73.4081 72.2388 73.3109C71.9481 73.2131 71.6974 73.0236 71.5247 72.7713C71.3522 72.5186 71.267 72.2168 71.2824 71.9118L71.9398 58.7991L61.3266 56.5483C61.0998 56.5003 60.8885 56.3972 60.7113 56.2484C60.5342 56.0995 60.3967 55.9094 60.3111 55.6949C60.2254 55.4804 60.1943 55.2482 60.2204 55.0187C60.2465 54.7892 60.329 54.5696 60.4606 54.3793L76.8872 30.6289C77.0613 30.3769 77.3132 30.1884 77.6046 30.0917C77.896 29.995 78.2109 29.9955 78.5017 30.0932C78.7925 30.1908 79.0432 30.3803 79.2158 30.6328C79.3884 30.8853 79.4735 31.1871 79.4581 31.4924L78.8007 44.6051L89.4137 46.8558C89.6406 46.9038 89.8519 47.0069 90.0292 47.1557C90.2065 47.3045 90.3437 47.4946 90.4292 47.7091C90.5151 47.9236 90.546 48.1559 90.5201 48.3854C90.4942 48.6149 90.4115 48.8343 90.2797 49.0246Z" fill="#FCC72B"/>
<path d="M75.7213 92.7013C75.2844 92.7017 74.8517 92.6163 74.4481 92.449C74.0444 92.2817 73.6778 92.0363 73.3693 91.7272L57.8482 76.2072C57.2273 75.5831 56.8792 74.7381 56.8804 73.8576C56.8816 72.9772 57.2318 72.1326 57.8545 71.5104C58.4771 70.8876 59.3212 70.5372 60.2017 70.5358C61.0822 70.5349 61.9273 70.8826 62.5516 71.5035L75.7213 84.6717L104.411 55.9829C105.037 55.3675 105.88 55.0243 106.757 55.0279C107.635 55.0314 108.476 55.3815 109.096 56.0019C109.716 56.6224 110.066 57.4628 110.07 58.3402C110.073 59.2176 109.73 60.0609 109.115 60.6863L78.0727 91.7272C77.7642 92.0367 77.3977 92.2817 76.9942 92.449C76.5907 92.6163 76.1581 92.7017 75.7213 92.7013Z" fill="#729B1B"/>
<path d="M75.708 92.7013C76.1449 92.7017 76.5776 92.6163 76.9812 92.449C77.3849 92.2817 77.7515 92.0363 78.06 91.7272L93.5811 76.2072C94.202 75.5831 94.5502 74.7381 94.5488 73.8576C94.5479 72.9772 94.1975 72.1326 93.5747 71.5104C92.952 70.8876 92.1079 70.5372 91.2275 70.5358C90.347 70.5349 89.502 70.8826 88.8775 71.5035L75.708 84.6717L47.0179 55.9829C46.3924 55.3675 45.5492 55.0243 44.6718 55.0279C43.7944 55.0314 42.9539 55.3815 42.3335 56.0019C41.7131 56.6224 41.363 57.4628 41.3594 58.3402C41.3558 59.2176 41.6991 60.0609 42.3144 60.6863L73.3566 91.7272C73.6651 92.0367 74.0316 92.2817 74.4351 92.449C74.8386 92.6163 75.2712 92.7017 75.708 92.7013Z" fill="#729B1B" fill-opacity="0.5"/>
<path d="M138.083 52.248L131.939 69H127.859L121.715 52.248H125.315L129.923 65.568L134.507 52.248H138.083ZM141.801 54.12C141.209 54.12 140.713 53.936 140.313 53.568C139.929 53.184 139.737 52.712 139.737 52.152C139.737 51.592 139.929 51.128 140.313 50.76C140.713 50.376 141.209 50.184 141.801 50.184C142.393 50.184 142.881 50.376 143.265 50.76C143.665 51.128 143.865 51.592 143.865 52.152C143.865 52.712 143.665 53.184 143.265 53.568C142.881 53.936 142.393 54.12 141.801 54.12ZM143.457 55.704V69H140.097V55.704H143.457ZM150.689 58.464V64.896C150.689 65.344 150.793 65.672 151.001 65.88C151.225 66.072 151.593 66.168 152.105 66.168H153.665V69H151.553C148.721 69 147.305 67.624 147.305 64.872V58.464H145.721V55.704H147.305V52.416H150.689V55.704H153.665V58.464H150.689ZM168.442 62.064C168.442 62.544 168.41 62.976 168.346 63.36H158.626C158.706 64.32 159.042 65.072 159.634 65.616C160.226 66.16 160.954 66.432 161.818 66.432C163.066 66.432 163.954 65.896 164.482 64.824H168.106C167.722 66.104 166.986 67.16 165.898 67.992C164.81 68.808 163.474 69.216 161.89 69.216C160.61 69.216 159.458 68.936 158.434 68.376C157.426 67.8 156.634 66.992 156.058 65.952C155.498 64.912 155.218 63.712 155.218 62.352C155.218 60.976 155.498 59.768 156.058 58.728C156.618 57.688 157.402 56.888 158.41 56.328C159.418 55.768 160.578 55.488 161.89 55.488C163.154 55.488 164.282 55.76 165.274 56.304C166.282 56.848 167.058 57.624 167.602 58.632C168.162 59.624 168.442 60.768 168.442 62.064ZM164.962 61.104C164.946 60.24 164.634 59.552 164.026 59.04C163.418 58.512 162.674 58.248 161.794 58.248C160.962 58.248 160.258 58.504 159.682 59.016C159.122 59.512 158.778 60.208 158.65 61.104H164.962ZM175.982 69.216C174.894 69.216 173.918 69.024 173.054 68.64C172.19 68.24 171.502 67.704 170.99 67.032C170.494 66.36 170.222 65.616 170.174 64.8H173.558C173.622 65.312 173.87 65.736 174.302 66.072C174.75 66.408 175.302 66.576 175.958 66.576C176.598 66.576 177.094 66.448 177.446 66.192C177.814 65.936 177.998 65.608 177.998 65.208C177.998 64.776 177.774 64.456 177.326 64.248C176.894 64.024 176.198 63.784 175.238 63.528C174.246 63.288 173.43 63.04 172.79 62.784C172.166 62.528 171.622 62.136 171.158 61.608C170.71 61.08 170.486 60.368 170.486 59.472C170.486 58.736 170.694 58.064 171.11 57.456C171.542 56.848 172.15 56.368 172.934 56.016C173.734 55.664 174.67 55.488 175.742 55.488C177.326 55.488 178.59 55.888 179.534 56.688C180.478 57.472 180.998 58.536 181.094 59.88H177.878C177.83 59.352 177.606 58.936 177.206 58.632C176.822 58.312 176.302 58.152 175.646 58.152C175.038 58.152 174.566 58.264 174.23 58.488C173.91 58.712 173.75 59.024 173.75 59.424C173.75 59.872 173.974 60.216 174.422 60.456C174.87 60.68 175.566 60.912 176.51 61.152C177.47 61.392 178.262 61.64 178.886 61.896C179.51 62.152 180.046 62.552 180.494 63.096C180.958 63.624 181.198 64.328 181.214 65.208C181.214 65.976 180.998 66.664 180.566 67.272C180.15 67.88 179.542 68.36 178.742 68.712C177.958 69.048 177.038 69.216 175.982 69.216ZM187.884 58.464V64.896C187.884 65.344 187.988 65.672 188.196 65.88C188.42 66.072 188.788 66.168 189.3 66.168H190.86V69H188.748C185.916 69 184.5 67.624 184.5 64.872V58.464H182.916V55.704H184.5V52.416H187.884V55.704H190.86V58.464H187.884Z" fill="black" fill-opacity="0.87"/>
<defs>
<filter id="filter0_f_221_1302" x="0" y="0" width="245" height="122" filterUnits="userSpaceOnUse" color-interpolation-filters="sRGB">
<feFlood flood-opacity="0" result="BackgroundImageFix"/>
<feBlend mode="normal" in="SourceGraphic" in2="BackgroundImageFix" result="shape"/>
<feGaussianBlur stdDeviation="5" result="effect1_foregroundBlur_221_1302"/>
</filter>
</defs>
</svg>
