<svg width="245" height="122" viewBox="0 0 245 122" fill="none" xmlns="http://www.w3.org/2000/svg">
<path d="M138.142 54.248L131.998 71H127.918L121.774 54.248H125.374L129.982 67.568L134.566 54.248H138.142ZM152.708 57.704V71H149.324V69.32C148.892 69.896 148.324 70.352 147.62 70.688C146.932 71.008 146.18 71.168 145.364 71.168C144.324 71.168 143.404 70.952 142.604 70.52C141.804 70.072 141.172 69.424 140.708 68.576C140.26 67.712 140.036 66.688 140.036 65.504V57.704H143.396V65.024C143.396 66.08 143.66 66.896 144.188 67.472C144.716 68.032 145.436 68.312 146.348 68.312C147.276 68.312 148.004 68.032 148.532 67.472C149.06 66.896 149.324 66.08 149.324 65.024V57.704H152.708ZM168.383 64.064C168.383 64.544 168.351 64.976 168.287 65.36H158.567C158.647 66.32 158.983 67.072 159.575 67.616C160.167 68.16 160.895 68.432 161.759 68.432C163.007 68.432 163.895 67.896 164.423 66.824H168.047C167.663 68.104 166.927 69.16 165.839 69.992C164.751 70.808 163.415 71.216 161.831 71.216C160.551 71.216 159.399 70.936 158.375 70.376C157.367 69.8 156.575 68.992 155.999 67.952C155.439 66.912 155.159 65.712 155.159 64.352C155.159 62.976 155.439 61.768 155.999 60.728C156.559 59.688 157.343 58.888 158.351 58.328C159.359 57.768 160.519 57.488 161.831 57.488C163.095 57.488 164.223 57.76 165.215 58.304C166.223 58.848 166.999 59.624 167.543 60.632C168.103 61.624 168.383 62.768 168.383 64.064ZM164.903 63.104C164.887 62.24 164.575 61.552 163.967 61.04C163.359 60.512 162.615 60.248 161.735 60.248C160.903 60.248 160.199 60.504 159.623 61.016C159.063 61.512 158.719 62.208 158.591 63.104H164.903ZM179.914 54.248V71H176.554V54.248H179.914ZM182.442 56.6V53.504H188.226V71H184.77V56.6H182.442ZM194.473 61.736C192.873 60.904 192.073 59.616 192.073 57.872C192.073 57.008 192.289 56.224 192.721 55.52C193.169 54.8 193.833 54.232 194.713 53.816C195.609 53.384 196.697 53.168 197.977 53.168C199.257 53.168 200.337 53.384 201.217 53.816C202.113 54.232 202.777 54.8 203.209 55.52C203.657 56.224 203.881 57.008 203.881 57.872C203.881 58.752 203.665 59.528 203.233 60.2C202.801 60.856 202.225 61.368 201.505 61.736C202.385 62.12 203.073 62.68 203.569 63.416C204.065 64.152 204.313 65.024 204.313 66.032C204.313 67.12 204.033 68.072 203.473 68.888C202.929 69.688 202.177 70.304 201.217 70.736C200.257 71.168 199.177 71.384 197.977 71.384C196.777 71.384 195.697 71.168 194.737 70.736C193.793 70.304 193.041 69.688 192.481 68.888C191.937 68.072 191.665 67.12 191.665 66.032C191.665 65.024 191.913 64.152 192.409 63.416C192.905 62.664 193.593 62.104 194.473 61.736ZM200.617 58.352C200.617 57.568 200.377 56.96 199.897 56.528C199.433 56.096 198.793 55.88 197.977 55.88C197.177 55.88 196.537 56.096 196.057 56.528C195.593 56.96 195.361 57.576 195.361 58.376C195.361 59.096 195.601 59.672 196.081 60.104C196.577 60.536 197.209 60.752 197.977 60.752C198.745 60.752 199.377 60.536 199.873 60.104C200.369 59.656 200.617 59.072 200.617 58.352ZM197.977 63.2C197.065 63.2 196.321 63.432 195.745 63.896C195.185 64.36 194.905 65.024 194.905 65.888C194.905 66.688 195.177 67.344 195.721 67.856C196.281 68.352 197.033 68.6 197.977 68.6C198.921 68.6 199.665 68.344 200.209 67.832C200.753 67.32 201.025 66.672 201.025 65.888C201.025 65.04 200.745 64.384 200.185 63.92C199.625 63.44 198.889 63.2 197.977 63.2ZM214.719 57.512C216.303 57.512 217.583 58.016 218.559 59.024C219.535 60.016 220.023 61.408 220.023 63.2V71H216.663V63.656C216.663 62.6 216.399 61.792 215.871 61.232C215.343 60.656 214.623 60.368 213.711 60.368C212.783 60.368 212.047 60.656 211.503 61.232C210.975 61.792 210.711 62.6 210.711 63.656V71H207.351V57.704H210.711V59.36C211.159 58.784 211.727 58.336 212.415 58.016C213.119 57.68 213.887 57.512 214.719 57.512Z" fill="black" fill-opacity="0.87"/>
<g clip-path="url(#clip0_221_1275)">
<path d="M100.941 25H32.637C27.8292 25 23.9316 28.8975 23.9316 33.7054V91.2947C23.9316 96.1025 27.8292 100 32.637 100H100.941C105.748 100 109.646 96.1025 109.646 91.2947V33.7054C109.646 28.8975 105.748 25 100.941 25Z" fill="#42B983"/>
<path d="M92.9048 33.7053H40.6726C35.8648 33.7053 31.9673 37.6028 31.9673 42.4107V82.5892C31.9673 87.3971 35.8648 91.2946 40.6726 91.2946H92.9048C97.7126 91.2946 101.61 87.3971 101.61 82.5892V42.4107C101.61 37.6028 97.7126 33.7053 92.9048 33.7053Z" fill="#34495E"/>
<path d="M66.7887 66.5178V99.9999L31.9673 66.5178H66.7887Z" fill="#34495E"/>
<path d="M66.9685 42.7515C77.8784 42.7515 86.7227 51.5957 86.7227 62.5056C86.7227 73.4155 77.8784 82.2598 66.9685 82.2598C56.0586 82.2598 47.2144 73.4155 47.2144 62.5056C47.2144 51.5957 56.0586 42.7515 66.9685 42.7515Z" stroke="white" stroke-width="8.00188"/>
<path d="M66.8684 42.7643C72.0632 42.7643 76.2744 51.6225 76.2744 62.5497C76.2744 73.477 72.0632 82.3352 66.8684 82.3352C61.6736 82.3352 57.4624 73.477 57.4624 62.5497C57.4624 51.6225 61.6736 42.7643 66.8684 42.7643Z" stroke="white" stroke-width="7.81479"/>
<path d="M66.7886 43.0803V81.5848" stroke="white" stroke-width="8"/>
<path d="M85.8736 63.1697H47.3691" stroke="white" stroke-width="8"/>
<path d="M84.1997 53.125H49.0435" stroke="white" stroke-width="7.64426"/>
<path d="M84.1997 72.5447H49.0435" stroke="white" stroke-width="7.64426"/>
</g>
<defs>
<filter id="filter0_f_221_1275" x="0" y="0" width="245" height="122" filterUnits="userSpaceOnUse" color-interpolation-filters="sRGB">
<feFlood flood-opacity="0" result="BackgroundImageFix"/>
<feBlend mode="normal" in="SourceGraphic" in2="BackgroundImageFix" result="shape"/>
<feGaussianBlur stdDeviation="5" result="effect1_foregroundBlur_221_1275"/>
</filter>
<clipPath id="clip0_221_1275">
<rect width="85.7143" height="75" fill="white" transform="translate(27 25)"/>
</clipPath>
</defs>
</svg>
