<svg width="86" height="75" viewBox="0 0 86 75" fill="none" xmlns="http://www.w3.org/2000/svg">
<g clip-path="url(#clip0_221_1278)">
<path d="M73.9406 0H5.637C0.829162 0 -3.06836 3.89752 -3.06836 8.70536V66.2947C-3.06836 71.1025 0.829162 75 5.637 75H73.9406C78.7484 75 82.6459 71.1025 82.6459 66.2947V8.70536C82.6459 3.89752 78.7484 0 73.9406 0Z" fill="#42B983"/>
<path d="M65.9048 8.70532H13.6726C8.86481 8.70532 4.96729 12.6028 4.96729 17.4107V57.5892C4.96729 62.3971 8.86481 66.2946 13.6726 66.2946H65.9048C70.7126 66.2946 74.6101 62.3971 74.6101 57.5892V17.4107C74.6101 12.6028 70.7126 8.70532 65.9048 8.70532Z" fill="#34495E"/>
<path d="M39.7887 41.5178V74.9999L4.96729 41.5178H39.7887Z" fill="#34495E"/>
<path d="M39.9685 17.7515C50.8784 17.7515 59.7227 26.5957 59.7227 37.5056C59.7227 48.4155 50.8784 57.2598 39.9685 57.2598C29.0586 57.2598 20.2144 48.4155 20.2144 37.5056C20.2144 26.5957 29.0586 17.7515 39.9685 17.7515Z" stroke="white" stroke-width="8.00188"/>
<path d="M39.8684 17.7643C45.0632 17.7643 49.2744 26.6225 49.2744 37.5497C49.2744 48.477 45.0632 57.3352 39.8684 57.3352C34.6736 57.3352 30.4624 48.477 30.4624 37.5497C30.4624 26.6225 34.6736 17.7643 39.8684 17.7643Z" stroke="white" stroke-width="7.81479"/>
<path d="M39.7886 18.0803V56.5848" stroke="white" stroke-width="8"/>
<path d="M58.8736 38.1697H20.3691" stroke="white" stroke-width="8"/>
<path d="M57.1997 28.125H22.0435" stroke="white" stroke-width="7.64426"/>
<path d="M57.1997 47.5447H22.0435" stroke="white" stroke-width="7.64426"/>
</g>
<defs>
<clipPath id="clip0_221_1278">
<rect width="85.7143" height="75" fill="white"/>
</clipPath>
</defs>
</svg>
