<svg width="247" height="124" viewBox="0 0 247 124" fill="none" xmlns="http://www.w3.org/2000/svg">
<path d="M66.0938 29.8594L58 44.7422L49.9062 29.8594H23L58 94.3125L93 29.8594H66.0938Z" fill="#42B883"/>
<path d="M66.0938 29.8594L58 44.7422L49.9062 29.8594H37L58 68.5312L79 29.8594H66.0938Z" fill="#35495E"/>
<path d="M108.79 55.248L102.646 72H98.5659L92.4219 55.248H96.0219L100.63 68.568L105.214 55.248H108.79ZM123.356 58.704V72H119.972V70.32C119.54 70.896 118.972 71.352 118.268 71.688C117.58 72.008 116.828 72.168 116.012 72.168C114.972 72.168 114.052 71.952 113.252 71.52C112.452 71.072 111.82 70.424 111.356 69.576C110.908 68.712 110.684 67.688 110.684 66.504V58.704H114.044V66.024C114.044 67.08 114.308 67.896 114.836 68.472C115.364 69.032 116.084 69.312 116.996 69.312C117.924 69.312 118.652 69.032 119.18 68.472C119.708 67.896 119.972 67.08 119.972 66.024V58.704H123.356ZM139.032 65.064C139.032 65.544 139 65.976 138.936 66.36H129.216C129.296 67.32 129.632 68.072 130.224 68.616C130.816 69.16 131.544 69.432 132.408 69.432C133.656 69.432 134.544 68.896 135.072 67.824H138.696C138.312 69.104 137.576 70.16 136.488 70.992C135.4 71.808 134.064 72.216 132.48 72.216C131.2 72.216 130.048 71.936 129.024 71.376C128.016 70.8 127.224 69.992 126.648 68.952C126.088 67.912 125.808 66.712 125.808 65.352C125.808 63.976 126.088 62.768 126.648 61.728C127.208 60.688 127.992 59.888 129 59.328C130.008 58.768 131.168 58.488 132.48 58.488C133.744 58.488 134.872 58.76 135.864 59.304C136.872 59.848 137.648 60.624 138.192 61.632C138.752 62.624 139.032 63.768 139.032 65.064ZM135.552 64.104C135.536 63.24 135.224 62.552 134.616 62.04C134.008 61.512 133.264 61.248 132.384 61.248C131.552 61.248 130.848 61.504 130.272 62.016C129.712 62.512 129.368 63.208 129.24 64.104H135.552ZM155.843 72L152.147 65.472H150.563V72H147.203V55.248H153.491C154.787 55.248 155.891 55.48 156.803 55.944C157.715 56.392 158.395 57.008 158.843 57.792C159.307 58.56 159.539 59.424 159.539 60.384C159.539 61.488 159.219 62.488 158.579 63.384C157.939 64.264 156.987 64.872 155.723 65.208L159.731 72H155.843ZM150.563 62.952H153.371C154.283 62.952 154.963 62.736 155.411 62.304C155.859 61.856 156.083 61.24 156.083 60.456C156.083 59.688 155.859 59.096 155.411 58.68C154.963 58.248 154.283 58.032 153.371 58.032H150.563V62.952ZM168.482 72.216C167.202 72.216 166.05 71.936 165.026 71.376C164.002 70.8 163.194 69.992 162.602 68.952C162.026 67.912 161.738 66.712 161.738 65.352C161.738 63.992 162.034 62.792 162.626 61.752C163.234 60.712 164.058 59.912 165.098 59.352C166.138 58.776 167.298 58.488 168.578 58.488C169.858 58.488 171.018 58.776 172.058 59.352C173.098 59.912 173.914 60.712 174.506 61.752C175.114 62.792 175.418 63.992 175.418 65.352C175.418 66.712 175.106 67.912 174.482 68.952C173.874 69.992 173.042 70.8 171.986 71.376C170.946 71.936 169.778 72.216 168.482 72.216ZM168.482 69.288C169.09 69.288 169.658 69.144 170.186 68.856C170.73 68.552 171.162 68.104 171.482 67.512C171.802 66.92 171.962 66.2 171.962 65.352C171.962 64.088 171.626 63.12 170.954 62.448C170.298 61.76 169.49 61.416 168.53 61.416C167.57 61.416 166.762 61.76 166.106 62.448C165.466 63.12 165.146 64.088 165.146 65.352C165.146 66.616 165.458 67.592 166.082 68.28C166.722 68.952 167.522 69.288 168.482 69.288ZM190.435 58.704V72H187.051V70.32C186.619 70.896 186.051 71.352 185.347 71.688C184.659 72.008 183.907 72.168 183.091 72.168C182.051 72.168 181.131 71.952 180.331 71.52C179.531 71.072 178.899 70.424 178.435 69.576C177.987 68.712 177.763 67.688 177.763 66.504V58.704H181.123V66.024C181.123 67.08 181.387 67.896 181.915 68.472C182.443 69.032 183.163 69.312 184.075 69.312C185.003 69.312 185.731 69.032 186.259 68.472C186.787 67.896 187.051 67.08 187.051 66.024V58.704H190.435ZM197.662 61.464V67.896C197.662 68.344 197.766 68.672 197.974 68.88C198.198 69.072 198.566 69.168 199.078 69.168H200.638V72H198.526C195.694 72 194.278 70.624 194.278 67.872V61.464H192.694V58.704H194.278V55.416H197.662V58.704H200.638V61.464H197.662ZM215.414 65.064C215.414 65.544 215.382 65.976 215.318 66.36H205.598C205.678 67.32 206.014 68.072 206.606 68.616C207.198 69.16 207.926 69.432 208.79 69.432C210.038 69.432 210.926 68.896 211.454 67.824H215.078C214.694 69.104 213.958 70.16 212.87 70.992C211.782 71.808 210.446 72.216 208.862 72.216C207.582 72.216 206.43 71.936 205.406 71.376C204.398 70.8 203.606 69.992 203.03 68.952C202.47 67.912 202.19 66.712 202.19 65.352C202.19 63.976 202.47 62.768 203.03 61.728C203.59 60.688 204.374 59.888 205.382 59.328C206.39 58.768 207.55 58.488 208.862 58.488C210.126 58.488 211.254 58.76 212.246 59.304C213.254 59.848 214.03 60.624 214.574 61.632C215.134 62.624 215.414 63.768 215.414 65.064ZM211.934 64.104C211.918 63.24 211.606 62.552 210.998 62.04C210.39 61.512 209.646 61.248 208.766 61.248C207.934 61.248 207.23 61.504 206.654 62.016C206.094 62.512 205.75 63.208 205.622 64.104H211.934ZM221.227 60.768C221.659 60.064 222.219 59.512 222.907 59.112C223.611 58.712 224.411 58.512 225.307 58.512V62.04H224.419C223.363 62.04 222.563 62.288 222.019 62.784C221.491 63.28 221.227 64.144 221.227 65.376V72H217.867V58.704H221.227V60.768Z" fill="black" fill-opacity="0.87"/>
<defs>
<filter id="filter0_f_221_1185" x="0" y="0" width="247" height="124" filterUnits="userSpaceOnUse" color-interpolation-filters="sRGB">
<feFlood flood-opacity="0" result="BackgroundImageFix"/>
<feBlend mode="normal" in="SourceGraphic" in2="BackgroundImageFix" result="shape"/>
<feGaussianBlur stdDeviation="5" result="effect1_foregroundBlur_221_1185"/>
</filter>
</defs>
</svg>
