<svg width="245" height="122" viewBox="0 0 245 122" fill="none" xmlns="http://www.w3.org/2000/svg">
<path d="M95.0938 28.8594L87 43.7422L78.9063 28.8594H52L87 93.3125L122 28.8594H95.0938Z" fill="#42B883"/>
<path d="M95.0938 28.8594L87 43.7422L78.9063 28.8594H66L87 67.5312L108 28.8594H95.0938Z" fill="#35495E"/>
<path d="M136.837 54.248L130.693 71H126.613L120.469 54.248H124.069L128.677 67.568L133.261 54.248H136.837ZM151.403 57.704V71H148.019V69.32C147.587 69.896 147.019 70.352 146.315 70.688C145.627 71.008 144.875 71.168 144.059 71.168C143.019 71.168 142.099 70.952 141.299 70.52C140.499 70.072 139.867 69.424 139.403 68.576C138.955 67.712 138.731 66.688 138.731 65.504V57.704H142.091V65.024C142.091 66.08 142.355 66.896 142.883 67.472C143.411 68.032 144.131 68.312 145.043 68.312C145.971 68.312 146.699 68.032 147.227 67.472C147.755 66.896 148.019 66.08 148.019 65.024V57.704H151.403ZM167.079 64.064C167.079 64.544 167.047 64.976 166.983 65.36H157.263C157.343 66.32 157.679 67.072 158.271 67.616C158.863 68.16 159.591 68.432 160.455 68.432C161.703 68.432 162.591 67.896 163.119 66.824H166.743C166.359 68.104 165.623 69.16 164.535 69.992C163.447 70.808 162.111 71.216 160.527 71.216C159.247 71.216 158.095 70.936 157.071 70.376C156.063 69.8 155.271 68.992 154.695 67.952C154.135 66.912 153.854 65.712 153.854 64.352C153.854 62.976 154.135 61.768 154.695 60.728C155.255 59.688 156.039 58.888 157.047 58.328C158.055 57.768 159.215 57.488 160.527 57.488C161.791 57.488 162.919 57.76 163.911 58.304C164.919 58.848 165.695 59.624 166.239 60.632C166.799 61.624 167.079 62.768 167.079 64.064ZM163.599 63.104C163.583 62.24 163.271 61.552 162.663 61.04C162.055 60.512 161.311 60.248 160.431 60.248C159.599 60.248 158.895 60.504 158.319 61.016C157.759 61.512 157.415 62.208 157.287 63.104H163.599ZM171.019 71.168C170.411 71.168 169.907 70.984 169.507 70.616C169.123 70.232 168.931 69.76 168.931 69.2C168.931 68.64 169.123 68.176 169.507 67.808C169.907 67.424 170.411 67.232 171.019 67.232C171.611 67.232 172.099 67.424 172.483 67.808C172.867 68.176 173.059 68.64 173.059 69.2C173.059 69.76 172.867 70.232 172.483 70.616C172.099 70.984 171.611 71.168 171.019 71.168ZM177.469 56.12C176.861 56.12 176.357 55.936 175.957 55.568C175.573 55.184 175.381 54.712 175.381 54.152C175.381 53.592 175.573 53.128 175.957 52.76C176.357 52.376 176.861 52.184 177.469 52.184C178.061 52.184 178.549 52.376 178.933 52.76C179.317 53.128 179.509 53.592 179.509 54.152C179.509 54.712 179.317 55.184 178.933 55.568C178.549 55.936 178.061 56.12 177.469 56.12ZM179.125 73.184C179.125 74.656 178.757 75.712 178.021 76.352C177.301 77.008 176.261 77.336 174.901 77.336H173.413V74.48H174.373C174.885 74.48 175.245 74.376 175.453 74.168C175.661 73.976 175.765 73.656 175.765 73.208V57.704H179.125V73.184ZM187.533 71.216C186.445 71.216 185.469 71.024 184.605 70.64C183.741 70.24 183.053 69.704 182.541 69.032C182.045 68.36 181.773 67.616 181.725 66.8H185.109C185.173 67.312 185.421 67.736 185.853 68.072C186.301 68.408 186.853 68.576 187.509 68.576C188.149 68.576 188.645 68.448 188.997 68.192C189.365 67.936 189.549 67.608 189.549 67.208C189.549 66.776 189.325 66.456 188.877 66.248C188.445 66.024 187.749 65.784 186.789 65.528C185.797 65.288 184.981 65.04 184.341 64.784C183.717 64.528 183.173 64.136 182.709 63.608C182.261 63.08 182.037 62.368 182.037 61.472C182.037 60.736 182.245 60.064 182.661 59.456C183.093 58.848 183.701 58.368 184.485 58.016C185.285 57.664 186.221 57.488 187.293 57.488C188.877 57.488 190.141 57.888 191.085 58.688C192.029 59.472 192.549 60.536 192.645 61.88H189.429C189.381 61.352 189.157 60.936 188.757 60.632C188.373 60.312 187.853 60.152 187.197 60.152C186.589 60.152 186.117 60.264 185.781 60.488C185.461 60.712 185.301 61.024 185.301 61.424C185.301 61.872 185.525 62.216 185.973 62.456C186.421 62.68 187.117 62.912 188.061 63.152C189.021 63.392 189.813 63.64 190.437 63.896C191.061 64.152 191.597 64.552 192.045 65.096C192.509 65.624 192.749 66.328 192.765 67.208C192.765 67.976 192.549 68.664 192.117 69.272C191.701 69.88 191.093 70.36 190.293 70.712C189.509 71.048 188.589 71.216 187.533 71.216Z" fill="black" fill-opacity="0.87"/>
<defs>
<filter id="filter0_f_221_1178" x="0" y="0" width="245" height="122" filterUnits="userSpaceOnUse" color-interpolation-filters="sRGB">
<feFlood flood-opacity="0" result="BackgroundImageFix"/>
<feBlend mode="normal" in="SourceGraphic" in2="BackgroundImageFix" result="shape"/>
<feGaussianBlur stdDeviation="5" result="effect1_foregroundBlur_221_1178"/>
</filter>
</defs>
</svg>
