<svg width="245" height="122" viewBox="0 0 245 122" fill="none" xmlns="http://www.w3.org/2000/svg">
<path d="M85.0789 49.404L74.1807 68.2847L84.5001 86.1692L98.1681 62.4952L111.83 38.8215H91.1847L85.0789 49.404Z" fill="#1697F6"/>
<path d="M70.8383 62.4952L71.5542 63.7402L81.7491 46.0736L85.9379 38.8215H84.5001H57.1704L70.8383 62.4952Z" fill="#AEDDFF"/>
<path d="M91.1847 38.8215C96.3507 55.8221 84.5001 86.1692 84.5001 86.1692L74.1807 68.2847L91.1847 38.8215Z" fill="#1867C0"/>
<path d="M85.9376 38.8215C64.1722 38.8215 71.5539 63.7402 71.5539 63.7402L85.9376 38.8215Z" fill="#7BC6FF"/>
<path d="M128.938 54.248L122.794 71H118.714L112.57 54.248H116.17L120.778 67.568L125.362 54.248H128.938ZM143.505 57.704V71H140.121V69.32C139.689 69.896 139.121 70.352 138.417 70.688C137.729 71.008 136.977 71.168 136.161 71.168C135.121 71.168 134.201 70.952 133.401 70.52C132.601 70.072 131.969 69.424 131.505 68.576C131.057 67.712 130.833 66.688 130.833 65.504V57.704H134.193V65.024C134.193 66.08 134.457 66.896 134.985 67.472C135.513 68.032 136.233 68.312 137.145 68.312C138.073 68.312 138.801 68.032 139.329 67.472C139.857 66.896 140.121 66.08 140.121 65.024V57.704H143.505ZM159.18 64.064C159.18 64.544 159.148 64.976 159.084 65.36H149.364C149.444 66.32 149.78 67.072 150.372 67.616C150.964 68.16 151.692 68.432 152.556 68.432C153.804 68.432 154.692 67.896 155.22 66.824H158.844C158.46 68.104 157.724 69.16 156.636 69.992C155.548 70.808 154.212 71.216 152.628 71.216C151.348 71.216 150.196 70.936 149.172 70.376C148.164 69.8 147.372 68.992 146.796 67.952C146.236 66.912 145.956 65.712 145.956 64.352C145.956 62.976 146.236 61.768 146.796 60.728C147.356 59.688 148.14 58.888 149.148 58.328C150.156 57.768 151.316 57.488 152.628 57.488C153.892 57.488 155.02 57.76 156.012 58.304C157.02 58.848 157.796 59.624 158.34 60.632C158.9 61.624 159.18 62.768 159.18 64.064ZM155.7 63.104C155.684 62.24 155.372 61.552 154.764 61.04C154.156 60.512 153.412 60.248 152.532 60.248C151.7 60.248 150.996 60.504 150.42 61.016C149.86 61.512 149.516 62.208 149.388 63.104H155.7ZM165.545 60.464V66.896C165.545 67.344 165.649 67.672 165.857 67.88C166.081 68.072 166.449 68.168 166.961 68.168H168.521V71H166.409C163.577 71 162.161 69.624 162.161 66.872V60.464H160.577V57.704H162.161V54.416H165.545V57.704H168.521V60.464H165.545ZM172.641 56.12C172.049 56.12 171.553 55.936 171.153 55.568C170.769 55.184 170.577 54.712 170.577 54.152C170.577 53.592 170.769 53.128 171.153 52.76C171.553 52.376 172.049 52.184 172.641 52.184C173.233 52.184 173.721 52.376 174.105 52.76C174.505 53.128 174.705 53.592 174.705 54.152C174.705 54.712 174.505 55.184 174.105 55.568C173.721 55.936 173.233 56.12 172.641 56.12ZM174.297 57.704V71H170.937V57.704H174.297ZM183.713 60.464H181.385V71H177.977V60.464H176.465V57.704H177.977V57.032C177.977 55.4 178.441 54.2 179.369 53.432C180.297 52.664 181.697 52.304 183.569 52.352V55.184C182.753 55.168 182.185 55.304 181.865 55.592C181.545 55.88 181.385 56.4 181.385 57.152V57.704H183.713V60.464ZM198.61 57.704L190.378 77.288H186.802L189.682 70.664L184.354 57.704H188.122L191.554 66.992L195.034 57.704H198.61Z" fill="black" fill-opacity="0.87"/>
<defs>
<filter id="filter0_f_575_123" x="0" y="0" width="245" height="122" filterUnits="userSpaceOnUse" color-interpolation-filters="sRGB">
<feFlood flood-opacity="0" result="BackgroundImageFix"/>
<feBlend mode="normal" in="SourceGraphic" in2="BackgroundImageFix" result="shape"/>
<feGaussianBlur stdDeviation="5" result="effect1_foregroundBlur_575_123"/>
</filter>
</defs>
</svg>
