<svg width="245" height="122" viewBox="0 0 245 122" fill="none" xmlns="http://www.w3.org/2000/svg">
<path d="M92.4547 28.0288V62.8686C92.4547 72.6058 85.0879 80.4988 75.9998 80.4988C66.9117 80.4988 59.5449 72.6058 59.5449 62.8686V28.0288H71.1859V62.8686C71.1859 63.5459 71.3104 64.2166 71.5524 64.8423C71.7943 65.4681 72.1489 66.0367 72.5959 66.5156C73.0429 66.9946 73.5736 67.3745 74.1576 67.6337C74.7417 67.8929 75.3677 68.0263 75.9998 68.0263C76.632 68.0263 77.258 67.8929 77.842 67.6337C78.4261 67.3745 78.9568 66.9946 79.4038 66.5156C79.8508 66.0367 80.2054 65.4681 80.4473 64.8423C80.6892 64.2166 80.8137 63.5459 80.8137 62.8686V28.0288H92.4547Z" fill="#35495E"/>
<path d="M104.095 28.0288V62.8686C104.095 79.4938 91.5169 92.9751 76 92.9751C60.4831 92.9751 47.9048 79.4938 47.9048 62.8686V28.0288H59.5451V62.8686C59.5451 72.6058 66.9126 80.4988 76 80.4988C85.0874 80.4988 92.4549 72.6058 92.4549 62.8686V28.0288H104.095Z" fill="#41B883"/>
<path d="M128.02 52.248L121.876 69H117.796L111.652 52.248H115.252L119.86 65.568L124.444 52.248H128.02ZM142.587 55.704V69H139.203V67.32C138.771 67.896 138.203 68.352 137.499 68.688C136.811 69.008 136.059 69.168 135.243 69.168C134.203 69.168 133.283 68.952 132.483 68.52C131.683 68.072 131.051 67.424 130.587 66.576C130.139 65.712 129.915 64.688 129.915 63.504V55.704H133.275V63.024C133.275 64.08 133.539 64.896 134.067 65.472C134.595 66.032 135.315 66.312 136.227 66.312C137.155 66.312 137.883 66.032 138.411 65.472C138.939 64.896 139.203 64.08 139.203 63.024V55.704H142.587ZM158.262 62.064C158.262 62.544 158.23 62.976 158.166 63.36H148.446C148.526 64.32 148.862 65.072 149.454 65.616C150.046 66.16 150.774 66.432 151.638 66.432C152.886 66.432 153.774 65.896 154.302 64.824H157.926C157.542 66.104 156.806 67.16 155.718 67.992C154.63 68.808 153.294 69.216 151.71 69.216C150.43 69.216 149.278 68.936 148.254 68.376C147.246 67.8 146.454 66.992 145.878 65.952C145.318 64.912 145.038 63.712 145.038 62.352C145.038 60.976 145.318 59.768 145.878 58.728C146.438 57.688 147.222 56.888 148.23 56.328C149.238 55.768 150.398 55.488 151.71 55.488C152.974 55.488 154.102 55.76 155.094 56.304C156.102 56.848 156.878 57.624 157.422 58.632C157.982 59.624 158.262 60.768 158.262 62.064ZM154.782 61.104C154.766 60.24 154.454 59.552 153.846 59.04C153.238 58.512 152.494 58.248 151.614 58.248C150.782 58.248 150.078 58.504 149.502 59.016C148.942 59.512 148.598 60.208 148.47 61.104H154.782ZM164.027 52.248V62.616C164.027 63.752 164.323 64.624 164.915 65.232C165.507 65.824 166.339 66.12 167.411 66.12C168.499 66.12 169.339 65.824 169.931 65.232C170.523 64.624 170.819 63.752 170.819 62.616V52.248H174.203V62.592C174.203 64.016 173.891 65.224 173.267 66.216C172.659 67.192 171.835 67.928 170.795 68.424C169.771 68.92 168.627 69.168 167.363 69.168C166.115 69.168 164.979 68.92 163.955 68.424C162.947 67.928 162.147 67.192 161.555 66.216C160.963 65.224 160.667 64.016 160.667 62.592V52.248H164.027ZM182.537 69.216C181.449 69.216 180.473 69.024 179.609 68.64C178.745 68.24 178.057 67.704 177.545 67.032C177.049 66.36 176.777 65.616 176.729 64.8H180.113C180.177 65.312 180.425 65.736 180.857 66.072C181.305 66.408 181.857 66.576 182.513 66.576C183.153 66.576 183.649 66.448 184.001 66.192C184.369 65.936 184.553 65.608 184.553 65.208C184.553 64.776 184.329 64.456 183.881 64.248C183.449 64.024 182.753 63.784 181.793 63.528C180.801 63.288 179.985 63.04 179.345 62.784C178.721 62.528 178.177 62.136 177.713 61.608C177.265 61.08 177.041 60.368 177.041 59.472C177.041 58.736 177.249 58.064 177.665 57.456C178.097 56.848 178.705 56.368 179.489 56.016C180.289 55.664 181.225 55.488 182.297 55.488C183.881 55.488 185.145 55.888 186.089 56.688C187.033 57.472 187.553 58.536 187.649 59.88H184.433C184.385 59.352 184.161 58.936 183.761 58.632C183.377 58.312 182.857 58.152 182.201 58.152C181.593 58.152 181.121 58.264 180.785 58.488C180.465 58.712 180.305 59.024 180.305 59.424C180.305 59.872 180.529 60.216 180.977 60.456C181.425 60.68 182.121 60.912 183.065 61.152C184.025 61.392 184.817 61.64 185.441 61.896C186.065 62.152 186.601 62.552 187.049 63.096C187.513 63.624 187.753 64.328 187.769 65.208C187.769 65.976 187.553 66.664 187.121 67.272C186.705 67.88 186.097 68.36 185.297 68.712C184.513 69.048 183.593 69.216 182.537 69.216ZM202.887 62.064C202.887 62.544 202.855 62.976 202.791 63.36H193.071C193.151 64.32 193.487 65.072 194.079 65.616C194.671 66.16 195.399 66.432 196.263 66.432C197.511 66.432 198.399 65.896 198.927 64.824H202.551C202.167 66.104 201.431 67.16 200.343 67.992C199.255 68.808 197.919 69.216 196.335 69.216C195.055 69.216 193.903 68.936 192.879 68.376C191.871 67.8 191.079 66.992 190.503 65.952C189.943 64.912 189.663 63.712 189.663 62.352C189.663 60.976 189.943 59.768 190.503 58.728C191.063 57.688 191.847 56.888 192.855 56.328C193.863 55.768 195.023 55.488 196.335 55.488C197.599 55.488 198.727 55.76 199.719 56.304C200.727 56.848 201.503 57.624 202.047 58.632C202.607 59.624 202.887 60.768 202.887 62.064ZM199.407 61.104C199.391 60.24 199.079 59.552 198.471 59.04C197.863 58.512 197.119 58.248 196.239 58.248C195.407 58.248 194.703 58.504 194.127 59.016C193.567 59.512 193.223 60.208 193.095 61.104H199.407Z" fill="black" fill-opacity="0.87"/>
<defs>
<filter id="filter0_f_221_1296" x="0" y="0" width="245" height="122" filterUnits="userSpaceOnUse" color-interpolation-filters="sRGB">
<feFlood flood-opacity="0" result="BackgroundImageFix"/>
<feBlend mode="normal" in="SourceGraphic" in2="BackgroundImageFix" result="shape"/>
<feGaussianBlur stdDeviation="5" result="effect1_foregroundBlur_221_1296"/>
</filter>
</defs>
</svg>
