<svg width="70" height="75" viewBox="0 0 70 75" fill="none" xmlns="http://www.w3.org/2000/svg">
<path d="M51.4547 5.02881V39.8686C51.4547 49.6058 44.0879 57.4988 34.9998 57.4988C25.9117 57.4988 18.5449 49.6058 18.5449 39.8686V5.02881H30.1859V39.8686C30.1859 40.5459 30.3104 41.2166 30.5524 41.8423C30.7943 42.4681 31.1489 43.0367 31.5959 43.5156C32.0429 43.9946 32.5736 44.3745 33.1576 44.6337C33.7417 44.8929 34.3677 45.0263 34.9998 45.0263C35.632 45.0263 36.258 44.8929 36.842 44.6337C37.4261 44.3745 37.9568 43.9946 38.4038 43.5156C38.8508 43.0367 39.2054 42.4681 39.4473 41.8423C39.6892 41.2166 39.8137 40.5459 39.8137 39.8686V5.02881H51.4547Z" fill="#35495E"/>
<path d="M63.0952 5.02881V39.8686C63.0952 56.4938 50.5169 69.9751 35 69.9751C19.4831 69.9751 6.90479 56.4938 6.90479 39.8686V5.02881H18.5451V39.8686C18.5451 49.6058 25.9126 57.4988 35 57.4988C44.0874 57.4988 51.4549 49.6058 51.4549 39.8686V5.02881H63.0952Z" fill="#41B883"/>
</svg>
