<svg width="245" height="122" viewBox="0 0 245 122" fill="none" xmlns="http://www.w3.org/2000/svg">
<g clip-path="url(#clip0_574_79)">
<path d="M65.9751 37.1477H106.254L118.057 49.4702L84.6613 86.875L53.603 49.4702L65.9751 37.1477Z" fill="#18253F"/>
<path d="M92.7567 78.04H76.9695L69.8391 69.3109L90.0451 69.3103L90.0458 68.072H101.596L92.7567 78.04Z" fill="#274D82"/>
<path d="M114.668 45.9558L71.1069 71.1058L65.4243 63.9969L99.1481 44.5259L98.5287 43.4526L107.511 38.2666L114.668 45.9558Z" fill="#274D82"/>
<path d="M91.3288 37.16L58.6197 56.0446L53.5327 49.6942L75.4326 37.0503L91.3288 37.16Z" fill="#274D82"/>
<g filter="url(#filter1_d_574_79)">
<path d="M107.829 33.4465H64.4425L48.5911 49.2165L84.5793 92.5535L87.4503 89.3322L123.074 49.3645L107.829 33.4465ZM106.244 37.1595L118.019 49.4551L84.679 86.8614L53.6156 49.4551L65.9747 37.1595H106.244Z" fill="black"/>
</g>
<path d="M107.829 33.4465H64.4425L48.5911 49.2165L84.5793 92.5535L87.4503 89.3322L123.074 49.3645L107.829 33.4465ZM106.244 37.1595L118.019 49.4551L84.679 86.8614L53.6156 49.4551L65.9747 37.1595H106.244Z" fill="#3068B7"/>
</g>
<path d="M141.389 68.168H148.925V71H137.501V68.408L144.989 57.08H137.501V54.248H148.925V56.84L141.389 68.168ZM157.689 71.216C156.409 71.216 155.257 70.936 154.233 70.376C153.209 69.8 152.401 68.992 151.809 67.952C151.233 66.912 150.945 65.712 150.945 64.352C150.945 62.992 151.241 61.792 151.833 60.752C152.441 59.712 153.265 58.912 154.305 58.352C155.345 57.776 156.505 57.488 157.785 57.488C159.065 57.488 160.225 57.776 161.265 58.352C162.305 58.912 163.121 59.712 163.713 60.752C164.321 61.792 164.625 62.992 164.625 64.352C164.625 65.712 164.313 66.912 163.689 67.952C163.081 68.992 162.249 69.8 161.193 70.376C160.153 70.936 158.985 71.216 157.689 71.216ZM157.689 68.288C158.297 68.288 158.865 68.144 159.393 67.856C159.937 67.552 160.369 67.104 160.689 66.512C161.009 65.92 161.169 65.2 161.169 64.352C161.169 63.088 160.833 62.12 160.161 61.448C159.505 60.76 158.697 60.416 157.737 60.416C156.777 60.416 155.969 60.76 155.313 61.448C154.673 62.12 154.353 63.088 154.353 64.352C154.353 65.616 154.665 66.592 155.289 67.28C155.929 67.952 156.729 68.288 157.689 68.288ZM166.226 64.304C166.226 62.96 166.49 61.768 167.018 60.728C167.562 59.688 168.298 58.888 169.226 58.328C170.154 57.768 171.186 57.488 172.322 57.488C173.186 57.488 174.01 57.68 174.794 58.064C175.578 58.432 176.202 58.928 176.666 59.552V53.24H180.074V71H176.666V69.032C176.25 69.688 175.666 70.216 174.914 70.616C174.162 71.016 173.29 71.216 172.298 71.216C171.178 71.216 170.154 70.928 169.226 70.352C168.298 69.776 167.562 68.968 167.018 67.928C166.49 66.872 166.226 65.664 166.226 64.304ZM176.69 64.352C176.69 63.536 176.53 62.84 176.21 62.264C175.89 61.672 175.458 61.224 174.914 60.92C174.37 60.6 173.786 60.44 173.162 60.44C172.538 60.44 171.962 60.592 171.434 60.896C170.906 61.2 170.474 61.648 170.138 62.24C169.818 62.816 169.658 63.504 169.658 64.304C169.658 65.104 169.818 65.808 170.138 66.416C170.474 67.008 170.906 67.464 171.434 67.784C171.978 68.104 172.554 68.264 173.162 68.264C173.786 68.264 174.37 68.112 174.914 67.808C175.458 67.488 175.89 67.04 176.21 66.464C176.53 65.872 176.69 65.168 176.69 64.352Z" fill="black" fill-opacity="0.87"/>
<defs>
<filter id="filter0_f_574_79" x="0" y="0" width="245" height="122" filterUnits="userSpaceOnUse" color-interpolation-filters="sRGB">
<feFlood flood-opacity="0" result="BackgroundImageFix"/>
<feBlend mode="normal" in="SourceGraphic" in2="BackgroundImageFix" result="shape"/>
<feGaussianBlur stdDeviation="5" result="effect1_foregroundBlur_574_79"/>
</filter>
<filter id="filter1_d_574_79" x="45.5911" y="30.4465" width="82.4827" height="67.1069" filterUnits="userSpaceOnUse" color-interpolation-filters="sRGB">
<feFlood flood-opacity="0" result="BackgroundImageFix"/>
<feColorMatrix in="SourceAlpha" type="matrix" values="0 0 0 0 0 0 0 0 0 0 0 0 0 0 0 0 0 0 127 0" result="hardAlpha"/>
<feOffset dx="1" dy="1"/>
<feGaussianBlur stdDeviation="2"/>
<feColorMatrix type="matrix" values="0 0 0 0 0 0 0 0 0 0 0 0 0 0 0 0 0 0 0.36 0"/>
<feBlend mode="normal" in2="BackgroundImageFix" result="effect1_dropShadow_574_79"/>
<feBlend mode="normal" in="SourceGraphic" in2="effect1_dropShadow_574_79" result="shape"/>
</filter>
<clipPath id="clip0_574_79">
<rect width="75.665" height="60" fill="white" transform="translate(48 33)"/>
</clipPath>
</defs>
</svg>
